<ttFont>
<head>
    <!-- Most of this table will be recalculated by the compiler -->
    <tableVersion value="1.0"/>
    <fontRevision value="2.004"/>
    <checkSumAdjustment value="0xa5e3dea"/>
    <magicNumber value="0x5f0f3cf5"/>
    <flags value="00000000 00000011"/>
    <unitsPerEm value="1000"/>
    <created value="Thu Oct  8 09:56:42 2009"/>
    <modified value="Thu Oct  8 09:56:42 2009"/>
    <xMin value="-566"/>
    <yMin value="-303"/>
    <xMax value="1772"/>
    <yMax value="1126"/>
    <macStyle value="00000000 00000000"/>
    <lowestRecPPEM value="3"/>
    <fontDirectionHint value="2"/>
    <indexToLocFormat value="0"/>
    <glyphDataFormat value="0"/>
  </head>
          <CharString index="0">
            hintmask 10010000
            909 hmoveto
            44 -26 vlineto
            -62 -15 6 27 -12 hvcurveto
            -269 613 rlineto
            18 -8 -3 8 -24 hhcurveto
            -18 -8 -4 -20 -9 hvcurveto
            -258 -589 rlineto
            -50 -22 -54 -9 -50 hhcurveto
            -44 vlineto
            3 37 42 1 37 hhcurveto
            13 71 -1 -3 46 hvcurveto
            44 vlineto
            hintmask 01100000
            -56 -20 25 19 6 2 3 3 8 hvcurveto
            52 118 rlineto
            321 hlineto
            61 -140 rlineto
            6 -12 0 -3 0 vvcurveto
            -24 -57 0 -29 vhcurveto
            hintmask 10100000
            -44 vlineto
            162 4 rlineto
            -162 263 rmoveto
            -283 hlineto
            141 322 rlineto
            return
          </CharString>
          <CharString index="1">
            635 90 rmoveto
            55 -42 -53 vlineto
            -10 0 -44 -40 -40 0 44 10 vhcurveto
            205 vlineto
            96 -101 55 -124 -61 -116 -3 -85 -37 28 -17 25 27 26 19 34 24 -14 15 -9 6 vhcurveto
            11 33 48 0 11 hhcurveto
            85 53 -47 -72 hvcurveto
            -26 vlineto
            -97 -5 -54 -3 -77 -27 rrcurveto
            -66 -23 -58 -42 -65 vvcurveto
            return
          </CharString>
          <CharString index="2">
            15 callgsubr
            hintmask 0101001110000000
            -104 callgsubr
            hintmask 0100000010000000
            -35 4 23 -42 51 hhcurveto
            7 114 0 96 hvcurveto
            -211 52 rmoveto
            hintmask 1010001100000000
            -69 callgsubr
            return
          </CharString>
          <CharString index="3">
            -20 -106 callgsubr
            return
          </CharString>
          <CharString index="4">
            -103 callgsubr
            hintmask 0000110000000000
            return
          </CharString>
          <CharString index="5">
            -104 callsubr
            hintmask 00001100
            return
          </CharString>
          <CharString index="6">
            -36 callsubr
            -33 -28 -27 -34 -34 27 -27 34 33 28 27 34 vhcurveto
            return
          </CharString>
          <CharString index="7">
            rmoveto
            -101 callsubr
            return
          </CharString>
          <CharString index="8">
            31 -25 24 -30 -30 -25 -24 -31 -31 24 -24 31 30 25 24 31 vhcurveto
            return
          </CharString>
          <CharString index="9">
            836 271 rmoveto
            -42 hlineto
            -164 -29 -39 -63 -191 hhcurveto
            -186 hlineto
            -49 0 7 31 hvcurveto
            248 116 vlineto
            100 28 -21 -96 hvcurveto
            42 278 -42 hlineto
            -96 -28 -21 -100 vhcurveto
            -116 223 hlineto
            31 0 7 49 vhcurveto
            177 hlineto
            return
          </CharString>
          <CharString index="10">
            615 213 rmoveto
            125 -118 110 -157 -157 -118 -110 -125 -120 119 -104 156 157 118 104 120 vhcurveto
            -100 10 rmoveto
            -49 0 -149 -175 -175 0 149 49 45 0 147 175 175 0 -147 -45 vhcurveto
            return
          </CharString>
          <CharString index="11">
            rmoveto
            26 -21 31 -48 -24 -53 -5 -41 -53 vhcurveto
            hintmask 0000100001000000
            14 -23 -45 21 -62 hhcurveto
            -118 -82 -70 -77 -51 37 -37 15 -12 hvcurveto
            -24 -29 -6 -30 -22 vvcurveto
            -53 34 -33 9 -7 vhcurveto
            hintmask 1010000010000100
            -50 -13 -58 -32 -53 vvcurveto
            -79 132 -50 145 134 143 44 87 45 -26 48 -49 24 vhcurveto
            hintmask 0100000000000000
            32 -67 -64 0 -107 hhcurveto
            hintmask 0011000000010000
            -25 -44 0 1 -5 hvcurveto
            -48 8 -11 39 19 vvcurveto
            20 10 16 3 vhcurveto
            0 4 -1 3 -1 vhcurveto
            -21 40 39 -6 35 hhcurveto
            118 82 70 77 hvcurveto
            hintmask 0001010001001010
            48 -33 35 -12 11 vhcurveto
            48 29 45 1 16 1 rrcurveto
            -3 -4 -5 -6 -14 vvcurveto
            -20 13 -17 24 24 13 17 20 vhcurveto
            -218 -101 rmoveto
            -55 -24 -59 -87 -88 -24 58 56 vhcurveto
            hintmask 1100100010100100
            55 24 59 87 88 24 -58 -56 vhcurveto
            131 -372 rmoveto
            -49 -89 -47 -119 -115 -93 44 53 31 35 43 75 vhcurveto
            65 hlineto
            100 141 0 -75 hvcurveto
            return
          </CharString>
          <CharString index="12">
            897 639 rmoveto
            44 vlineto
            -3 -45 -44 -1 -45 hhcurveto
            -28 -65 1 3 -41 hvcurveto
            -44 vlineto
            111 0 -41 -26 hvcurveto
            -415 vlineto
            -431 514 rlineto
            12 -10 -2 0 -20 hhcurveto
            -194 -44 39 hlineto
            12 46 -1 -3 10 hvcurveto
            3 -2 1 -1 -16 vvcurveto
            -505 vlineto
            -26 0 -41 -111 114 callgsubr
            45 44 1 45 hhcurveto
            28 65 -1 -3 41 hvcurveto
            44 vlineto
            -111 0 41 26 hvcurveto
            495 vlineto
            498 -594 rlineto
            -12 10 4 0 11 hhcurveto
            23 0 9 21 hvcurveto
            542 vlineto
            26 0 41 111 vhcurveto
            return
          </CharString>
          <CharString index="13">
            658 387 rmoveto
            44 vlineto
            -2 -21 -29 -2 -38 hhcurveto
            -32 -37 1 3 -32 hvcurveto
            -44 vlineto
            27 16 -15 -20 -8 -3 -7 -3 -7 hvcurveto
            -125 -238 -135 258 rlineto
            -6 11 0 3 3 vvcurveto
            18 27 2 150 callsubr
            -3 -42 -42 -1 -42 hhcurveto
            -42 -26 0 4 -44 hvcurveto
            -44 vlineto
            71 5 -4 -28 15 hvcurveto
            186 -355 rlineto
            -88 -42 -41 -84 -83 hhcurveto
            -26 -8 4 7 -11 hvcurveto
            7 3 21 12 30 vvcurveto
            31 -23 18 -26 -23 -26 -14 -36 -50 52 -38 63 59 66 37 87 46 vhcurveto
            213 406 12 23 20 38 75 1 rlinecurve
            return
          </CharString>
          <CharString index="14">
            vlineto
            31 0 10 81 vhcurveto
            30 44 hlineto
            -164 -4 -164 4 rlineto
            -44 30 vlineto
            81 0 -10 -31 hvcurveto
            return
          </CharString>
          <CharString index="15">
            -20 -94 callgsubr
            return
          </CharString>
          <CharString index="16">
            hstemhm
            97 117 599 117 hintmask 11001100
            -101 callgsubr
            return
          </CharString>
          <CharString index="17">
            rmoveto
            -151 117 -151 -117 10 -16 140 66 140 -66 rlineto
            return
          </CharString>
          <CharString index="18">
            -82 callgsubr
            43 42 1 43 hhcurveto
            42 43 -10 callsubr
            return
          </CharString>
          <CharString index="19">
            -17 42 22 -5 20 hhcurveto
            47 28 26 29 30 hvcurveto
            10 8 18 18 0 vvcurveto
            endchar
          </CharString>
          <CharString index="20">
            903 387 rmoveto
            44 vlineto
            -3 -28 -25 -1 -33 hhcurveto
            -33 -41 1 3 -33 hvcurveto
            -44 vlineto
            43 -1 14 -22 -18 vvcurveto
            -4 -2 -9 -2 -4 vhcurveto
            -110 -249 -118 270 rlineto
            -6 12 0 3 0 vvcurveto
            22 39 0 20 vhcurveto
            44 vlineto
            -3 -38 -42 -1 -38 hhcurveto
            -37 -29 1 3 -35 hvcurveto
            -44 vlineto
            20 27 0 -5 13 hvcurveto
            12 -5 14 -20 -10 vvcurveto
            0 -4 -10 -1 -2 vhcurveto
            -105 -240 -113 255 rlineto
            -2 4 -3 6 5 vvcurveto
            22 39 0 20 vhcurveto
            44 vlineto
            -3 -41 -42 -1 -41 hhcurveto
            -34 -40 1 3 -34 hvcurveto
            -44 vlineto
            51 18 0 -29 13 hvcurveto
            151 -345 rlineto
            -22 10 10 -2 14 hhcurveto
            17 8 4 18 8 hvcurveto
            124 283 125 -283 rlineto
            -18 8 8 -4 17 hhcurveto
            14 10 2 22 10 hvcurveto
            137 314 rlineto
            55 24 44 5 28 hhcurveto
            return
          </CharString>
          <CharString index="21">
            rmoveto
            21 -17 26 -29 -16 -7 -7 -9 -10 vhcurveto
            -155 -147 26 -33 182 110 rlineto
            12 8 14 10 21 vvcurveto
            endchar
          </CharString>
          <CharString index="22">
            897 hmoveto
            44 -30 vlineto
            -81 0 10 31 hvcurveto
            513 -93 callsubr
            -221 -380 221 -93 callsubr
            -513 vlineto
            -59 callsubr
            248 380 -248 -2 callsubr
            return
          </CharString>
          <CharString index="23">
            884 437 rmoveto
            -23 238 rlineto
            -765 hlineto
            -23 -238 rlineto
            42 hlineto
            182 17 38 12 162 hhcurveto
            21 36 0 -1 7 hvcurveto
            28 -2 2 -4 -31 vvcurveto
            -507 vlineto
            -32 0 -10 -107 vhcurveto
            -50 -44 hlineto
            4 50 105 0 55 hhcurveto
            55 105 0 -4 50 hvcurveto
            44 -50 vlineto
            -107 113 callsubr
            507 vlineto
            29 2 5 26 3 vhcurveto
            1 9 34 0 22 hhcurveto
            162 38 -11 -183 17 hvcurveto
            return
          </CharString>
          <CharString index="24">
            -31 0 -9 -65 vhcurveto
            -18 -44 hlineto
            return
          </CharString>
          <CharString index="25">
            vlineto
            -83 callsubr
            return
          </CharString>
          <CharString index="26">
            78 callsubr
            hintmask 0000010010011000
            732 476 rmoveto
            40 -24 37 -37 -41 -20 -31 -30 -31 20 -31 41 vhcurveto
            1 hlineto
            -17 -19 -27 -13 -30 -6 rrcurveto
            hintmask 0000001000010000
            50 vlineto
            hintmask 1000010000010000
            -172 -12 rlineto
            -44 vlineto
            24 31 0 -9 14 hvcurveto
            13 -9 1 -18 -16 vvcurveto
            -175 vlineto
            -76 -1 -65 -61 -80 hhcurveto
            hintmask 0100001000100000
            -44 -28 5 18 -21 hvcurveto
            -15 14 -2 21 41 vvcurveto
            321 vlineto
            hintmask 0000010000000000
            -172 -12 rlineto
            -44 vlineto
            24 31 0 -9 14 hvcurveto
            hintmask 0100100000100000
            14 -9 0 -20 -18 vvcurveto
            -209 vlineto
            -41 17 -39 32 -21 vhcurveto
            -26 40 44 -5 61 hhcurveto
            65 59 34 52 31 hvcurveto
            -86 vlineto
            hintmask 0010000000000000
            168 11 rlineto
            44 vlineto
            -24 -32 0 10 -14 hvcurveto
            hintmask 0001000000011000
            -13 9 0 20 17 vvcurveto
            249 vlineto
            73 13 61 45 69 vvcurveto
            return
          </CharString>
          <CharString index="27">
            -71 -69 -23 -46 -54 hvcurveto
            -49 -42 -31 -59 -65 vvcurveto
            -62 32 -56 48 -40 vhcurveto
            -44 55 69 -21 70 hhcurveto
            70 70 21 44 54 hvcurveto
            48 40 32 56 62 vvcurveto
            56 -23 52 -37 40 vhcurveto
            48 11 31 51 56 vvcurveto
            -119 -254 rmoveto
            -52 -5 -55 -34 -39 vhcurveto
            -38 -33 -51 -15 -51 hhcurveto
            -51 -50 15 38 -34 hvcurveto
            -34 39 -5 55 52 vvcurveto
            49 6 52 33 37 vhcurveto
            37 34 51 15 50 hhcurveto
            51 50 -15 -37 34 hvcurveto
            34 -37 5 -52 -49 vvcurveto
            return
          </CharString>
          <CharString index="28">
            -20 118 callsubr
            hintmask 11100110
            -77 callgsubr
            hintmask 11100101
            -81 callgsubr
            hintmask 00011000
            return
          </CharString>
          <CharString index="29">
            -84 callgsubr
            703 hlineto
            hintmask 0000000010000000
            return
          </CharString>
          <CharString index="30">
            113 104 38 62 74 17 -42 -64 -65 callgsubr
            return
          </CharString>
          <CharString index="31">
            860 234 rmoveto
            16 -4 5 -17 -11 -9 0 -17 -1 vhcurveto
            -152 -8 -145 -64 -117 hhcurveto
            -142 -192 78 242 238 188 104 callsubr
            -48 -186 -19 callgsubr
            52 -61 -77 37 -99 hhcurveto
            -242 -190 -167 -196 return
          </CharString>
          <CharString index="32">
            934 hmoveto
            44 vlineto
            -74 -16 7 41 -36 hvcurveto
            -280 322 226 172 rlineto
            23 31 55 30 77 hhcurveto
            44 vlineto
            -3 -39 -18 -1 -45 hhcurveto
            -146 4 rlineto
            -44 vlineto
            7 26 -2 -22 -11 -6 -10 -16 -12 hvcurveto
            -380 -288 rlineto
            304 -93 callsubr
            -513 vlineto
            -59 callsubr
            156 vlineto
            152 116 224 -258 rlineto
            6 -6 11 -14 -11 vvcurveto
            -24 -33 0 -18 vhcurveto
            -44 vlineto
            161 4 rlineto
            47 35 0 -4 49 hvcurveto
            return
          </CharString>
          <CharString index="33">
            27 30 30 16 34 hhcurveto
            28 32 -12 -9 23 hvcurveto
            return
          </CharString>
          <CharString index="34">
            rmoveto
            -49 -46 0 -29 -28 -47 0 49 49 46 0 29 28 47 0 -49 vhcurveto
            50 -1 rmoveto
            49 -54 40 -71 -74 -51 -43 -44 -49 54 -40 71 74 51 43 44 vhcurveto
            return
          </CharString>
          <CharString index="35">
            rmoveto
            24 -25 22 -23 -25 -10 -19 -11 -6 vhcurveto
            -72 -140 34 -25 109 113 rlineto
            9 9 9 13 14 vvcurveto
            208 hmoveto
            24 -25 22 -23 -25 -10 -19 -11 -6 vhcurveto
            -72 -140 34 -25 109 113 rlineto
            9 9 9 13 14 vvcurveto
            endchar
          </CharString>
          <CharString index="36">
            -170 4 rlineto
            -44 33 vlineto
            84 0 -10 -31 hvcurveto
            -513 151 callgsubr
            -84 vhcurveto
            -33 -44 hlineto
            return
          </CharString>
          <CharString index="37">
            171 rmoveto
            109 -104 51 -67 30 vhcurveto
            103 43 33 53 57 vvcurveto
            104 -115 48 -109 -124 -102 -70 -100 vhcurveto
            hintmask 11101010
            -92 79 -41 52 -27 vhcurveto
            -106 -41 -60 -59 -82 vvcurveto
            -120 133 -56 126 140 121 75 118 vhcurveto
            -97 342 rmoveto
            -88 -115 -41 0 vhcurveto
            0 -2 0 -9 5 vhcurveto
            -144 74 rlineto
            -43 22 -13 26 24 vvcurveto
            64 82 29 80 vhcurveto
            hintmask 10100100
            80 84 -39 -76 hvcurveto
            28 -378 rmoveto
            -81 -101 -35 -89 -91 -101 45 91 99 108 46 32 14 vhcurveto
            155 -79 rlineto
            hintmask 00000010
            36 -19 51 -27 -54 vvcurveto
            endchar
          </CharString>
          <CharString index="38">
            -74 callsubr
            hintmask 00100000
            -88 callsubr
          </CharString>
          <CharString index="39">
            106 hintmask 11001000
            -90 callgsubr
            return
          </CharString>
          <CharString index="40">
            727 280 rmoveto
            -42 hlineto
            -156 -12 -40 -77 -190 hhcurveto
            -211 hlineto
            479 588 rlineto
            10 12 0 3 10 vvcurveto
            23 -10 0 -20 vhcurveto
            -563 hlineto
            -13 -238 rlineto
            42 hlineto
            161 12 92 33 125 hhcurveto
            201 hlineto
            -480 -589 rlineto
            -10 -12 0 -3 -11 vvcurveto
            -24 9 0 21 vhcurveto
            580 hlineto
            return
          </CharString>
          <CharString index="41">
            rmoveto
            -178 117 rlineto
            7 -10 -7 4 -12 hhcurveto
            -29 -21 -27 -28 7 hvcurveto
            4 -20 15 -8 13 -6 199 -76 rcurveline
            endchar
          </CharString>
          <CharString index="42">
            -44 30 hlineto
            81 0 -10 -31 hvcurveto
            -509 -70 callgsubr
            return
          </CharString>
          <CharString index="43">
            85 hintmask 10100100
            -28 callsubr
            hintmask 11000100
            -79 callgsubr
            return
          </CharString>
          <CharString index="44">
            -7 -49 hvcurveto
            -247 -82 callgsubr
            return
          </CharString>
          <CharString index="45">
            547 120 rmoveto
            14 -15 0 -6 -16 -1 -3 -12 -5 vhcurveto
            -83 -34 -73 -11 -44 hhcurveto
            -86 -95 58 134 44 9 55 37 42 hvcurveto
            54 48 59 0 31 hhcurveto
            30 28 0 -9 35 114 callsubr
            85 -111 3 -70 -196 -84 -132 -100 -124 117 -103 151 173 34 122 9 vhcurveto
            return
          </CharString>
          <CharString index="46">
            -26 callsubr
            243 hmoveto
            -39 callgsubr
          </CharString>
          <CharString index="47">
            -90 callsubr
            -13 190 rmoveto
            -19 -37 -199 76 -13 6 -15 8 -4 20 rlinecurve
            28 -7 21 27 29 hhcurveto
            12 7 -4 -7 10 hvcurveto
            endchar
          </CharString>
          <CharString index="48">
            -73 callgsubr
            hlineto
            164 4 164 -15 callgsubr
            return
          </CharString>
          <CharString index="49">
            rmoveto
            -152 162 -152 -162 13 -14 139 108 139 -108 rlineto
            return
          </CharString>
          <CharString index="50">
            -43 rmoveto
            485 vlineto
            -177 -11 rlineto
            -44 vlineto
            82 10 -7 -50 hvcurveto
            -374 vlineto
            -61 -23 -67 -60 -13 -23 3 6 -18 vhcurveto
            5 3 19 14 28 vvcurveto
            32 -23 21 -30 -29 -24 -21 -32 -61 67 -26 70 84 83 59 103 vhcurveto
            return
          </CharString>
          <CharString index="51">
            rmoveto
            -155 147 rlineto
            9 -10 -7 7 -16 hhcurveto
            -29 -17 -26 -21 -21 14 -10 12 -8 hvcurveto
            182 -110 rlineto
            endchar
          </CharString>
          <CharString index="52">
            683 342 rmoveto
            188 -153 153 -188 -189 -153 -153 -188 -189 153 -153 189 188 153 153 189 vhcurveto
            -56 hmoveto
            -158 -128 -128 -157 -158 -128 128 158 157 128 128 158 157 128 -128 -157 vhcurveto
            return
          </CharString>
          <CharString index="53">
            -20 -61 callgsubr
            hintmask 00011000
            return
          </CharString>
          <CharString index="54">
            22 0 7 21 hvcurveto
            234 vlineto
            17 0 11 -16 -10 -3 -4 -8 -6 vhcurveto
            -59 -77 return
          </CharString>
          <CharString index="55">
            -160 -27 callgsubr
            42 45 1 42 hhcurveto
            143 -4 rlineto
            44 vlineto
            return
          </CharString>
          <CharString index="56">
            rmoveto
            -10 16 -140 -66 -140 66 -12 -16 151 -117 rlineto
            endchar
          </CharString>
          <CharString index="57">
            1099 51 callgsubr
            -193 hlineto
            -22 -9 0 -23 -11 hvcurveto
            -270 -566 -269 565 rlineto
            24 -11 -11 0 -21 hhcurveto
            -193 -44 30 hlineto
            81 0 -10 -31 hvcurveto
            -487 vlineto
            -26 0 -41 -111 114 callgsubr
            45 44 1 45 hhcurveto
            28 65 -1 -3 41 hvcurveto
            44 vlineto
            -111 0 41 26 hvcurveto
            522 1 vlineto
            290 -609 rlineto
            -17 8 9 -7 14 hhcurveto
            19 7 14 9 4 hvcurveto
            295 618 rlineto
            1 -556 116 callsubr
            158 4 rlineto
            return
          </CharString>
          <CharString index="58">
            610 213 rmoveto
            61 -30 78 -83 52 vhcurveto
            82 114 -27 20 -84 -118 rlineto
            23 -49 -45 5 -34 hhcurveto
            -154 -116 -110 -125 -52 21 -73 94 -59 hvcurveto
            -84 -116 27 -20 87 121 rlineto
            -22 53 45 -3 27 hhcurveto
            154 116 104 120 hvcurveto
            -166 175 rmoveto
            -234 -323 rlineto
            -48 44 -3 68 37 vvcurveto
            33 2 62 36 45 vhcurveto
            44 35 57 17 51 hhcurveto
            36 36 -8 -19 32 hvcurveto
            77 -174 rmoveto
            -40 0 -152 -181 -28 -39 4 20 -35 vhcurveto
            232 322 rlineto
            24 -23 27 -37 -94 vvcurveto
            return
          </CharString>
          <CharString index="59">
            21 callsubr
            94 -43 110 -111 80 vhcurveto
            82 97 -28 24 -84 -101 rlineto
            46 -78 -85 16 -69 hhcurveto
            -238 -179 -171 -195 -78 29 -111 124 -91 hvcurveto
            -81 -96 28 -24 84 100 rlineto
            -22 40 77 -39 115 hhcurveto
            237 180 167 194 hvcurveto
            -216 268 rmoveto
            -429 -507 rlineto
            -73 72 -9 107 60 vvcurveto
            285 206 48 104 52 78 -10 -55 71 vhcurveto
            110 -268 rmoveto
            -282 -207 -46 -103 -59 -74 13 51 -69 vhcurveto
            429 508 rlineto
            58 -58 25 -88 -98 vvcurveto
            return
          </CharString>
          <CharString index="60">
            -44 vlineto
            74 9 -7 -49 hvcurveto
            return
          </CharString>
          <CharString index="61">
            -73 callsubr
            endchar
          </CharString>
          <CharString index="62">
            1317 -22 33 -11 44 -33 33 289 44 262 44 -11 33 hstemhm
            108 113 301 93 49 93 274 42 0 113 -9 42 -8 42 hintmask 0101100011001000
            1253 271 rmoveto
            -42 hlineto
            -158 -28 -31 -69 -182 hhcurveto
            -164 hlineto
            -49 0 7 31 hvcurveto
            251 138 vlineto
            98 38 -16 -101 hvcurveto
            42 278 -42 hlineto
            -101 -38 -16 -98 vhcurveto
            -138 224 hlineto
            31 0 7 49 vhcurveto
            155 hlineto
            hintmask 0000000000010000
            169 28 -55 -139 19 hvcurveto
            42 hlineto
            hintmask 0000100000100000
            -33 238 rlineto
            -474 hlineto
            -16 -24 1 9 -52 hvcurveto
            hintmask 1000011100000000
            11 -54 -21 1 -23 hhcurveto
            -228 -186 -166 -200 -201 190 -160 223 14 23 0 10 57 hvcurveto
            hintmask 0100000000001000
            10 50 23 2 24 hhcurveto
            491 hlineto
            -539 342 rmoveto
            -129 0 -58 -5 -34 vhcurveto
            hintmask 0010011010000000
            -75 -10 -18 -35 -102 hhcurveto
            -181 -127 163 180 171 129 147 179 118 14 -45 -146 2 hvcurveto
            endchar
          </CharString>
          <CharString index="63">
            -53 callsubr
            rlineto
            39 -47 -73 50 -117 hhcurveto
            return
          </CharString>
          <CharString index="64">
            -57 callgsubr
            hintmask 0010000000000000
            -164 -4 rlineto
            return
          </CharString>
          <CharString index="65">
            rmoveto
            114 -3 -96 65 -91 hhcurveto
            -91 -96 -65 -114 -3 hvcurveto
            33 hlineto
            89 3 87 38 67 hhcurveto
            68 86 -39 -88 3 hvcurveto
            endchar
          </CharString>
          <CharString index="66">
            -20 hstemhm
            429 122 hintmask 01001000
            909 hmoveto
            44 -26 vlineto
            -62 -15 6 27 -12 hvcurveto
            -269 613 rlineto
            18 -8 -3 8 -24 hhcurveto
            -18 -8 -4 -20 -9 hvcurveto
            -258 -589 rlineto
            -50 -22 -54 -9 -50 hhcurveto
            -44 vlineto
            3 37 42 1 37 hhcurveto
            13 71 -1 -3 46 hvcurveto
            44 vlineto
            hintmask 00110000
            -56 -20 25 19 6 2 3 3 8 hvcurveto
            52 118 rlineto
            321 hlineto
            61 -140 rlineto
            6 -12 0 -3 0 vvcurveto
            -24 -57 0 -29 vhcurveto
            return
          </CharString>
          <CharString index="67">
            rmoveto
            15 -12 13 -16 -12 -4 -5 -14 -13 vhcurveto
            -70 -66 -80 -24 -80 hhcurveto
            -59 -86 14 66 -96 hvcurveto
            15 -21 -26 18 -44 hhcurveto
            -15 callsubr
            55 -19 41 -1 3 hvcurveto
            -17 38 71 -26 78 hhcurveto
            48 48 8 18 43 hvcurveto
            1 -1 -537 -633 rlineto
            -8 -9 -4 -5 -10 125 callsubr
            12 4 5 10 9 vhcurveto
            628 739 rlineto
            8 9 3 7 8 vvcurveto
            return
          </CharString>
          <CharString index="68">
            715 25 callsubr
            -40 55 0 119 callgsubr
            208 96 callgsubr
            78 85 145 85 hintmask 0010011011110000
            665 hmoveto
            44 vlineto
            -45 -25 0 47 -43 hvcurveto
            -164 179 16 11 91 62 5 2 rlinecurve
            40 66 52 2 19 hhcurveto
            44 vlineto
            -4 -36 -37 0 -12 hhcurveto
            -38 -60 141 callgsubr
            14 -2 1 -12 0 vvcurveto
            -3 0 -15 -29 -20 vhcurveto
            -163 -112 rlineto
            471 vlineto
            hintmask 0010000101000000
            -168 -58 callgsubr
            -499 -82 callsubr
            hintmask 0001000000000000
            3 39 45 1 39 hhcurveto
            hintmask 0010110000100000
            40 45 -1 -3 39 hvcurveto
            -62 callgsubr
            86 vlineto
            82 56 114 -123 rlineto
            17 -19 12 -12 -13 vvcurveto
            -14 -20 -1 -6 vhcurveto
            -44 vlineto
            hintmask 0001000000000000
            3 41 68 1 15 hhcurveto
            return
          </CharString>
          <CharString index="69">
            -47 -1 52 -62 76 hhcurveto
            60 65 43 67 15 hvcurveto
            return
          </CharString>
          <CharString index="70">
            681 -11 33 -22 44 27 44 272 44 -33 33 241 33 hstemhm
            159 85 0 93 -57 85 -52 85 92 93 -59 93 hintmask 0101011000100000
            617 174 rmoveto
            112 -85 95 -97 31 vhcurveto
            69 21 79 50 77 vvcurveto
            77 -91 68 -122 -102 -109 -51 -101 vhcurveto
            -122 -83 -44 83 44 callgsubr
            32 73 1 7 hhcurveto
            18 16 0 -4 22 hvcurveto
            552 vlineto
            113 101 7 24 56 65 -32 -80 vhcurveto
            hintmask 0001000100000000
            -76 -66 -49 -87 -4 vhcurveto
            hintmask 1000100001010000
            -15 -1 -9 0 -16 vvcurveto
            -3 0 -12 15 -1 vhcurveto
            142 -8 54 -116 -100 vvcurveto
            -117 -77 -35 -51 -6 -23 0 14 -22 vhcurveto
            hintmask 0010000010000000
            8 5 12 11 21 vvcurveto
            26 -20 16 -22 -23 -20 -15 -29 vhcurveto
            hintmask 1000000001010000
            -43 44 -39 74 116 103 79 106 vhcurveto
            endchar
          </CharString>
          <CharString index="71">
            34 -27 27 -34 return
          </CharString>
          <CharString index="72">
            981 0 -17 callgsubr
            return
          </CharString>
          <CharString index="73">
            -168 -58 callgsubr
            -499 -82 callgsubr
            return
          </CharString>
          <CharString index="74">
            958 0 79 593 33 hstemhm
            97 117 0 117 30 117 1 117 147 117 hintmask 11100110
            873 176 rmoveto
            -42 hlineto
            -2 -8 -10 -49 -9 -20 rrcurveto
            -12 -6 -4 -8 -64 hhcurveto
            -96 hlineto
            16 41 19 31 62 70 rrcurveto
            60 68 63 72 93 vvcurveto
            138 -166 113 -215 -218 -164 -114 -137 -92 61 -71 62 -70 vhcurveto
            57 -65 23 -33 17 -44 rrcurveto
            -96 hlineto
            -64 -4 8 12 -6 hvcurveto
            -9 20 -10 49 -2 8 rrcurveto
            -42 hlineto
            40 -176 rlineto
            hintmask 11011110
            207 126 callsubr
            74 -39 75 -40 77 hvcurveto
            -35 69 -33 63 72 vvcurveto
            136 125 82 139 143 122 -83 -135 -72 -33 -64 -38 -73 vhcurveto
            -35 -67 -41 -79 -75 vvcurveto
            -24 9 0 22 vhcurveto
            206 hlineto
            endchar
          </CharString>
          <CharString index="75">
            1028 -11 33 201 33 -31 31 159 33 hstemhm
            65 92 347 89 294 77 hintmask 10111110
            964 119 rmoveto
            17 -16 0 -5 -16 -1 -5 -13 -6 vhcurveto
            -66 -25 -62 -27 -56 hhcurveto
            -56 -128 31 169 hvcurveto
            341 126 callsubr
            87 -49 112 -158 -118 -69 -69 -31 -22 hvcurveto
            29 -22 -72 71 -124 hhcurveto
            -151 -114 -106 -123 -123 114 -107 151 85 82 36 66 53 hvcurveto
            -55 42 81 -47 99 hhcurveto
            143 49 109 21 150 callgsubr
            -292 hlineto
            129 14 97 30 49 hhcurveto
            125 6 -131 -28 1 hvcurveto
            -383 -33 rmoveto
            -172 -122 -29 -52 vhcurveto
            hintmask 01011100
            -52 -121 28 173 172 129 20 44 46 128 -22 -170 hvcurveto
            endchar
          </CharString>
          <CharString index="76">
            2 callsubr
            243 hmoveto
            -49 callgsubr
            endchar
          </CharString>
          <CharString index="77">
            202 rmoveto
            113 -97 105 -139 vhcurveto
            hintmask 0000101111000000
            -63 -51 -16 -33 -43 hvcurveto
            180 vlineto
            -13 53 45 0 11 hhcurveto
            68 50 20 14 26 hvcurveto
            24 12 68 43 22 vvcurveto
            15 -11 2 -3 vhcurveto
            0 -4 0 -11 -5 vhcurveto
            -13 -38 -62 -14 -66 hhcurveto
            -57 -55 10 18 -53 hvcurveto
            -11 4 -4 0 0 vvcurveto
            -14 0 -12 -16 hvcurveto
            -300 vlineto
            hintmask 0001000000000000
            -17 0 -13 19 11 1 2 11 9 vhcurveto
            hintmask 1010010001000000
            -30 callgsubr
            hintmask 0100000000100000
            149 122 100 124 hvcurveto
            endchar
          </CharString>
          <CharString index="78">
            hmoveto
            -62 callgsubr
            218 vlineto
            return
          </CharString>
          <CharString index="79">
            326 hmoveto
            44 vlineto
            -67 -8 0 40 hvcurveto
            358 vlineto
            return
          </CharString>
          <CharString index="80">
            1 0 2 -1 1 vhcurveto
            -24 81 -39 76 -53 67 53 66 39 76 24 81 rrcurveto
            1 2 0 1 1 vvcurveto
            8 -6 6 -8 vhcurveto
            -5 hlineto
            -6 -5 -3 -5 -2 hvcurveto
            -37 -88 -59 -76 -76 -58 rrcurveto
            -3 -3 -2 -4 -4 vvcurveto
            -5 2 -4 3 -2 vhcurveto
            76 -59 59 -76 37 -88 rrcurveto
            -5 2 5 -3 6 hhcurveto
            5 hlineto
            8 6 6 8 hvcurveto
            return
          </CharString>
          <CharString index="81">
            rmoveto
            -76 callgsubr
            return
          </CharString>
          <CharString index="82">
            33 -28 44 202 32 143 33 return
          </CharString>
          <CharString index="83">
            205 rmoveto
            61 -20 49 -52 46 vhcurveto
            40 -44 -46 27 -87 hhcurveto
            -58 -65 -28 -72 -42 hvcurveto
            1 46 1 79 36 65 rrcurveto
            54 29 65 56 93 hhcurveto
            19 45 -2 -24 30 hvcurveto
            -16 -4 -26 -15 -34 vvcurveto
            hintmask 0010000100000000
            -32 24 -21 29 vhcurveto
            hintmask 0001000010000000
            17 36 9 47 hvcurveto
            hintmask 1000110100000000
            54 -38 60 -121 -172 -158 -141 -207 -239 117 -101 146 99 47 37 28 34 vhcurveto
            hintmask 1100001001000000
            64 53 13 59 50 vvcurveto
            -106 1 rmoveto
            -58 0 -38 -32 -40 vhcurveto
            -33 -28 -35 -18 -56 hhcurveto
            -154 0 166 42 77 55 90 105 hvcurveto
            hintmask 0000000010000000
            51 32 -13 -40 31 hvcurveto
            hintmask 0000000001000000
            30 -37 1 -42 -56 vvcurveto
            endchar
          </CharString>
          <CharString index="84">
            62 -22 62 -19 62 15 callgsubr
            hintmask 0101000011100000
            -104 callgsubr
            hintmask 0100000000100000
            -35 4 23 -42 51 hhcurveto
            7 114 0 96 hvcurveto
            -211 52 rmoveto
            hintmask 1010000011000000
            89 callsubr
            return
          </CharString>
          <CharString index="85">
            205 rmoveto
            61 -20 49 -52 46 vhcurveto
            40 -44 -46 27 -87 hhcurveto
            -58 -65 -28 -72 -42 hvcurveto
            1 46 1 79 36 65 rrcurveto
            54 29 65 56 93 hhcurveto
            19 45 -2 -24 30 hvcurveto
            -16 -4 -26 -15 -34 vvcurveto
            hintmask 00000100
            -32 24 -21 29 vhcurveto
            hintmask 00100010
            17 36 9 47 hvcurveto
            hintmask 10011100
            54 -38 60 -121 -172 -158 -141 -207 -239 117 -101 146 99 47 37 28 34 vhcurveto
            hintmask 11000001
            64 53 13 59 50 vvcurveto
            -106 1 rmoveto
            -58 0 -38 -32 -40 vhcurveto
            -33 -28 -35 -18 -56 hhcurveto
            -154 0 166 42 77 55 90 105 hvcurveto
            hintmask 00000010
            51 32 -13 -40 31 hvcurveto
            hintmask 00000001
            30 -37 1 -42 -56 vvcurveto
            endchar
          </CharString>
          <CharString index="86">
            134 rmoveto
            242 -118 96 -138 -100 -49 -35 -34 -40 vhcurveto
            -62 -51 -13 -55 -51 vvcurveto
            -57 17 -51 54 -47 vhcurveto
            hintmask 1100001010000000
            -42 47 46 -26 85 hhcurveto
            41 72 14 87 52 hvcurveto
            -63 -4 -76 -34 -59 vhcurveto
            -58 -33 -59 -43 -81 hhcurveto
            -11 -61 0 24 -34 hvcurveto
            hintmask 1010010010000000
            25 7 15 19 26 vvcurveto
            32 -24 21 -29 -17 -36 -9 -47 -114 147 0 27 168 147 143 207 vhcurveto
            -109 92 rmoveto
            -83 -59 -86 -101 -40 -38 7 45 -36 vhcurveto
            hintmask 0001100100000000
            -30 37 -1 41 59 vvcurveto
            72 3 30 38 40 vhcurveto
            17 15 30 29 72 hhcurveto
            147 0 -165 -43 hvcurveto
            endchar
          </CharString>
          <CharString index="87">
            914 729 rmoveto
            40 -24 36 -37 -40 -21 -30 -31 -30 21 -31 40 vhcurveto
            5 hlineto
            -16 -22 -28 -15 -31 -5 rrcurveto
            42 vlineto
            return
          </CharString>
          <CharString index="88">
            750 271 rmoveto
            -42 hlineto
            -116 -15 -26 -111 -195 hhcurveto
            -123 hlineto
            -49 0 7 31 hvcurveto
            return
          </CharString>
          <CharString index="89">
            rmoveto
            44 -450 -44 vlineto
            endchar
          </CharString>
          <CharString index="90">
            rmoveto
            28 -242 vlineto
            -26 -146 4 3 -18 hvcurveto
            -23 5 -1 10 -2 10 rrcurveto
            -42 hlineto
            -38 -225 rlineto
            42 hlineto
            2 15 11 65 17 11 rrcurveto
            5 6 94 1 15 hhcurveto
            238 hlineto
            return
          </CharString>
          <CharString index="91">
            -168 -58 callgsubr
            -195 vlineto
            19 -22 -54 35 -83 hhcurveto
            -150 -124 -101 -126 -121 113 -105 149 82 57 36 24 28 hvcurveto
            -60 vlineto
            return
          </CharString>
          <CharString index="92">
            -96 -86 -86 -115 -119 88 -83 94 92 73 89 112 return
          </CharString>
          <CharString index="93">
            -119 -152 -15 -144 -61 vvcurveto
            -55 35 -6 18 53 0 51 12 vhcurveto
            20 vlineto
            178 38 110 60 66 vhcurveto
            168 185 9 9 0 2 1 5 rlinecurve
            endchar
          </CharString>
          <CharString index="94">
            900 0 44 260 38 259 38 0 44 158 callsubr
            387 117 hintmask 11011100
            802 491 rmoveto
            105 -132 87 -159 vhcurveto
            -426 -44 30 hlineto
            81 0 -10 -31 hvcurveto
            -513 vlineto
            -59 callsubr
            219 219 vlineto
            134 147 76 111 hvcurveto
            -117 hmoveto
            -82 -39 -67 -160 vhcurveto
            -188 hlineto
            hintmask 00101100
            259 vlineto
            31 0 7 49 vhcurveto
            140 hlineto
            163 35 -70 -78 hvcurveto
            endchar
          </CharString>
          <CharString index="95">
            hstemhm
            194 106 244 42 174 42 -8 42 return
          </CharString>
          <CharString index="96">
            438 25 callgsubr
            113 103 -85 85 hintmask 11110100
            468 121 callgsubr
            -88 -103 -56 -109 vhcurveto
            -109 -97 -44 97 -53 callgsubr
            302 142 44 -146 108 vlineto
            94 62 39 46 7 20 -2 -3 vhcurveto
            -2 -2 rlineto
            hintmask 00001000
            -6 -6 -10 62 callgsubr
            endchar
          </CharString>
          <CharString index="97">
            -1 -3 42 hvcurveto
            return
          </CharString>
          <CharString index="98">
            -20 hstemhm
            166 40 callgsubr
            hintmask 10011000
            0 callgsubr
            return
          </CharString>
          <CharString index="99">
            417 -135 rmoveto
            9 callsubr
            -27 54 27 54 16 31 24 26 30 17 125 -4 rcurveline
            44 -33 vlineto
            -84 1 callsubr
            84 vhcurveto
            33 44 hlineto
            -170 -4 -71 callsubr
            158 4 rlineto
            -41 -34 -44 -57 -49 vvcurveto
            hintmask 10000000
            -38 callsubr
            return
          </CharString>
          <CharString index="100">
            193 rmoveto
            -42 hlineto
            -3 -19 -10 -62 -16 -10 rrcurveto
            -6 -8 -84 0 -15 hhcurveto
            -196 hlineto
            66 49 74 56 60 40 rrcurveto
            hintmask 00101001
            90 62 84 58 106 vvcurveto
            128 -121 71 -143 vhcurveto
            hintmask 11110101
            -135 -99 -78 -98 -52 44 -9 14 27 32 18 41 36 -26 20 -31 3 hvcurveto
            45 28 58 30 67 hhcurveto
            97 81 -58 -98 -84 -58 -64 -77 -65 hvcurveto
            -244 -207 -10 -9 -1 0 -1 -7 rlinecurve
            -30 465 vlineto
            endchar
          </CharString>
          <CharString index="101">
            809 -45 rmoveto
            20 20 -20 19 -9 10 -247 246 rcurveline
            247 246 9 10 19 19 -20 20 rlinecurve
            -20 19 -19 -19 -9 -9 -246 -246 rcurveline
            -246 246 -10 10 -19 19 -20 -20 rlinecurve
            -20 -20 19 -19 10 -10 246 -246 rcurveline
            -247 -246 -9 -10 -19 -19 20 -20 rlinecurve
            20 -19 19 19 9 9 247 247 rcurveline
            246 -246 10 -10 19 -19 20 19 rlinecurve
            return
          </CharString>
          <CharString index="102">
            -93 -64 -46 -59 -19 -64 4 38 -37 vhcurveto
            33 6 18 24 31 vvcurveto
            33 -24 28 -37 -36 -26 -24 -39 return
          </CharString>
          <CharString index="103">
            29 callsubr
            hintmask 0000001000000000
            -74 callsubr
            hintmask 0000010000000000
            -88 callsubr
          </CharString>
          <CharString index="104">
            -643 rlineto
            -4 -5 -3 -6 -7 125 callsubr
            9 8 4 6 5 vhcurveto
            544 643 rlineto
            4 5 3 6 7 vvcurveto
            return
          </CharString>
          <CharString index="105">
            6 callgsubr
            rlineto
            return
          </CharString>
          <CharString index="106">
            -186 611 rmoveto
            -99 callsubr
            202 hmoveto
            -99 callsubr
            return
          </CharString>
          <CharString index="107">
            403 0 71 callsubr
            -44 55 return
          </CharString>
          <CharString index="108">
            29 callgsubr
            513 vlineto
            31 0 10 return
          </CharString>
          <CharString index="109">
            439 rmoveto
            -49 callgsubr
            return
          </CharString>
          <CharString index="110">
            54 callsubr
            -62 callgsubr
            174 vlineto
            54 callsubr
            return
          </CharString>
          <CharString index="111">
            152 rmoveto
            -99 callsubr
            238 hmoveto
            -99 callsubr
            return
          </CharString>
          <CharString index="112">
            hmoveto
            45 vlineto
            hintmask 01011000
            0 -81 0 -20 2 vhcurveto
            -24 2 -31 0 33 vvcurveto
            368 vlineto
            16 -9 6 -15 -18 -15 -12 -6 -17 vhcurveto
            -22 -58 -62 -3 -61 hhcurveto
            hintmask 01101000
            -45 vlineto
            57 51 4 14 55 hvcurveto
            -321 vlineto
            -33 -34 0 -20 -1 vhcurveto
            hintmask 10000000
            -2 -34 -34 0 -34 hhcurveto
            -45 vlineto
            hintmask 01000000
            204 4 rlineto
            hintmask 10000000
            endchar
          </CharString>
          <CharString index="113">
            -70 callgsubr
            634 hlineto
            return
          </CharString>
          <CharString index="114">
            42 hlineto
            -33 238 rlineto
            return
          </CharString>
          <CharString index="115">
            900 0 24 callgsubr
            return
          </CharString>
          <CharString index="116">
            -37 callgsubr
            -80 5 return
          </CharString>
          <CharString index="117">
            163 rmoveto
            44 -125 440 vlineto
            24 -1 6 -26 -20 -1 -1 -14 -11 vhcurveto
            -370 -455 rlineto
            -44 333 -78 12 callgsubr
            78 vlineto
            -88 44 rmoveto
            -294 hlineto
            294 362 rlineto
            endchar
          </CharString>
          <CharString index="118">
            42 vlineto
            8 13 8 14 7 13 3 6 4 7 4 6 rrcurveto
            -46 43 61 -24 63 hhcurveto
            152 123 102 125 hvcurveto
            -100 hmoveto
            -58 -13 -51 -39 -37 vhcurveto
            -30 -32 -49 -18 -48 hhcurveto
            -68 -52 38 46 -28 hvcurveto
            228 vlineto
            49 34 66 26 60 hhcurveto
            118 51 -87 -106 hvcurveto
            endchar
          </CharString>
          <CharString index="119">
            969 0 44 281 33 281 44 return
          </CharString>
          <CharString index="120">
            106 450 -97 callgsubr
            return
          </CharString>
          <CharString index="121">
            -37 callgsubr
            -114 7 return
          </CharString>
          <CharString index="122">
            750 -11 55 343 55 return
          </CharString>
          <CharString index="123">
            681 -11 36 390 33 return
          </CharString>
          <CharString index="124">
            -17 10 0 18 vhcurveto
            66 hlineto
            92 61 -57 -99 -102 -63 -54 -89 -11 -119 0 52 -51 hvcurveto
            return
          </CharString>
          <CharString index="125">
            hmoveto
            44 -50 vlineto
            -106 0 11 31 hvcurveto
            550 vlineto
            30 -3 0 -33 vhcurveto
            -64 -71 -111 0 -20 hhcurveto
            -17 -44 17 hlineto
            23 65 3 25 58 hvcurveto
            -500 vlineto
            -31 0 -11 -106 vhcurveto
            -50 -44 hlineto
            4 55 89 0 58 hhcurveto
            58 89 0 -4 55 hvcurveto
            endchar
          </CharString>
          <CharString index="126">
            -42 hlineto
            -1 -94 -50 -98 -102 -3 rrcurveto
            -33 vlineto
            return
          </CharString>
          <CharString index="127">
            611 -200 42 50 42 hstemhm
            164 100 0 84 41 100 hintmask 11011000
            489 -133 rmoveto
            58 -74 9 -67 vhcurveto
            72 -84 -114 56 callsubr
            hlineto
            hintmask 10101000
            57 callsubr
            hvcurveto
            endchar
          </CharString>
          <CharString index="128">
            930 339 rmoveto
            return
          </CharString>
          <CharString index="129">
            122 hstem
            140 122 vstem
            262 return
          </CharString>
          <CharString index="130">
            27 13 29 30 41 hhcurveto
            60 61 -68 -101 hvcurveto
            return
          </CharString>
          <CharString index="131">
            rmoveto
            28 -29 0 -15 vhcurveto
            -745 hlineto
            -15 -29 0 -28 -28 26 0 13 hvcurveto
            755 hlineto
            14 25 0 28 hvcurveto
            return
          </CharString>
          <CharString index="132">
            18 callgsubr
            66 44 return
          </CharString>
          <CharString index="133">
            hstemhm
            65 100 350 100 return
          </CharString>
          <CharString index="134">
            -26 callgsubr
            61 -21 return
          </CharString>
          <CharString index="135">
            494 33 callsubr
            return
          </CharString>
          <CharString index="136">
            rmoveto
            -22 24 rlineto
            hintmask 0000010000000000
            -74 callgsubr
            hintmask 0000001000000000
            -85 callgsubr
            hintmask 0000010000000000
            22 -24 rlineto
            return
          </CharString>
          <CharString index="137">
            918 vlineto
            14 0 27 -28 -28 0 -27 -14 vhcurveto
            -918 vlineto
            44 callsubr
            return
          </CharString>
          <CharString index="138">
            106 -261 hlineto
            -114 94 -23 62 vhcurveto
            return
          </CharString>
          <CharString index="139">
            88 -69 69 -45 88 0 69 -51 69 return
          </CharString>
          <CharString index="140">
            0 44 595 44 return
          </CharString>
          <CharString index="141">
            rmoveto
            -22 24 rlineto
            hintmask 00001000
            -74 callgsubr
            hintmask 00000100
            -85 callgsubr
            hintmask 00001000
            22 -24 rlineto
            return
          </CharString>
          <CharString index="142">
            11 23 17 20 20 16 rrcurveto
            156 118 104 120 hvcurveto
            -100 10 rmoveto
            -49 0 -149 -175 -175 0 149 49 45 0 147 175 175 0 -147 -45 vhcurveto
            return
          </CharString>
          <CharString index="143">
            80 callsubr
            41 1 42 hhcurveto
            42 42 -10 callsubr
            return
          </CharString>
          <CharString index="144">
            -77 29 callgsubr
            return
          </CharString>
          <CharString index="145">
            rmoveto
            113 callgsubr
            26 54 16 31 24 26 31 17 rrcurveto
            37 42 -1 -3 36 hvcurveto
            44 vlineto
            -67 -8 0 40 hvcurveto
            358 vlineto
            return
          </CharString>
          <CharString index="146">
            120 callsubr
            hvcurveto
            449 vlineto
            31 0 9 65 vhcurveto
            return
          </CharString>
          <CharString index="147">
            rmoveto
            27 -18 vlineto
            -49 0 6 18 hvcurveto
            308 vlineto
            19 0 6 49 vhcurveto
            18 26 -116 hlineto
            -13 -6 0 -14 -6 hvcurveto
            -162 -339 -162 339 rlineto
            14 -6 -7 0 return
          </CharString>
          <CharString index="148">
            -20 -10 -20 -11 -17 -14 -54 -44 rcurveline
            hintmask 10010000
            14 -17 rlineto
            41 49 53 30 51 hhcurveto
            40 29 -17 -20 35 hvcurveto
            -17 29 31 -17 40 hhcurveto
            hintmask 01000000
            25 26 8 10 22 hvcurveto
            return
          </CharString>
          <CharString index="149">
            472 177 77 hstem
            42 332 vstem
            374 177 66 callsubr
          </CharString>
          <CharString index="150">
            1031 -29 callsubr
            123 -94 17 -75 -98 -57 -49 -44 -28 vhcurveto
            92 -25 -102 1 -37 hhcurveto
            -103 -58 -55 -43 -25 hvcurveto
            98 vlineto
            return
          </CharString>
          <CharString index="151">
            -14 0 -27 28 28 0 27 14 vhcurveto
            return
          </CharString>
          <CharString index="152">
            hstemhm
            13 callgsubr
            return
          </CharString>
          <CharString index="153">
            32 hvcurveto
            26 callgsubr
            return
          </CharString>
          <CharString index="154">
            39 68 7 76 -1 -6 32 vhcurveto
            123 callgsubr
            -24 15 -21 24 -5 vhcurveto
            return
          </CharString>
          <CharString index="155">
            750 0 67 callsubr
            return
          </CharString>
          <CharString index="156">
            12 callsubr
            158 callsubr
            return
          </CharString>
          <CharString index="157">
            403 68 callsubr
            -44 55 hstemhm
            166 85 hintmask 00101100
            334 hmoveto
            -62 callgsubr
            610 vlineto
            return
          </CharString>
          <CharString index="158">
            rmoveto
            25 3 -21 19 -26 hhcurveto
            -25 -21 -19 -25 2 hvcurveto
            23 -238 rlineto
            42 hlineto
            return
          </CharString>
          <CharString index="159">
            980 -22 81 callsubr
            return
          </CharString>
          <CharString index="160">
            -44 44 vlineto
            100 0 -10 -32 hvcurveto
            -447 vlineto
            return
          </CharString>
          <CharString index="161">
            111 102 40 65 73 18 -41 -65 -65 callgsubr
            return
          </CharString>
          <CharString index="162">
            36 362 44 184 -20 hstemhm
            157 89 -42 42 return
          </CharString>
          <CharString index="163">
            vlineto
            54 94 callsubr
            return
          </CharString>
          <CharString index="164">
            42 hlineto
            141 184 0 67 return
          </CharString>
          <CharString index="165">
            110 92 110 return
          </CharString>
          <CharString index="166">
            33 -33 55 -44 44 310 55 0 33 return
          </CharString>
          <CharString index="167">
            rmoveto
            -14 17 rlineto
            -41 -49 -53 -30 -51 hhcurveto
            -40 -29 17 20 -35 hvcurveto
            17 -29 -31 17 -40 hhcurveto
            hintmask 00100000
            -25 -26 -8 -10 -22 hvcurveto
            return
          </CharString>
          <CharString index="168">
            69 -34 62 0 69 257 62 -34 69 hintmask 01010100
            return
          </CharString>
          <CharString index="169">
            23 0 51 20 38 vhcurveto
            return
          </CharString>
          <CharString index="170">
            vlineto
            31 0 11 96 vhcurveto
            43 44 hlineto
            -4 -61 -66 0 -61 hhcurveto
            -61 -66 0 4 -61 hvcurveto
            -44 43 vlineto
            96 0 -10 -32 hvcurveto
            return
          </CharString>
          <CharString index="171">
            27 callsubr
            133 return
          </CharString>
          <CharString index="172">
            438 -205 33 559 55 return
          </CharString>
          <CharString index="173">
            rmoveto
            77 -332 -77 vlineto
            endchar
          </CharString>
          <CharString index="174">
            137 callgsubr
            107 33 197 44 -44 55 return
          </CharString>
          <CharString index="175">
            25 callsubr
            595 44 return
          </CharString>
          <CharString index="176">
            680 -11 124 callgsubr
            return
          </CharString>
          <CharString index="177">
            75 58 callgsubr
            return
          </CharString>
          <CharString index="178">
            44 343 44 return
          </CharString>
          <CharString index="179">
            9 5 2 hvcurveto
            177 371 rlineto
            1 -334 hlineto
            -18 0 -6 -49 vhcurveto
            -18 -27 hlineto
            95 3 rlineto
            endchar
          </CharString>
          <CharString index="180">
            hlineto
            85 251 rlineto
            5 13 0 2 3 vvcurveto
            15 -12 13 -16 -20 -6 -17 -9 -3 vhcurveto
            -92 -271 rlineto
            return
          </CharString>
          <CharString index="181">
            39 106 7 110 -2 -3 vhcurveto
            -2 -2 rlineto
            123 callgsubr
            -23 13 -19 21 -7 vhcurveto
            endchar
          </CharString>
          <CharString index="182">
            hstemhm
            194 106 89 122 33 42 174 42 -8 42 return
          </CharString>
          <CharString index="183">
            1 3 -46 hvcurveto
            -44 return
          </CharString>
          <CharString index="184">
            -85 callgsubr
            hintmask 0001000000000000
            22 -24 rlineto
            return
          </CharString>
          <CharString index="185">
            hstemhm
            164 89 256 89 12 122 return
          </CharString>
          <CharString index="186">
            55 callgsubr
            58 -75 9 -67 hvcurveto
            return
          </CharString>
          <CharString index="187">
            44 callgsubr
            42 return
          </CharString>
          <CharString index="188">
            44 577 40 0 40 -40 44 return
          </CharString>
          <CharString index="189">
            750 0 137 callgsubr
            return
          </CharString>
          <CharString index="190">
            958 -22 44 639 44 return
          </CharString>
          <CharString index="191">
            -164 -11 rlineto
            -44 vlineto
            71 8 -7 -49 hvcurveto
            -247 -82 callsubr
            return
          </CharString>
          <CharString index="192">
            vvcurveto
            34 vlineto
            13 -2 -13 0 -6 hhcurveto
            -21 0 -8 -21 hvcurveto
            -28 vlineto
            -86 -44 -70 -86 -57 vhcurveto
            return
          </CharString>
          <CharString index="193">
            -14 272 -90 callsubr
            return
          </CharString>
          <CharString index="194">
            21 callsubr
            197 -181 169 -235 -238 -179 -171 -195 return
          </CharString>
          <CharString index="195">
            692 -22 33 42 122 424 40 0 40 return
          </CharString>
          <CharString index="196">
            -69 callgsubr
            hintmask 0000110100000000
            return
          </CharString>
          <CharString index="197">
            17 -2 11 -1 31 -8 rrcurveto
            -10 36 28 -7 24 hhcurveto
            44 3 35 8 hvcurveto
            endchar
          </CharString>
          <CharString index="198">
            rmoveto
            -22 24 rlineto
            hintmask 0001000000000000
            -74 callgsubr
            return
          </CharString>
          <CharString index="199">
            61 -100 callsubr
            return
          </CharString>
          <CharString index="200">
            1028 -40 -21 39 33 661 33 39 -20 return
          </CharString>
          <CharString index="201">
            71 31 callgsubr
            return
          </CharString>
          <CharString index="202">
            958 10 -21 398 44 return
          </CharString>
          <CharString index="203">
            819 0 47 592 44 return
          </CharString>
          <CharString index="204">
            11 142 callsubr
            return
          </CharString>
          <CharString index="205">
            31 callsubr
            hintmask 0000000010000000
            126 callgsubr
            return
          </CharString>
          <CharString index="206">
            -44 30 hlineto
            81 0 -10 -31 hvcurveto
            -513 -70 callgsubr
            return
          </CharString>
          <CharString index="207">
            rmoveto
            29 -24 24 -29 -29 -24 -24 -29 -29 24 -24 29 29 24 24 29 vhcurveto
            return
          </CharString>
          <CharString index="208">
            59 callsubr
            197 139 callsubr
            return
          </CharString>
          <CharString index="209">
            -21 133 -20 hstemhm
            194 106 return
          </CharString>
          <CharString index="210">
            hstemhm
            64 100 345 103 -100 100 return
          </CharString>
          <CharString index="211">
            81 145 90 147 return
          </CharString>
          <CharString index="212">
            44 617 44 return
          </CharString>
          <CharString index="213">
            904 144 rmoveto
            -42 hlineto
            -69 -73 -42 -75 -85 -72 44 42 -74 vhcurveto
            return
          </CharString>
          <CharString index="214">
            -20 64 callgsubr
            return
          </CharString>
          <CharString index="215">
            84 callgsubr
            262 44 return
          </CharString>
          <CharString index="216" raw="1">
            f41d120b   
          </CharString>
          <CharString index="217">
            hlineto
            6 5 3 6 2 hvcurveto
            7 21 rlineto
            7 2 -7 7 -9 hhcurveto
            return
          </CharString>
          <CharString index="218">
            44 212 44 383 44 118 callsubr
            return
          </CharString>
          <CharString index="219">
            34 27 28 33 20 -7 19 -16 11 hvcurveto
            37 -63 -94 2 -53 hhcurveto
            return
          </CharString>
          <CharString index="220">
            0 10 32 hvcurveto
            return
          </CharString>
          <CharString index="221">
            hvcurveto
            -14 -10 -8 -16 -18 vvcurveto
            -33 25 -20 28 24 29 16 38 return
          </CharString>
          <CharString index="222">
            635 396 rmoveto
            26 -21 31 -48 -24 -53 -5 -41 -53 vhcurveto
            return
          </CharString>
          <CharString index="223">
            hlineto
            -73 callgsubr
            hlineto
            return
          </CharString>
          <CharString index="224">
            hmoveto
            -25 callgsubr
            31 hvcurveto
            return
          </CharString>
          <CharString index="225">
            hstemhm
            97 117 433 106 0 106 return
          </CharString>
          <CharString index="226">
            549 -11 33 396 30 return
          </CharString>
          <CharString index="227">
            109 114 61 111 return
          </CharString>
          <CharString index="228">
            -21 570 96 32 -20 hstem
            return
          </CharString>
          <CharString index="229">
            681 504 -21 133 return
          </CharString>
          <CharString index="230">
            81 58 callgsubr
            return
          </CharString>
          <CharString index="231">
            -56 -74 0 4 -55 hvcurveto
            return
          </CharString>
          <CharString index="232">
            vvcurveto
            -15 13 -13 15 return
          </CharString>
          <CharString index="233">
            hlineto
            21 9 0 24 return
          </CharString>
          <CharString index="234">
            106 -106 109 221 106 -53 106 -75 106 hintmask 0101110010000000
            return
          </CharString>
          <CharString index="235">
            1305 22 -21 221 57 -56 57 221 -20 hstemhm
            return
          </CharString>
          <CharString index="236">
            -34 callgsubr
            63 52 return
          </CharString>
          <CharString index="237">
            165 -20 hstemhm
            return
          </CharString>
          <CharString index="238">
            117 0 117 -21 107 0 107 -36 107 hintmask 10000010
            return
          </CharString>
          <CharString index="239">
            403 -250 56 888 56 hstem
            173 56 vstem
            return
          </CharString>
          <CharString index="240">
            110 hstem
            -497 58 callsubr
            vstem
            -387 return
          </CharString>
          <CharString index="241">
            21 callgsubr
            hstemhm
            194 46 return
          </CharString>
          <CharString index="242">
            399 306 rmoveto
            26 -36 vlineto
            return
          </CharString>
          <CharString index="243">
            142 callgsubr
            hstemhm
            return
          </CharString>
          <CharString index="244">
            vlineto
            -172 -11 rlineto
            -45 vlineto
            76 7 -7 -51 hvcurveto
            return
          </CharString>
          <CharString index="245">
            8 callsubr
            78 -21 return
          </CharString>
          <CharString index="246">
            44 -44 55 hstemhm
            72 100 return
          </CharString>
          <CharString index="247">
            21 -21 483 -20 hstem
            return
          </CharString>
          <CharString index="248">
            -21 194 122 hstem
            return
          </CharString>
          <CharString index="249">
            0 2 4 vvcurveto
            return
          </CharString>
          <CharString index="250">
            1 vlineto
            10 -14 21 -7 12 vhcurveto
            -31 60 rlineto
            return
          </CharString>
          <CharString index="251">
            -6 10 20 23 11 25 21 -19 12 -22 2 return
          </CharString>
          <CharString index="252">
            157 callgsubr
            72 return
          </CharString>
          <CharString index="253">
            831 33 callsubr
            return
          </CharString>
          <CharString index="254">
            -229 -21 1000 -20 hstem
            return
          </CharString>
          <CharString index="255">
            52 -21 133 -20 hstemhm
            97 return
          </CharString>
          <CharString index="256">
            681 511 52 return
          </CharString>
          <CharString index="257">
            27 vhcurveto
            44 vlineto
            return
          </CharString>
          <CharString index="258">
            hstemhm
            65 100 0 100 152 100 -47 77 return
          </CharString>
          <CharString index="259">
            hlineto
            -14 -25 0 -28 -28 29 0 15 hvcurveto
            return
          </CharString>
          <CharString index="260">
            0 786 -21 176 -20 hstem
            -189 return
          </CharString>
          <CharString index="261">
            28 callsubr
            53 110 return
          </CharString>
          <CharString index="262">
            hstemhm
            65 100 114 122 114 100 return
          </CharString>
          <CharString index="263">
            122 hstem
            -402 122 vstem
            -280 return
          </CharString>
          <CharString index="264">
            13 27 0 28 hvcurveto
            endchar
          </CharString>
          <CharString index="265">
            hstemhm
            196 102 return
          </CharString>
        <CharString name=".notdef">
          280 endchar
        </CharString>
        <CharString name="A">
          981 0 44 0 44 135 44 449 -104 callsubr
          endchar
        </CharString>
        <CharString name="AE">
          -40 callgsubr
        </CharString>
        <CharString name="AE.dup">
          -40 callgsubr
        </CharString>
        <CharString name="AEacute">
          1178 0 44 0 44 218 44 289 44 84 -21 130 callsubr
          542 100 233 42 121 42 -8 42 hintmask 1011001101000000
          1114 271 rmoveto
          -42 hlineto
          -157 -28 -30 -70 -175 hhcurveto
          -148 hlineto
          -49 0 7 31 hvcurveto
          224 110 vlineto
          101 22 -24 -93 hvcurveto
          42 278 -42 hlineto
          -93 -22 -24 -101 vhcurveto
          -110 251 hlineto
          31 0 7 49 vhcurveto
          139 hlineto
          hintmask 1001000010000000
          166 23 -59 -135 19 109 callgsubr
          61 hlineto
          13 2 0 -2 7 hvcurveto
          -244 -532 rlineto
          -31 -14 -28 -30 -86 hhcurveto
          -44 vlineto
          3 36 42 1 37 hhcurveto
          43 44 -1 -3 43 hvcurveto
          44 vlineto
          hintmask 0110001000000000
          -50 -24 22 22 7 3 5 2 5 hvcurveto
          92 201 rlineto
          202 -222 146 callgsubr
          hlineto
          hintmask 1010001001000000
          -44 605 vlineto
          -522 350 rmoveto
          -181 hlineto
          130 286 rlineto
          51 0 -19 -20 hvcurveto
          hintmask 0000110000000000
          214 259 -102 callgsubr
        </CharString>
        <CharString name="Aacute">
          -26 callgsubr
          71 -21 165 -102 callsubr
          199 267 -102 callgsubr
        </CharString>
        <CharString name="Abreve">
          -26 callgsubr
          50 52 127 -102 callsubr
          11 callgsubr
          endchar
        </CharString>
        <CharString name="Abreveacute">
          -26 callgsubr
          50 52 312 -102 callsubr
          11 callgsubr
          -66 130 -102 callgsubr
        </CharString>
        <CharString name="Abrevedotbelow">
          111 callgsubr
          50 52 127 -41 callsubr
          hintmask 01010110
          -44 vlineto
          162 4 rlineto
          -162 263 rmoveto
          -283 hlineto
          141 322 rlineto
          11 callgsubr
          hintmask 10000001
          -129 -1064 rmoveto
          3 callgsubr
        </CharString>
        <CharString name="Abrevegrave">
          -26 callgsubr
          50 52 127 -102 callsubr
          11 callgsubr
          -64 57 rmoveto
          -19 -37 -199 76 -13 6 -15 8 -4 20 rlinecurve
          28 -7 21 27 29 hhcurveto
          12 7 -4 -7 10 hvcurveto
          endchar
        </CharString>
        <CharString name="Abrevehookabove">
          -26 callgsubr
          50 52 328 -102 callsubr
          11 callgsubr
          -68 135 -107 callgsubr
        </CharString>
        <CharString name="Abrevetilde">
          -26 callgsubr
          50 52 127 62 -22 62 -19 62 -106 callgsubr
          hintmask 00001101
          11 callgsubr
          18 121 rmoveto
          -22 24 rlineto
          hintmask 00000010
          -74 callgsubr
          hintmask 00000001
          -85 callgsubr
          hintmask 00000010
          22 -24 rlineto
          hintmask 00000101
          -74 callsubr
          hintmask 00000010
          -88 callsubr
        </CharString>
        <CharString name="Acaron">
          64 callsubr
          -64 callgsubr
          264 -51 callsubr
        </CharString>
        <CharString name="Acircumflex">
          64 callsubr
          -64 callgsubr
          163 -90 callsubr
          endchar
        </CharString>
        <CharString name="Acircumflexacute">
          27 callsubr
          318 -64 callgsubr
          163 -90 callsubr
          -15 263 -102 callgsubr
        </CharString>
        <CharString name="Acircumflexdotbelow">
          111 callgsubr
          61 -21 133 -41 callsubr
          hintmask 01010110
          -44 vlineto
          162 4 rlineto
          -162 263 rmoveto
          -283 hlineto
          141 322 rlineto
          183 163 -90 callsubr
          hintmask 10000001
          -78 -875 rmoveto
          3 callgsubr
        </CharString>
        <CharString name="Acircumflexgrave">
          64 callsubr
          -64 callgsubr
          163 -60 callsubr
        </CharString>
        <CharString name="Acircumflexhookabove">
          27 callsubr
          334 -64 callgsubr
          163 -90 callsubr
          104 268 -107 callgsubr
        </CharString>
        <CharString name="Acircumflextilde">
          64 callsubr
          62 -22 62 -19 62 -106 callgsubr
          hintmask 00001101
          183 163 -13 callgsubr
          hintmask 00000010
          -74 callgsubr
          hintmask 00000001
          -85 callgsubr
          hintmask 00000010
          22 -24 rlineto
          hintmask 00000101
          -74 callsubr
          hintmask 00000010
          -88 callsubr
        </CharString>
        <CharString name="Adblgrave">
          -26 callgsubr
          71 -21 195 -102 callsubr
          153 182 -92 callgsubr
        </CharString>
        <CharString name="Adieresis">
          -26 callgsubr
          40 110 hstemhm
          316 40 callgsubr
          -107 callsubr
          hintmask 00001110
          -32 202 -67 callgsubr
        </CharString>
        <CharString name="Adotbelow">
          981 -200 122 78 44 0 44 135 44 449 -41 callsubr
          hintmask 01010000
          -44 vlineto
          162 4 rlineto
          -162 263 rmoveto
          -283 hlineto
          141 322 rlineto
          hintmask 10000100
          93 -728 rmoveto
          3 callgsubr
        </CharString>
        <CharString name="Agrave">
          -26 callgsubr
          71 -21 165 -102 callsubr
          116 194 -66 callsubr
        </CharString>
        <CharString name="Ahookabove">
          -26 callgsubr
          83 -21 201 -102 callsubr
          154 304 -107 callgsubr
        </CharString>
        <CharString name="Alpha">
          981 0 44 0 44 135 44 449 -104 callsubr
          endchar
        </CharString>
        <CharString name="Amacron">
          -26 callgsubr
          60 44 -106 callgsubr
          hintmask 00001000
          257 167 -18 callsubr
        </CharString>
        <CharString name="Aogonek">
          981 -245 62 0 62 121 -17 callgsubr
          -20 hstemhm
          600 309 hintmask 00100110
          909 hmoveto
          44 -26 vlineto
          -62 -15 6 27 -12 hvcurveto
          -269 613 rlineto
          18 -8 -3 8 -24 hhcurveto
          -18 -8 -4 -20 -9 hvcurveto
          -258 -589 rlineto
          -50 -22 -54 -9 -50 hhcurveto
          -44 vlineto
          3 37 42 1 37 hhcurveto
          13 71 -1 -3 46 hvcurveto
          44 vlineto
          hintmask 00011010
          -56 -20 25 19 6 2 3 3 8 hvcurveto
          52 118 rlineto
          321 hlineto
          61 -140 rlineto
          6 -12 0 -3 0 vvcurveto
          -24 -57 0 -29 vhcurveto
          hintmask 10100010
          -44 vlineto
          1 29 49 3 43 hhcurveto
          -43 -31 -43 -55 49 callgsubr
          hintmask 01101010
          14 callsubr
          -3 116 104 64 rrcurveto
          -174 263 rmoveto
          -283 hlineto
          141 322 rlineto
          endchar
        </CharString>
        <CharString name="Aogonekacute">
          981 -245 62 0 62 121 -17 callgsubr
          -20 71 -21 130 callsubr
          600 309 hintmask 0010010010000000
          909 hmoveto
          44 -26 vlineto
          -62 -15 6 27 -12 hvcurveto
          -269 613 rlineto
          18 -8 -3 8 -24 hhcurveto
          -18 -8 -4 -20 -9 hvcurveto
          -258 -589 rlineto
          -50 -22 -54 -9 -50 hhcurveto
          -44 vlineto
          3 37 42 1 37 hhcurveto
          13 71 -1 -3 46 hvcurveto
          44 vlineto
          hintmask 0001100010000000
          -56 -20 25 19 6 2 3 3 8 hvcurveto
          52 118 rlineto
          321 hlineto
          61 -140 rlineto
          6 -12 0 -3 0 vvcurveto
          -24 -57 0 -29 vhcurveto
          hintmask 1010000010000000
          -44 vlineto
          1 29 49 3 43 hhcurveto
          -43 -31 -43 -55 49 callgsubr
          hintmask 0110100010000000
          14 callsubr
          -3 116 104 64 rrcurveto
          -174 263 rmoveto
          -283 hlineto
          141 322 rlineto
          hintmask 0000001100000000
          199 267 -102 callgsubr
        </CharString>
        <CharString name="Aring">
          -35 callsubr
          39 98 39 hstemhm
          365 50 150 50 -107 callsubr
          hintmask 00011110
          107 215 -46 callsubr
        </CharString>
        <CharString name="Aringacute">
          -35 callsubr
          39 98 39 57 39 89 -20 hstemhm
          365 50 150 50 hintmask 1001000000000000
          909 hmoveto
          44 -26 vlineto
          -62 -15 6 27 -12 hvcurveto
          -269 613 rlineto
          18 -8 -3 8 -24 hhcurveto
          -18 -8 -4 -20 -9 hvcurveto
          -258 -589 rlineto
          -50 -22 -54 -9 -50 hhcurveto
          -44 vlineto
          3 37 42 1 37 hhcurveto
          13 71 -1 -3 46 hvcurveto
          44 vlineto
          hintmask 0110000000000000
          -56 -20 25 19 6 2 3 3 8 hvcurveto
          52 118 rlineto
          321 hlineto
          61 -140 rlineto
          6 -12 0 -3 0 vvcurveto
          -24 -57 0 -29 vhcurveto
          hintmask 1010000000000000
          -44 vlineto
          162 4 rlineto
          -162 263 rmoveto
          -283 hlineto
          141 322 rlineto
          hintmask 0001111110000000
          107 215 -73 callsubr
          -1 219 -102 callgsubr
        </CharString>
        <CharString name="Atilde">
          -26 callgsubr
          40 62 -19 62 -106 callgsubr
          hintmask 00000100
          240 228 2 callgsubr
        </CharString>
        <CharString name="B">
          -23 callgsubr
        </CharString>
        <CharString name="Beta">
          -23 callgsubr
        </CharString>
        <CharString name="C">
          83 callsubr
          hstem
          97 117 604 42 vstem
          -76 callsubr
          -198 190 -166 243 193 137 123 133 hvcurveto
          endchar
        </CharString>
        <CharString name="Cacute">
          83 callsubr
          62 -21 130 callsubr
          97 117 604 42 hintmask 11001100
          -76 callsubr
          -198 190 -166 243 193 137 123 133 hvcurveto
          hintmask 00110000
          -166 622 -102 callgsubr
        </CharString>
        <CharString name="Ccaron">
          83 callsubr
          117 callgsubr
          604 42 hintmask 11001100
          -76 callsubr
          -198 190 -166 243 193 137 123 133 hvcurveto
          hintmask 00110000
          -182 619 -51 callsubr
        </CharString>
        <CharString name="Ccedilla">
          83 callsubr
          hstem
          97 117 130 42 183 42 207 42 vstem
          -76 callsubr
          -186 167 -157 221 -19 hvcurveto
          -88 vlineto
          54 72 79 callsubr
          46 vlineto
          172 15 119 115 124 vvcurveto
          endchar
        </CharString>
        <CharString name="Ccircumflex">
          83 callsubr
          117 callgsubr
          604 42 hintmask 11001100
          -76 callsubr
          -198 190 -166 243 193 137 123 133 hvcurveto
          hintmask 00110000
          -182 518 -90 callsubr
          endchar
        </CharString>
        <CharString name="Cdotaccent">
          83 callsubr
          53 122 hstemhm
          97 117 252 122 230 42 hintmask 11010100
          -76 callsubr
          -198 190 -166 243 193 137 123 133 hvcurveto
          hintmask 00101000
          -272 585 rmoveto
          3 callgsubr
        </CharString>
        <CharString name="Chi">
          -36 callgsubr
        </CharString>
        <CharString name="D">
          1004 0 44 595 44 hstem
          196 102 495 113 vstem
          -59 callgsubr
          endchar
        </CharString>
        <CharString name="Dcaron">
          1004 33 callsubr
          139 callgsubr
          196 102 495 113 hintmask 11001100
          -59 callgsubr
          hintmask 00110000
          -219 517 -51 callsubr
        </CharString>
        <CharString name="Dcroat">
          -22 callgsubr
        </CharString>
        <CharString name="Ddotbelow">
          1004 33 callgsubr
          158 callsubr
          64 122 309 113 hintmask 01110100
          -59 callgsubr
          hintmask 10001000
          -309 -475 rmoveto
          3 callgsubr
        </CharString>
        <CharString name="Delta">
          1097 0 91 625 -20 hstem
          1007 11 rmoveto
          3 0 1 -7 11 vhcurveto
          -412 667 rlineto
          18 -11 -7 5 -22 hhcurveto
          -21 -8 -5 -18 -11 hvcurveto
          -412 -667 rlineto
          -7 -11 0 -1 -3 vvcurveto
          -11 9 0 16 vhcurveto
          868 hlineto
          16 9 0 11 hvcurveto
          -172 80 rmoveto
          -647 hlineto
          324 524 rlineto
          endchar
        </CharString>
        <CharString name="Dlinebelow">
          1004 -161 44 117 44 595 44 158 callsubr
          495 113 hintmask 01111000
          -59 callgsubr
          hintmask 10000000
          -145 -497 -18 callsubr
        </CharString>
        <CharString name="E">
          8 callsubr
          -12 callsubr
          hintmask 11111010
          -98 callsubr
          hintmask 10110100
          -84 callgsubr
          703 hlineto
          hintmask 00000010
          endchar
        </CharString>
        <CharString name="Eacute">
          8 callsubr
          88 -21 165 -95 callgsubr
          -169 856 -102 callgsubr
        </CharString>
        <CharString name="Ebreve">
          8 callsubr
          67 52 127 -95 callgsubr
          -146 925 -97 callgsubr
          endchar
        </CharString>
        <CharString name="Ecaron">
          138 callsubr
          133 -66 callgsubr
          853 -51 callsubr
        </CharString>
        <CharString name="Ecircumflex">
          138 callsubr
          133 -66 callgsubr
          752 -90 callsubr
          endchar
        </CharString>
        <CharString name="Ecircumflexacute">
          138 callsubr
          318 -66 callgsubr
          752 -90 callsubr
          -15 263 -102 callgsubr
        </CharString>
        <CharString name="Ecircumflexdotbelow">
          900 34 callgsubr
          78 24 callgsubr
          78 -21 133 -20 75 callsubr
          hintmask 0111001010100000
          -98 callsubr
          hintmask 0101001001000000
          -84 callgsubr
          703 hlineto
          hintmask 0000110000100000
          -185 752 -90 callsubr
          hintmask 1000000100000000
          -78 -875 rmoveto
          3 callgsubr
        </CharString>
        <CharString name="Ecircumflexgrave">
          138 callsubr
          133 -66 callgsubr
          752 -60 callsubr
        </CharString>
        <CharString name="Ecircumflexhookabove">
          138 callsubr
          334 -66 callgsubr
          752 -90 callsubr
          104 268 -107 callgsubr
        </CharString>
        <CharString name="Ecircumflextilde">
          138 callsubr
          133 62 -22 62 -19 62 -12 callsubr
          hintmask 1110000110100000
          -98 callsubr
          hintmask 1010000101000000
          -84 callgsubr
          703 hlineto
          hintmask 0000000000100000
          hintmask 0001101000000000
          -185 752 rmoveto
          -151 117 -151 -117 10 -16 140 66 140 -66 rlineto
          69 254 29 callsubr
          hintmask 0000101000000000
          -74 callsubr
          hintmask 0000010000000000
          -88 callsubr
        </CharString>
        <CharString name="Edblgrave">
          8 callsubr
          88 -21 195 -95 callgsubr
          -180 771 -92 callgsubr
        </CharString>
        <CharString name="Edieresis">
          8 callsubr
          57 110 hstemhm
          194 106 -24 40 callgsubr
          -80 42 174 42 -8 42 hintmask 1110100101000000
          -98 callsubr
          hintmask 1010100010000000
          -84 callgsubr
          703 hlineto
          hintmask 0000000001000000
          hintmask 0001011000000000
          -400 791 -67 callgsubr
        </CharString>
        <CharString name="Edotaccent">
          8 callsubr
          79 122 75 callsubr
          hintmask 1110101010000000
          -98 callsubr
          hintmask 1010100100000000
          -78 callsubr
          hintmask 0001010000000000
          -275 819 rmoveto
          3 callgsubr
        </CharString>
        <CharString name="Edotbelow">
          900 34 callgsubr
          78 24 callgsubr
          75 callsubr
          hintmask 0111101010000000
          -98 callsubr
          hintmask 0101100100000000
          -78 callsubr
          hintmask 1000010000000000
          -275 -139 rmoveto
          3 callgsubr
        </CharString>
        <CharString name="Egrave">
          8 callsubr
          88 -21 165 -95 callgsubr
          -252 783 -66 callsubr
        </CharString>
        <CharString name="Ehookabove">
          8 callsubr
          100 -21 201 -95 callgsubr
          -214 893 -107 callgsubr
        </CharString>
        <CharString name="Emacron">
          8 callsubr
          77 44 -12 callsubr
          hintmask 11101101
          -98 callsubr
          hintmask 10101010
          -84 callgsubr
          703 hlineto
          hintmask 00000001
          hintmask 00010000
          -111 756 -18 callsubr
        </CharString>
        <CharString name="Eng">
          981 -22 101 -79 44 595 44 -20 42 hstemhm
          194 106 517 116 hintmask 00011000
          933 342 rmoveto
          206 -182 157 -212 -92 -88 -32 -55 -59 vhcurveto
          hintmask 01101000
          65 vlineto
          -3 -18 -17 -1 -18 hhcurveto
          -71 callsubr
          170 4 170 -4 rlineto
          44 -33 vlineto
          -84 29 callgsubr
          473 vlineto
          hintmask 10010100
          67 48 94 38 97 hhcurveto
          162 116 -151 -170 -133 -23 -142 -90 -37 hvcurveto
          27 -1 -22 22 -27 hhcurveto
          -28 -23 -23 -28 -27 23 -23 28 172 107 177 187 hvcurveto
          endchar
        </CharString>
        <CharString name="Eogonek">
          900 66 callgsubr
          286 44 261 44 -12 callsubr
          hintmask 0011111010000000
          -98 callsubr
          hintmask 1010110100000000
          -84 callgsubr
          528 hlineto
          -43 -31 -43 -51 49 callgsubr
          hintmask 0110000010000000
          14 callsubr
          8 100 93 76 rrcurveto
          122 hlineto
          endchar
        </CharString>
        <CharString name="Eogonekacute">
          900 66 callgsubr
          286 44 261 44 88 -21 165 -20 -12 callsubr
          hintmask 0011100110100000
          -98 callsubr
          hintmask 1010100101000000
          -84 callgsubr
          528 hlineto
          -43 -31 -43 -51 49 callgsubr
          hintmask 0110000000100000
          14 callsubr
          8 100 93 76 rrcurveto
          122 hlineto
          hintmask 0000011000000000
          -169 856 -102 callgsubr
        </CharString>
        <CharString name="Epsilon">
          8 callsubr
          -12 callsubr
          hintmask 11111010
          -98 callsubr
          hintmask 10110100
          -84 callgsubr
          703 hlineto
          hintmask 00000010
          endchar
        </CharString>
        <CharString name="Ereversed">
          8 callsubr
          hstemhm
          83 42 -8 42 174 42 244 106 hintmask 11101110
          836 117 callsubr
          509 vlineto
          31 0 10 81 vhcurveto
          30 44 -686 hlineto
          -33 -238 rlineto
          42 hlineto
          154 22 45 40 167 hhcurveto
          177 hlineto
          49 0 -7 -31 hvcurveto
          -223 -116 vlineto
          -100 -28 21 96 hvcurveto
          -42 -278 42 hlineto
          96 28 21 100 vhcurveto
          116 -248 hlineto
          -31 0 -7 -49 vhcurveto
          -186 hlineto
          hintmask 10010000
          -191 -39 63 164 -29 hvcurveto
          -42 hlineto
          50 -271 rlineto
          endchar
        </CharString>
        <CharString name="Eta">
          981 0 44 289 44 262 44 hstem
          194 106 380 106 vstem
          -85 callsubr
          endchar
        </CharString>
        <CharString name="Eth">
          -22 callgsubr
        </CharString>
        <CharString name="Etilde">
          8 callsubr
          57 62 -19 62 -96 callgsubr
          hintmask 0000100000000000
          -128 817 -3 callgsubr
        </CharString>
        <CharString name="Euro">
          782 -22 44 234 44 84 44 233 44 hstem
          138 116 vstem
          713 -8 rmoveto
          147 vlineto
          8 -6 6 -8 vhcurveto
          -16 hlineto
          -7 -6 -5 -7 -1 hvcurveto
          -72 -10 -69 -47 -75 hhcurveto
          -76 -71 33 58 -48 hvcurveto
          -34 41 -18 49 -8 53 rrcurveto
          318 110 callsubr
          -329 hlineto
          -1 14 0 14 14 vvcurveto
          14 0 14 1 14 vhcurveto
          369 110 callsubr
          -370 hlineto
          8 52 18 50 34 41 rrcurveto
          58 48 71 32 76 hhcurveto
          75 69 -47 -72 10 hvcurveto
          -7 1 6 -5 7 hhcurveto
          16 hlineto
          8 6 6 8 hvcurveto
          147 vlineto
          8 -6 6 -8 vhcurveto
          -5 hlineto
          -4 -3 -1 -2 -2 hvcurveto
          -44 -41 rlineto
          29 -40 -53 15 -54 hhcurveto
          -95 -90 -38 -68 -67 hvcurveto
          -47 -48 -32 -59 -15 -64 rrcurveto
          -62 112 callgsubr
          60 hlineto
          -1 -14 -1 -14 -14 vvcurveto
          -14 1 -14 1 -14 vhcurveto
          -54 112 callgsubr
          68 hlineto
          15 -64 32 -60 47 -47 rrcurveto
          -68 67 90 -39 95 hhcurveto
          54 53 16 29 40 hvcurveto
          44 -41 rlineto
          -3 2 3 -1 4 hhcurveto
          5 hlineto
          8 6 6 8 hvcurveto
          endchar
        </CharString>
        <CharString name="F">
          865 0 44 274 44 273 44 hstem
          194 106 237 42 163 42 vstem
          784 441 rmoveto
          -33 238 rlineto
          -668 47 callgsubr
          232 112 vlineto
          100 25 -23 -94 hvcurveto
          42 278 -42 hlineto
          -94 -25 -23 -100 vhcurveto
          -112 235 hlineto
          31 0 7 49 vhcurveto
          166 hlineto
          159 48 -39 -155 20 hvcurveto
          endchar
        </CharString>
        <CharString name="G">
          1033 -22 111 callsubr
          hintmask 11111000
          -77 callgsubr
          hintmask 11110100
          -81 callgsubr
          endchar
        </CharString>
        <CharString name="Gacute">
          46 callgsubr
          62 -21 165 -79 callsubr
          -243 622 -102 callgsubr
        </CharString>
        <CharString name="Gamma">
          831 0 44 591 44 hstem
          194 106 vstem
          750 441 rmoveto
          -33 238 rlineto
          -634 47 callgsubr
          511 vlineto
          31 0 7 49 vhcurveto
          145 hlineto
          169 26 -57 -137 19 hvcurveto
          endchar
        </CharString>
        <CharString name="Gbreve">
          46 callgsubr
          41 52 127 -79 callsubr
          -220 691 -97 callgsubr
          endchar
        </CharString>
        <CharString name="Gcaron">
          46 callgsubr
          52 -21 133 -79 callsubr
          -259 619 -51 callsubr
        </CharString>
        <CharString name="Gcedilla">
          1033 18 callgsubr
          44 111 callsubr
          hintmask 00111110
          -77 callgsubr
          hintmask 11111101
          -81 callgsubr
          -359 -384 -93 callgsubr
        </CharString>
        <CharString name="Gcircumflex">
          46 callgsubr
          52 -21 133 -79 callsubr
          -259 518 -90 callsubr
          endchar
        </CharString>
        <CharString name="Gcommaaccent">
          1033 18 callgsubr
          44 111 callsubr
          hintmask 00111110
          -77 callgsubr
          hintmask 00111101
          -81 callgsubr
          hintmask 11000000
          -359 -384 -93 callgsubr
        </CharString>
        <CharString name="Gdotaccent">
          46 callgsubr
          53 122 hstemhm
          97 117 241 122 70 106 0 106 hintmask 11101010
          -77 callgsubr
          hintmask 11101001
          -81 callgsubr
          hintmask 00010100
          -349 585 rmoveto
          3 callgsubr
        </CharString>
        <CharString name="H">
          981 0 44 289 44 262 44 hstem
          194 106 380 106 vstem
          -85 callsubr
          endchar
        </CharString>
        <CharString name="H_uni0303">
          108 callsubr
          53 110 callgsubr
          194 106 380 106 hintmask 11100110
          -85 callsubr
          hintmask 00001000
          -35 813 rmoveto
          -22 24 rlineto
          hintmask 00010000
          -74 callgsubr
          hintmask 00001000
          -85 callgsubr
          hintmask 00010000
          22 -24 rlineto
          hintmask 00001000
          -74 callsubr
          hintmask 00010000
          -88 callsubr
        </CharString>
        <CharString name="Hbar">
          84 callgsubr
          114 44 104 90 callgsubr
          406 111 44 -111 63 -93 callsubr
          -63 -380 63 -93 callsubr
          -63 -111 -44 111 -406 vlineto
          -59 callsubr
          248 380 -248 -2 callsubr
          -53 373 rmoveto
          -380 114 380 hlineto
          endchar
        </CharString>
        <CharString name="Hbrevebelow">
          981 140 callgsubr
          69 44 289 44 262 127 callgsubr
          380 106 hintmask 00111110
          -85 callsubr
          hintmask 11000110
          -53 -53 -97 callgsubr
          endchar
        </CharString>
        <CharString name="Hcircumflex">
          108 callsubr
          74 102 callsubr
          380 106 hintmask 11100110
          -85 callsubr
          hintmask 00011000
          -92 748 -90 callsubr
          endchar
        </CharString>
        <CharString name="Hdieresis">
          108 callsubr
          53 110 hstemhm
          194 106 16 40 callgsubr
          16 106 hintmask 11101001
          -85 callsubr
          hintmask 00010110
          -307 787 -67 callgsubr
        </CharString>
        <CharString name="Hdotbelow">
          104 callgsubr
          289 44 262 127 callgsubr
          129 122 129 106 hintmask 01111010
          -85 callsubr
          hintmask 10000100
          -182 -143 rmoveto
          3 callgsubr
        </CharString>
        <CharString name="I">
          28 callsubr
          hstem
          194 106 vstem
          -90 callgsubr
          endchar
        </CharString>
        <CharString name="I_J">
          1137 -22 33 -11 44 -33 33 9 122 464 127 callgsubr
          241 123 69 123 0 102 hintmask 0100110010000000
          -90 callgsubr
          794 635 rmoveto
          44 vlineto
          -3 -48 -48 -1 -48 hhcurveto
          124 callsubr
          53 callsubr
          hintmask 0011001100000000
          -5 callsubr
          vhcurveto
          hintmask 1000100010000000
          -81 87 -53 107 120 callsubr
          vhcurveto
          449 vlineto
          31 0 9 65 vhcurveto
          endchar
        </CharString>
        <CharString name="Iacute">
          28 callsubr
          84 -21 165 -20 -72 callgsubr
          hintmask 00110000
          167 852 -102 callgsubr
        </CharString>
        <CharString name="Ibreve">
          28 callsubr
          63 52 127 -20 -72 callgsubr
          hintmask 00110000
          190 921 -97 callgsubr
          endchar
        </CharString>
        <CharString name="Icaron">
          28 callsubr
          74 -21 133 -20 -72 callgsubr
          hintmask 00110000
          151 849 -51 callsubr
        </CharString>
        <CharString name="Icircumflex">
          28 callsubr
          74 -21 133 -20 -72 callgsubr
          hintmask 00110000
          151 748 -90 callsubr
          endchar
        </CharString>
        <CharString name="Idblgrave">
          28 callsubr
          84 -21 195 -20 -72 callgsubr
          hintmask 00110000
          156 767 -92 callgsubr
        </CharString>
        <CharString name="Idieresis">
          154 callsubr
          hstemhm
          73 147 callgsubr
          hintmask 11001000
          -90 callgsubr
          hintmask 00110100
          -64 787 -67 callgsubr
        </CharString>
        <CharString name="Idieresisacute">
          154 callsubr
          83 -21 130 callsubr
          73 147 callgsubr
          hintmask 11000010
          -90 callgsubr
          hintmask 00111101
          -64 787 rmoveto
          -99 callsubr
          238 hmoveto
          -99 callsubr
          -7 227 -102 callgsubr
        </CharString>
        <CharString name="Idotaccent">
          28 callsubr
          75 122 hstemhm
          186 122 -114 -68 callsubr
          hintmask 00110000
          61 815 rmoveto
          3 callgsubr
        </CharString>
        <CharString name="Idotbelow">
          494 33 callgsubr
          hstemhm
          186 122 -114 106 hintmask 01101000
          -90 callgsubr
          hintmask 10010000
          61 -143 rmoveto
          3 callgsubr
        </CharString>
        <CharString name="Igrave">
          28 callsubr
          84 -21 165 -20 -72 callgsubr
          hintmask 00110000
          84 779 -66 callsubr
        </CharString>
        <CharString name="Ihookabove">
          28 callsubr
          96 -21 201 -20 -72 callgsubr
          hintmask 00111000
          122 889 -107 callgsubr
        </CharString>
        <CharString name="Imacron">
          28 callsubr
          73 127 callgsubr
          hintmask 11010000
          -90 callgsubr
          hintmask 00100000
          225 752 -18 callsubr
        </CharString>
        <CharString name="Imacron.alt">
          28 callsubr
          73 127 callgsubr
          hintmask 11010000
          -90 callgsubr
          hintmask 00100000
          112 752 48 callgsubr
        </CharString>
        <CharString name="Iogonek">
          494 66 callgsubr
          595 127 callgsubr
          hintmask 01111000
          -8 callsubr
          endchar
        </CharString>
        <CharString name="Iogonekacute">
          494 66 callgsubr
          595 44 84 -21 130 callsubr
          194 106 hintmask 01110010
          -8 callsubr
          hintmask 00001100
          -3 991 -102 callgsubr
        </CharString>
        <CharString name="Iota">
          28 callsubr
          hstem
          194 106 vstem
          -90 callgsubr
          endchar
        </CharString>
        <CharString name="Itilde">
          28 callsubr
          53 62 -19 62 -72 callgsubr
          hintmask 00010000
          208 813 -83 callgsubr
        </CharString>
        <CharString name="J">
          88 callsubr
          hstemhm
          96 123 69 123 0 102 hintmask 00010010
          148 callgsubr
          -3 -48 -48 -1 -48 hhcurveto
          124 callsubr
          53 callsubr
          hintmask 11001100
          -5 callsubr
          -81 87 -53 107 vhcurveto
          hintmask 00100010
          39 callsubr
          endchar
        </CharString>
        <CharString name="J_uni030C.cap">
          691.66667 -22 33 42 122 292 -21 146 91 -84 40 0 40 hstemhm
          96 123 69 123 0 102 hintmask 0001000000000000
          148 callgsubr
          hintmask 0000010000000000
          -3 -48 -48 -1 -48 hhcurveto
          hintmask 0001000000000000
          124 callsubr
          hintmask 0000010010000000
          53 callsubr
          hintmask 1100001100000000
          -5 callsubr
          -81 87 -53 107 vhcurveto
          hintmask 0000100010000000
          39 callsubr
          166 -40 rmoveto
          hintmask 0011000000000000
          -33 callgsubr
          -23 17 -22 29 20 12 11 0 -54 -22 -45 -41 -34 vhcurveto
          -6 -5 0 -1 -5 vvcurveto
          -7 7 -6 5 vhcurveto
          hintmask 0000100000000000
          60 callgsubr
          hvcurveto
          endchar
        </CharString>
        <CharString name="Jacute">
          88 callsubr
          88 -21 165 -6 callgsubr
          21 217 -102 callgsubr
        </CharString>
        <CharString name="Jcircumflex">
          88 callsubr
          78 -21 133 -6 callgsubr
          5 113 -90 callsubr
          endchar
        </CharString>
        <CharString name="K">
          1015 33 callsubr
          hstem
          194 106 402 106 vstem
          -75 callsubr
          endchar
        </CharString>
        <CharString name="Kappa">
          1015 33 callsubr
          hstem
          194 106 402 106 vstem
          -75 callsubr
          endchar
        </CharString>
        <CharString name="Kcedilla">
          1015 68 callsubr
          hstem
          194 106 402 106 vstem
          -75 callsubr
          -376 -150 -93 callgsubr
        </CharString>
        <CharString name="Kcommaaccent">
          1015 68 callsubr
          hstemhm
          194 106 402 106 hintmask 00111100
          -75 callsubr
          hintmask 11000000
          -376 -150 -93 callgsubr
        </CharString>
        <CharString name="L">
          146 callsubr
          hstem
          194 106 vstem
          -80 callgsubr
          endchar
        </CharString>
        <CharString name="L_uni0303">
          146 callsubr
          53 110 callgsubr
          194 106 hintmask 11001000
          -80 callgsubr
          hintmask 00010000
          -257 817 -83 callgsubr
        </CharString>
        <CharString name="Lacute">
          146 callsubr
          84 -21 130 callsubr
          194 106 hintmask 11001000
          -80 callgsubr
          hintmask 00110000
          -298 856 -102 callgsubr
        </CharString>
        <CharString name="Lambda">
          911 0 44 672 -20 hstem
          839 hmoveto
          44 -20 vlineto
          -53 -17 5 27 -11 hvcurveto
          -249 614 rlineto
          17 -7 -4 9 -23 hhcurveto
          -23 -4 -9 -17 -7 hvcurveto
          -238 -587 rlineto
          -58 -24 -65 -1 -23 hhcurveto
          -44 vlineto
          3 41 49 1 15 hhcurveto
          128 -4 rlineto
          44 vlineto
          -44 -33 17 28 0 0 9 5 12 hvcurveto
          190 465 200 -493 rlineto
          1 -3 3 -8 -3 vvcurveto
          -24 -60 0 -27 vhcurveto
          -44 vlineto
          161 4 rlineto
          13 74 -1 -3 52 hvcurveto
          endchar
        </CharString>
        <CharString name="Lcaron">
          831 0 44 423 -21 146 91 -44 127 callgsubr
          hintmask 10011000
          -80 callgsubr
          -107 599 rmoveto
          38 callgsubr
        </CharString>
        <CharString name="Lcedilla">
          831 68 callsubr
          hstem
          194 106 vstem
          -80 callgsubr
          -251 -150 -93 callgsubr
        </CharString>
        <CharString name="Lcommaaccent">
          831 68 callsubr
          hstemhm
          194 106 hintmask 00111000
          -80 callgsubr
          hintmask 11000000
          -251 -150 -93 callgsubr
        </CharString>
        <CharString name="Ldot">
          831 0 44 303 122 170 44 hstem
          194 106 301 122 vstem
          -80 callgsubr
          6 408 rmoveto
          3 callgsubr
        </CharString>
        <CharString name="Ldotbelow">
          831 33 callgsubr
          hstemhm
          194 106 54 122 hintmask 01110000
          -80 callgsubr
          hintmask 10001000
          -241 -139 rmoveto
          3 callgsubr
        </CharString>
        <CharString name="Ldotbelowmacron">
          831 33 callgsubr
          73 127 callgsubr
          54 122 hintmask 11101100
          -80 callgsubr
          -241 -139 -100 callsubr
          hintmask 00010000
          10 895 -18 callsubr
        </CharString>
        <CharString name="Lslash">
          146 callsubr
          hstem
          194 106 vstem
          -19 callsubr
          278 vlineto
          208 135 -25 36 -183 -119 rlineto
          185 vlineto
          31 0 11 96 vhcurveto
          43 44 hlineto
          -4 -56 -74 0 -57 hhcurveto
          -169 4 rlineto
          -44 30 vlineto
          81 0 -10 -31 hvcurveto
          -254 vlineto
          -98 -64 24 -36 74 48 rlineto
          -207 6 callsubr
          endchar
        </CharString>
        <CharString name="M">
          1189 33 callsubr
          hstem
          200 46 648 94 vstem
          -50 callsubr
          endchar
        </CharString>
        <CharString name="Mdotbelow">
          1189 33 callgsubr
          hstemhm
          200 46 287 122 239 94 hintmask 01110100
          -50 callsubr
          hintmask 10001000
          -286 -143 rmoveto
          3 callgsubr
        </CharString>
        <CharString name="Mu">
          1189 33 callsubr
          hstem
          200 46 648 94 vstem
          -50 callsubr
          endchar
        </CharString>
        <CharString name="N">
          21 callgsubr
          hstem
          194 46 500 46 cntrmask 11100000
          -95 callsubr
          endchar
        </CharString>
        <CharString name="Nacute">
          134 callsubr
          500 46 cntrmask 11100000
          -95 callsubr
          hintmask 11100000
          -240 217 -102 callgsubr
        </CharString>
        <CharString name="Ncaron">
          134 callsubr
          500 46 cntrmask 11100000
          -95 callsubr
          hintmask 11100000
          -256 214 -51 callsubr
        </CharString>
        <CharString name="Ncedilla">
          21 callgsubr
          hstem
          194 46 500 46 cntrmask 11100000
          -95 callsubr
          -356 -789 -93 callgsubr
        </CharString>
        <CharString name="Ncommaaccent">
          134 callsubr
          500 46 cntrmask 11100000
          -95 callsubr
          hintmask 11100000
          -356 -789 -93 callgsubr
        </CharString>
        <CharString name="Ndotaccent">
          134 callsubr
          189 122 189 46 cntrmask 11100000
          hintmask 11110100
          -95 callsubr
          hintmask 11101000
          -346 158 rmoveto
          3 callgsubr
        </CharString>
        <CharString name="Ndotbelow">
          134 callsubr
          189 122 189 46 cntrmask 11100000
          hintmask 11110100
          -95 callsubr
          hintmask 11101000
          -346 -778 rmoveto
          3 callgsubr
        </CharString>
        <CharString name="Ntilde">
          134 callsubr
          500 46 cntrmask 11100000
          -95 callsubr
          hintmask 11100000
          -199 178 rmoveto
          -22 24 rlineto
          -74 callgsubr
          -85 callgsubr
          22 -24 rlineto
          -74 callsubr
          -88 callsubr
        </CharString>
        <CharString name="Nu">
          21 callgsubr
          hstem
          194 46 500 46 cntrmask 11100000
          -95 callsubr
          endchar
        </CharString>
        <CharString name="O">
          -7 callgsubr
          hstem
          97 117 599 117 vstem
          -101 callgsubr
          endchar
        </CharString>
        <CharString name="OE">
          -45 callsubr
        </CharString>
        <CharString name="OE.dup">
          -45 callsubr
        </CharString>
        <CharString name="Oacute">
          -7 callgsubr
          62 -21 165 -89 callgsubr
          -132 502 -102 callgsubr
        </CharString>
        <CharString name="Obreve">
          -7 callgsubr
          41 52 127 -89 callgsubr
          -109 571 -97 callgsubr
          endchar
        </CharString>
        <CharString name="Ocaron">
          -7 callgsubr
          52 -21 133 -50 callgsubr
          499 -51 callsubr
        </CharString>
        <CharString name="Ocircumflex">
          -7 callgsubr
          52 -21 133 -50 callgsubr
          398 -90 callsubr
          endchar
        </CharString>
        <CharString name="Ocircumflexacute">
          -7 callgsubr
          52 -21 318 -50 callgsubr
          398 -90 callsubr
          -15 263 -102 callgsubr
        </CharString>
        <CharString name="Ocircumflexdotbelow">
          1028 34 callgsubr
          56 37 654 36 52 -21 133 -20 138 callgsubr
          hintmask 01111101
          -101 callgsubr
          -148 398 -90 callsubr
          hintmask 10000010
          -78 -875 rmoveto
          3 callgsubr
        </CharString>
        <CharString name="Ocircumflexgrave">
          -7 callgsubr
          52 -21 133 -50 callgsubr
          398 -60 callsubr
        </CharString>
        <CharString name="Ocircumflexhookabove">
          -7 callgsubr
          52 -21 334 -50 callgsubr
          398 -90 callsubr
          104 268 -107 callgsubr
        </CharString>
        <CharString name="Ocircumflextilde">
          -7 callgsubr
          52 -21 133 63 callgsubr
          97 117 599 117 hintmask 11000011
          -101 callgsubr
          hintmask 00110100
          -148 398 rmoveto
          -151 117 -151 -117 10 -16 140 66 140 -66 rlineto
          69 254 34 callsubr
          hintmask 00010100
          -74 callsubr
          hintmask 00001000
          -88 callsubr
        </CharString>
        <CharString name="Odblgrave">
          -7 callgsubr
          62 -21 195 -89 callgsubr
          -143 417 -92 callgsubr
        </CharString>
        <CharString name="Odieresis">
          -7 callgsubr
          31 110 hstemhm
          97 117 126 40 callgsubr
          125 117 hintmask 11010010
          -101 callgsubr
          hintmask 00101100
          -363 437 -67 callgsubr
        </CharString>
        <CharString name="Odotbelow">
          1028 34 callgsubr
          56 37 654 36 138 callgsubr
          hintmask 01110100
          -101 callgsubr
          hintmask 10001000
          -238 -493 rmoveto
          3 callgsubr
        </CharString>
        <CharString name="Ograve">
          -7 callgsubr
          62 -21 165 -89 callgsubr
          -215 429 -66 callsubr
        </CharString>
        <CharString name="Ohookabove">
          -7 callgsubr
          74 -21 201 -89 callgsubr
          -177 539 -107 callgsubr
        </CharString>
        <CharString name="Ohorn">
          -7 callgsubr
          100 -20 hstemhm
          97 117 523 122 -54 122 -117 117 hintmask 00000100
          927 339 rmoveto
          100 -47 93 -75 66 vhcurveto
          -6 6 -7 5 -6 5 rrcurveto
          hintmask 11111000
          -56 callgsubr
          hintmask 11010100
          -54 callgsubr
          hintmask 00000010
          57 -60 24 -81 -83 vvcurveto
          endchar
        </CharString>
        <CharString name="Ohornacute">
          -7 callgsubr
          62 -21 59 -20 126 -63 callgsubr
          -164 501 -102 callgsubr
        </CharString>
        <CharString name="Ohorndotbelow">
          1028 34 callgsubr
          56 37 654 36 100 -20 hstemhm
          97 117 238 122 163 122 -54 122 -117 117 hintmask 0000000100000000
          927 339 rmoveto
          100 -47 93 -75 66 vhcurveto
          -6 6 -7 5 -6 5 rrcurveto
          hintmask 0111101000000000
          -56 callgsubr
          hintmask 0110100100000000
          -41 callgsubr
          hintmask 1000010000000000
          -236 -494 rmoveto
          3 callgsubr
        </CharString>
        <CharString name="Ohorngrave">
          -7 callgsubr
          62 -21 59 -20 126 -63 callgsubr
          -213 428 -66 callsubr
        </CharString>
        <CharString name="Ohornhookabove">
          -7 callgsubr
          74 -21 47 -20 174 -63 callgsubr
          -175 538 -107 callgsubr
        </CharString>
        <CharString name="Ohorntilde">
          -7 callgsubr
          31 110 callgsubr
          97 117 523 122 -54 122 -117 117 hintmask 00000010
          927 339 rmoveto
          100 -47 93 -75 66 vhcurveto
          -6 6 -7 5 -6 5 rrcurveto
          hintmask 11001100
          -56 callgsubr
          hintmask 11001010
          -54 callgsubr
          hintmask 00000001
          57 -60 24 -81 -83 vvcurveto
          hintmask 00010000
          -89 462 -83 callgsubr
        </CharString>
        <CharString name="Ohungarumlaut">
          -7 callgsubr
          62 -21 195 -89 callgsubr
          -293 541 -72 callsubr
        </CharString>
        <CharString name="Omacron">
          -7 callgsubr
          51 44 hstemhm
          97 117 599 117 hintmask 11011000
          -101 callgsubr
          hintmask 00100000
          -74 402 -18 callsubr
        </CharString>
        <CharString name="Omega">
          -33 callsubr
        </CharString>
        <CharString name="Omicron">
          -7 callgsubr
          hstem
          97 117 599 117 vstem
          -101 callgsubr
          endchar
        </CharString>
        <CharString name="Oogonek">
          -7 callgsubr
          hstem
          97 117 599 117 vstem
          -14 callgsubr
          endchar
        </CharString>
        <CharString name="Oogonekacute">
          -7 callgsubr
          62 -21 130 callsubr
          97 117 599 117 hintmask 11001100
          -14 callgsubr
          hintmask 00110000
          -132 502 -102 callgsubr
        </CharString>
        <CharString name="Orogate">
          1028 97 117 283 34 282 117 vstem
          21 callsubr
          192 -172 166 -227 8 vhcurveto
          173 -34 -173 vlineto
          -229 -8 -171 -168 -190 vvcurveto
          -191 175 -162 225 -8 vhcurveto
          -172 34 172 vlineto
          228 9 171 163 189 vvcurveto
          -117 15 rmoveto
          -233 -154 -106 -145 -151 -149 110 229 218 155 97 144 150 150 -101 -214 vhcurveto
          endchar
        </CharString>
        <CharString name="Oslash">
          93 callsubr
          hstem
          97 106 621 106 vstem
          -48 callsubr
          endchar
        </CharString>
        <CharString name="Oslash.dup">
          93 callsubr
          hstem
          97 106 621 106 vstem
          -48 callsubr
          endchar
        </CharString>
        <CharString name="Oslashacute">
          93 callsubr
          43 -21 130 callsubr
          97 106 621 106 hintmask 11110011
          -48 callsubr
          hintmask 00001100
          -143 517 -102 callgsubr
        </CharString>
        <CharString name="Otilde">
          -7 callgsubr
          31 62 -19 62 -91 callsubr
          hintmask 00010000
          -91 463 -83 callgsubr
        </CharString>
        <CharString name="P">
          -13 callsubr
        </CharString>
        <CharString name="Phi">
          958 0 44 103 33 -32 33 321 33 -32 33 103 44 hstemhm
          97 113 216 98 223 113 hintmask 0000110100000000
          860 341 rmoveto
          98 -137 83 -199 14 vhcurveto
          61 63 callsubr
          hintmask 1011001100000000
          -62 vlineto
          -175 -11 -154 -79 -103 vvcurveto
          -106 158 -78 171 -10 vhcurveto
          61 callgsubr
          hintmask 0101001110000000
          61 vlineto
          203 14 133 85 95 vvcurveto
          -434 -160 rmoveto
          -114 7 -102 44 109 vvcurveto
          114 109 40 107 7 vhcurveto
          hintmask 0010000100000000
          321 -160 rmoveto
          hintmask 0100100110000000
          -138 -160 -20 -63 -4 vhcurveto
          323 vlineto
          56 -3 167 -18 -140 vvcurveto
          endchar
        </CharString>
        <CharString name="Pi">
          981 0 44 591 90 callgsubr
          509 vlineto
          31 0 10 81 vhcurveto
          30 44 -814 -44 30 hlineto
          81 0 -10 -31 hvcurveto
          -509 vlineto
          -59 callsubr
          550 380 -550 -2 callsubr
          endchar
        </CharString>
        <CharString name="Psi">
          1028 0 44 470 32 93 44 hstem
          187 98 176 98 183 98 vstem
          930 529 rmoveto
          17 -14 0 -16 vhcurveto
          -44 hlineto
          -90 -23 -79 -72 -1 hvcurveto
          -1 -37 -11 -152 -171 -23 rrcurveto
          414 63 callsubr
          -414 vlineto
          -115 17 -59 83 -2 113 rrcurveto
          81 -1 -29 69 -84 hhcurveto
          -43 hlineto
          -16 -15 0 -17 -9 7 -6 7 -1 hvcurveto
          74 -8 1 -72 1 -38 2 -59 31 -170 241 -18 rrcurveto
          61 callgsubr
          62 vlineto
          88 6 60 24 52 42 56 46 24 80 1 51 rrcurveto
          22 2 86 67 8 vhcurveto
          8 1 13 1 14 vvcurveto
          endchar
        </CharString>
        <CharString name="Q">
          1028 -194 117 55 36 -22 36 2 36 54 33 516 36 hstemhm
          97 113 200 33 238 113 23 113 -26 33 hintmask 1000000010100000
          937 -7 rmoveto
          7 0 16 -17 -4 -11 -3 -12 -1 vhcurveto
          -78 -7 -95 0 -8 hhcurveto
          -24 -38 2 83 -51 hvcurveto
          hintmask 0100011001000000
          130 48 119 123 160 vvcurveto
          197 -181 169 -235 -238 -179 -171 -195 -196 183 -165 233 vhcurveto
          hintmask 1011111100100000
          15 45 0 14 55 hvcurveto
          -103 31 33 -83 93 hhcurveto
          104 48 112 75 hvcurveto
          -120 346 rmoveto
          -145 -68 -100 -93 -46 vhcurveto
          53 -34 -40 52 -68 hhcurveto
          -57 -47 -36 -51 -18 7 -14 3 -6 hvcurveto
          -106 32 -104 98 181 vvcurveto
          223 153 107 150 vhcurveto
          hintmask 0101100101000000
          154 150 -109 -221 hvcurveto
          -203 -309 rmoveto
          -15 -48 -36 -1 -16 hhcurveto
          -60 -11 37 15 32 33 22 38 49 27 -32 -58 24 hvcurveto
          endchar
        </CharString>
        <CharString name="R">
          12 callsubr
          hstem
          196 102 369 54 callgsubr
          -100 callgsubr
          endchar
        </CharString>
        <CharString name="Racute">
          49 callsubr
          369 54 callgsubr
          -100 callgsubr
          hintmask 11100000
          -16 357 -102 callgsubr
        </CharString>
        <CharString name="Rcaron">
          49 callsubr
          369 54 callgsubr
          -100 callgsubr
          hintmask 11100000
          -32 354 -51 callsubr
        </CharString>
        <CharString name="Rcedilla">
          12 callsubr
          hstem
          196 102 369 54 callgsubr
          -100 callgsubr
          -132 -649 -93 callgsubr
        </CharString>
        <CharString name="Rcommaaccent">
          49 callsubr
          369 54 callgsubr
          -100 callgsubr
          hintmask 11100000
          -132 -649 -93 callgsubr
        </CharString>
        <CharString name="Rdblgrave">
          49 callsubr
          369 54 callgsubr
          -100 callgsubr
          hintmask 11100000
          -61 272 -92 callgsubr
        </CharString>
        <CharString name="Rdotaccent">
          67 callgsubr
          hintmask 11110110
          -100 callgsubr
          hintmask 11101000
          -122 320 rmoveto
          3 callgsubr
        </CharString>
        <CharString name="Rdotbelow">
          67 callgsubr
          hintmask 11110110
          -100 callgsubr
          hintmask 11101000
          -122 -638 rmoveto
          3 callgsubr
        </CharString>
        <CharString name="Rdotbelowmacron">
          67 callgsubr
          -100 callgsubr
          -122 -638 -100 callsubr
          hintmask 11100000
          164 895 -18 callsubr
        </CharString>
        <CharString name="Rho">
          -13 callsubr
        </CharString>
        <CharString name="S">
          120 callgsubr
          hstem
          97 61 433 61 vstem
          652 181 rmoveto
          -98 callgsubr
          endchar
        </CharString>
        <CharString name="S_S">
          1500 -22 44 642 41 hstem
          97 61 433 61 195 61 433 61 vstem
          652 181 rmoveto
          -98 callgsubr
          750 hmoveto
          -98 callgsubr
          endchar
        </CharString>
        <CharString name="Sacute">
          120 callgsubr
          62 -21 130 callsubr
          97 61 433 61 hintmask 11001100
          652 181 rmoveto
          -98 callgsubr
          hintmask 00110000
          -110 675 -102 callgsubr
        </CharString>
        <CharString name="Scaron">
          120 callgsubr
          148 callsubr
          61 433 61 hintmask 11001100
          652 181 rmoveto
          -98 callgsubr
          hintmask 00110000
          -126 672 -51 callsubr
        </CharString>
        <CharString name="Scedilla">
          750 -66 44 0 44 642 41 hstemhm
          97 61 -27 61 399 61 hintmask 01110100
          652 181 rmoveto
          75 -46 44 -18 17 vhcurveto
          -47 46 -54 10 -82 16 -56 11 -58 11 -10 3 rrcurveto
          -40 8 -83 37 76 vvcurveto
          66 74 63 109 179 43 -118 -73 11 vhcurveto
          -14 3 4 -3 15 hhcurveto
          21 0 7 21 hvcurveto
          193 vlineto
          17 0 11 -16 -5 -6 0 -13 -9 vhcurveto
          -39 -58 rlineto
          43 -47 -63 28 -91 hhcurveto
          -142 -102 -88 -101 -56 30 -43 31 -26 hvcurveto
          51 -43 50 -10 46 -9 158 -31 rcurveline
          67 -16 61 -50 -68 vvcurveto
          -71 -70 -71 -116 -46 -84 6 40 -61 vhcurveto
          -48 32 -24 45 -3 59 rrcurveto
          17 -1 0 6 -20 hhcurveto
          -21 0 -8 -21 hvcurveto
          -192 98 callgsubr
          vhcurveto
          hintmask 10001100
          10 2 3 9 6 hvcurveto
          5 6 34 50 0 vvcurveto
          50 -38 59 -18 54 -7 rrcurveto
          -91 vlineto
          54 71 0 -25 -25 -143 0 -102 hvcurveto
          -21 -42 42 hlineto
          141 183 0 67 58 -74 9 -67 hvcurveto
          44 vlineto
          144 5 91 97 101 vvcurveto
          endchar
        </CharString>
        <CharString name="Scircumflex">
          120 callgsubr
          148 callsubr
          61 433 61 hintmask 11001100
          652 181 rmoveto
          -98 callgsubr
          hintmask 00110000
          -126 571 -90 callsubr
          endchar
        </CharString>
        <CharString name="Sdotbelow">
          750 34 callgsubr
          56 44 642 41 hstemhm
          97 61 156 122 155 61 hintmask 01110100
          652 181 rmoveto
          -98 callgsubr
          hintmask 10001000
          -216 -320 rmoveto
          3 callgsubr
        </CharString>
        <CharString name="Sigma">
          958 0 56 583 44 hstem
          860 250 rmoveto
          -42 hlineto
          -16 -114 -53 -43 -29 -13 rrcurveto
          -24 -56 -124 0 -11 hhcurveto
          -331 hlineto
          295 267 rlineto
          11 10 0 5 4 vvcurveto
          6 -2 3 -8 9 vhcurveto
          -246 279 rlineto
          281 hlineto
          82 72 -8 -17 38 hvcurveto
          40 -18 44 -55 13 -96 rrcurveto
          7 callsubr
          -699 hlineto
          -20 -11 0 -22 -11 1 -2 8 -9 hvcurveto
          297 -337 -293 -267 rlineto
          -11 -10 -2 -1 -7 vvcurveto
          -17 15 0 16 vhcurveto
          699 hlineto
          endchar
        </CharString>
        <CharString name="T">
          97 callgsubr
          hstem
          426 106 vstem
          -84 callsubr
          endchar
        </CharString>
        <CharString name="T_uni0303">
          97 callgsubr
          61 110 callgsubr
          426 106 hintmask 11001000
          -84 callsubr
          hintmask 00010000
          -155 380 -83 callgsubr
        </CharString>
        <CharString name="T_uni0308">
          97 callgsubr
          61 110 hstemhm
          305 147 callgsubr
          hintmask 11001000
          -84 callsubr
          hintmask 00110100
          -427 354 -67 callgsubr
        </CharString>
        <CharString name="Tau">
          97 callgsubr
          hstem
          426 106 vstem
          -84 callsubr
          endchar
        </CharString>
        <CharString name="Tcaron">
          97 callgsubr
          82 -21 133 -20 hstemhm
          426 106 hintmask 11001000
          -84 callsubr
          hintmask 00110000
          -212 416 -51 callsubr
        </CharString>
        <CharString name="Tcedilla">
          958 -200 42 50 42 70 40 586 45 hstemhm
          337 100 -11 106 -95 84 41 100 hintmask 00110100
          884 437 rmoveto
          -23 238 rlineto
          -765 hlineto
          -23 -238 rlineto
          42 hlineto
          182 17 38 12 162 hhcurveto
          21 36 0 -1 7 hvcurveto
          28 -2 2 -4 -31 vvcurveto
          -507 vlineto
          -32 0 -10 -107 vhcurveto
          -50 -44 hlineto
          hintmask 11101001
          3 39 73 1 56 hhcurveto
          -112 vlineto
          54 71 55 callgsubr
          hvcurveto
          hintmask 01100010
          58 -74 9 -67 vhcurveto
          70 vlineto
          56 73 -1 -3 39 hvcurveto
          44 -50 vlineto
          hintmask 00010100
          -107 113 callsubr
          507 vlineto
          29 2 5 26 3 vhcurveto
          1 9 34 0 22 hhcurveto
          162 38 -11 -183 17 hvcurveto
          endchar
        </CharString>
        <CharString name="Tdotbelow">
          958 34 callgsubr
          82 40 586 45 hstemhm
          418 122 -114 106 hintmask 01101000
          -84 callsubr
          hintmask 10010000
          -302 -576 rmoveto
          3 callgsubr
        </CharString>
        <CharString name="Theta">
          1028 263 34 0 91 0 34 hstem
          97 109 70 42 391 42 70 109 cntrmask 11100000
          87 callsubr
          -196 183 -165 233 237 180 167 194 vhcurveto
          -109 hmoveto
          -218 -153 -109 -154 -159 -149 112 215 222 154 111 153 159 149 -115 -218 vhcurveto
          -70 -76 rmoveto
          159 -42 -34 -391 34 -42 -159 42 34 391 -34 vlineto
          endchar
        </CharString>
        <CharString name="Thorn">
          831 1 44 133 45 293 45 77 44 hstem
          198 98 323 113 vstem
          732 369 rmoveto
          93 -97 99 -170 vhcurveto
          -169 49 hlineto
          1 23 19 2 21 1 rrcurveto
          2 18 34 0 18 hhcurveto
          44 vlineto
          -160 -3 -160 3 rlineto
          -44 vlineto
          25 29 0 -2 22 hvcurveto
          35 -3 0 -12 -25 vvcurveto
          -509 vlineto
          -27 0 -10 -37 -3 vhcurveto
          -2 -21 -25 0 -28 hhcurveto
          -44 vlineto
          160 3 160 -3 rlineto
          44 vlineto
          -25 -29 0 2 -22 hvcurveto
          -35 3 0 12 25 vvcurveto
          91 182 vlineto
          138 116 87 104 hvcurveto
          -113 1 rmoveto
          -76 -74 -71 -107 vhcurveto
          -142 293 148 hlineto
          131 44 -92 -54 hvcurveto
          endchar
        </CharString>
        <CharString name="Tlinebelow">
          958 -161 44 121 40 586 45 hstemhm
          426 106 hintmask 01110000
          -84 callsubr
          hintmask 10000000
          -138 -598 -18 callsubr
        </CharString>
        <CharString name="U">
          16 callgsubr
          hstem
          194 106 442 44 vstem
          -105 callgsubr
          endchar
        </CharString>
        <CharString name="U_uni032F">
          981 -207 -21 127 52 27 44 617 44 45 callgsubr
          hintmask 00111100
          -105 callgsubr
          hintmask 11000000
          -187 -867 -42 callsubr
        </CharString>
        <CharString name="Uacute">
          16 callgsubr
          84 -21 165 -20 45 callgsubr
          hintmask 11001100
          -105 callgsubr
          hintmask 00110000
          -210 217 -102 callgsubr
        </CharString>
        <CharString name="Ubreve">
          16 callgsubr
          63 52 127 -20 45 callgsubr
          hintmask 11001100
          -105 callgsubr
          hintmask 00110000
          -187 286 -97 callgsubr
          endchar
        </CharString>
        <CharString name="Ucaron">
          16 callgsubr
          74 102 callsubr
          442 44 hintmask 11001100
          -105 callgsubr
          hintmask 00110000
          -226 214 -51 callsubr
        </CharString>
        <CharString name="Ucircumflex">
          16 callgsubr
          74 102 callsubr
          442 44 hintmask 11001100
          -105 callgsubr
          hintmask 00110000
          -226 113 -90 callsubr
          endchar
        </CharString>
        <CharString name="Udblgrave">
          16 callgsubr
          84 -21 195 -20 45 callgsubr
          hintmask 11001100
          -105 callgsubr
          hintmask 00110000
          -221 132 -92 callgsubr
        </CharString>
        <CharString name="Udieresis">
          16 callgsubr
          53 110 hstemhm
          194 106 46 40 callgsubr
          48 44 hintmask 11010010
          -105 callgsubr
          hintmask 00101100
          -16 callgsubr
          endchar
        </CharString>
        <CharString name="Udieresisacute">
          16 callgsubr
          53 110 83 -21 130 callsubr
          194 106 46 40 callgsubr
          48 44 hintmask 1100010010000000
          -105 callgsubr
          hintmask 0011101100000000
          -16 callgsubr
          -7 227 -102 callgsubr
        </CharString>
        <CharString name="Udieresiscaron">
          16 callgsubr
          53 110 73 102 callsubr
          46 40 callgsubr
          48 44 hintmask 1100010010000000
          -105 callgsubr
          hintmask 0011101100000000
          -16 callgsubr
          -23 224 -51 callsubr
        </CharString>
        <CharString name="Udieresisgrave">
          16 callgsubr
          53 110 83 -21 130 callsubr
          194 106 46 40 callgsubr
          48 44 hintmask 1100010010000000
          -105 callgsubr
          hintmask 0011101100000000
          -16 callgsubr
          -90 154 -66 callsubr
        </CharString>
        <CharString name="Udotbelow">
          981 34 callgsubr
          56 44 617 127 callgsubr
          159 122 161 44 hintmask 01110100
          -105 callgsubr
          hintmask 10001000
          -316 -778 rmoveto
          3 callgsubr
        </CharString>
        <CharString name="Ugrave">
          16 callgsubr
          84 -21 165 -20 45 callgsubr
          hintmask 11001100
          -105 callgsubr
          hintmask 00110000
          -293 144 -66 callsubr
        </CharString>
        <CharString name="Uhookabove">
          16 callgsubr
          96 -21 201 -20 45 callgsubr
          hintmask 11001100
          -105 callgsubr
          hintmask 00110000
          -255 254 -107 callgsubr
        </CharString>
        <CharString name="Uhorn">
          52 callsubr
          122 -20 hstemhm
          193 106 439 45 9 122 hintmask 00011011
          -20 callsubr
          hintmask 00100000
          -2 -7 -8 -2 -7 hhcurveto
          hintmask 10010110
          -57 callgsubr
          hintmask 00100000
          -164 -4 rlineto
          hintmask 10010110
          -45 callgsubr
          hintmask 01000011
          371 vlineto
          72 9 59 51 70 vvcurveto
          endchar
        </CharString>
        <CharString name="Uhornacute">
          52 callsubr
          84 -21 59 -20 126 -68 callgsubr
          -262 127 -102 callgsubr
        </CharString>
        <CharString name="Uhorndotbelow">
          980 34 callgsubr
          56 81 callsubr
          122 -20 hstemhm
          193 106 130 122 187 45 9 122 hintmask 0000110011000000
          -20 callsubr
          hintmask 0001000000000000
          -2 -7 -8 -2 -7 hhcurveto
          hintmask 0100101010000000
          -57 callgsubr
          hintmask 0001000000000000
          -164 -4 rlineto
          hintmask 0100101010000000
          -45 callgsubr
          hintmask 0010000011000000
          371 vlineto
          72 9 59 51 70 vvcurveto
          hintmask 1000000100000000
          -363 -868 rmoveto
          3 callgsubr
        </CharString>
        <CharString name="Uhorngrave">
          52 callsubr
          84 -21 59 -20 126 -68 callgsubr
          -310 54 -66 callsubr
        </CharString>
        <CharString name="Uhornhookabove">
          52 callsubr
          96 -21 47 -20 174 -68 callgsubr
          -272 164 -107 callgsubr
        </CharString>
        <CharString name="Uhorntilde">
          52 callsubr
          53 110 callgsubr
          193 106 439 45 9 122 hintmask 0001000110000000
          -10 callgsubr
          hintmask 1001001100000000
          -43 callsubr
          hintmask 1001001100000000
          -45 callgsubr
          hintmask 0100000110000000
          371 vlineto
          72 9 59 51 70 vvcurveto
          hintmask 0000010000000000
          -186 88 rmoveto
          -22 24 rlineto
          hintmask 0000100000000000
          -74 callgsubr
          hintmask 0000010000000000
          -85 callgsubr
          hintmask 0000100000000000
          99 callgsubr
          hintmask 0000100000000000
          -88 callsubr
        </CharString>
        <CharString name="Uhungarumlaut">
          16 callgsubr
          84 -21 195 -20 45 callgsubr
          hintmask 11001100
          -105 callgsubr
          hintmask 00110000
          -371 256 -72 callsubr
        </CharString>
        <CharString name="Umacron">
          16 callgsubr
          73 44 45 callgsubr
          hintmask 11011000
          -105 callgsubr
          hintmask 00100000
          -152 117 -18 callsubr
        </CharString>
        <CharString name="Uogonek">
          981 71 callgsubr
          99 44 617 127 callgsubr
          207 44 191 44 hintmask 10111010
          897 639 rmoveto
          44 vlineto
          -3 -49 -70 -1 -14 hhcurveto
          -24 -64 1 3 -45 hvcurveto
          -44 vlineto
          111 0 -41 -26 hvcurveto
          -339 vlineto
          -133 -112 -78 -124 -67 -139 29 178 vhcurveto
          369 -93 callsubr
          -367 vlineto
          -133 119 -100 146 -17 vhcurveto
          -32 -34 -28 -44 -39 vvcurveto
          -38 callsubr
          hintmask 01110110
          9 callsubr
          -27 54 27 54 9 18 12 16 15 14 rrcurveto
          156 1 123 112 139 vvcurveto
          342 vlineto
          26 0 41 111 vhcurveto
          endchar
        </CharString>
        <CharString name="Upsilon">
          1028 0 44 573 88 hstem
          97 49 315 106 314 49 vstem
          930 551 rmoveto
          72 -65 82 -102 -128 -89 -108 -145 -32 vhcurveto
          -1 hlineto
          160 -35 -96 93 -118 hhcurveto
          -102 -65 -82 -72 -21 13 0 9 8 12 0 17 2 hvcurveto
          70 7 92 0 21 hhcurveto
          142 58 -157 -116 hvcurveto
          -258 vlineto
          -31 0 -11 -96 vhcurveto
          -43 -44 hlineto
          4 60 71 0 61 hhcurveto
          61 71 0 -4 60 hvcurveto
          44 -43 vlineto
          -96 113 callsubr
          258 vlineto
          117 57 156 142 26 87 -4 -62 7 vhcurveto
          -13 1 1 -8 20 hhcurveto
          9 13 0 21 hvcurveto
          endchar
        </CharString>
        <CharString name="Uring">
          16 callgsubr
          33 39 98 39 hstemhm
          194 106 95 50 150 50 97 44 hintmask 11001001
          -105 callgsubr
          hintmask 00110110
          -302 165 -46 callsubr
        </CharString>
        <CharString name="Utilde">
          16 callgsubr
          53 62 -19 62 45 callgsubr
          hintmask 11001100
          -105 callgsubr
          hintmask 00010000
          -169 178 -83 callgsubr
        </CharString>
        <CharString name="V">
          981 -1 -21 661 44 hstem
          925 639 rmoveto
          44 vlineto
          -3 -35 -40 -1 -35 hhcurveto
          -13 -71 76 callsubr
          vlineto
          50 23 -22 -21 -8 -3 -6 -3 -6 hvcurveto
          -230 -480 -241 506 rlineto
          -5 10 0 4 0 vvcurveto
          23 57 0 26 vhcurveto
          44 vlineto
          -161 -4 rlineto
          -30 -61 1 3 -52 hvcurveto
          -44 24 vlineto
          63 11 -8 -24 12 hvcurveto
          289 -605 rlineto
          -17 8 6 -7 22 hhcurveto
          22 6 7 17 8 hvcurveto
          274 575 rlineto
          42 20 37 20 68 hhcurveto
          endchar
        </CharString>
        <CharString name="W">
          154 callgsubr
          hstem
          -86 callgsubr
          endchar
        </CharString>
        <CharString name="Wacute">
          154 callgsubr
          84 -21 130 callsubr
          hintmask 11100000
          -86 callgsubr
          hintmask 00011000
          -443 217 -102 callgsubr
        </CharString>
        <CharString name="Wcircumflex">
          154 callgsubr
          139 callgsubr
          hintmask 11100000
          -86 callgsubr
          hintmask 00011000
          -459 113 -90 callsubr
          endchar
        </CharString>
        <CharString name="Wdieresis">
          154 callgsubr
          53 110 hstemhm
          490 40 callgsubr
          hintmask 11100000
          -86 callgsubr
          hintmask 00011100
          -674 39 callgsubr
        </CharString>
        <CharString name="Wgrave">
          154 callgsubr
          84 -21 130 callsubr
          hintmask 11100000
          -86 callgsubr
          hintmask 00011000
          -526 144 -66 callsubr
        </CharString>
        <CharString name="X">
          -36 callgsubr
        </CharString>
        <CharString name="Xi">
          889 0 84 97 -20 113 -21 56 84 56 -20 97 -21 86 84 hstemhm
          80 42 -35 42 73 42 400 42 73 42 -35 42 hintmask 0000011010010000
          801 505 rmoveto
          -10 170 rlineto
          -694 hlineto
          -10 -170 rlineto
          42 hlineto
          1 23 3 46 13 10 rrcurveto
          7 7 64 0 13 hhcurveto
          428 hlineto
          0 79 0 6 -8 vhcurveto
          12 -13 3 -42 1 -23 rrcurveto
          49 -324 rmoveto
          hintmask 1111100101101000
          -42 hlineto
          -2 -41 -3 -34 -11 -13 rrcurveto
          -6 -9 -85 0 0 vvcurveto
          -430 hlineto
          -7 -79 0 9 -6 hvcurveto
          -6 10 -6 15 -3 63 rrcurveto
          -42 hlineto
          10 -181 rlineto
          708 hlineto
          -112 253 rmoveto
          196 -42 -56 -400 56 -42 -196 42 56 400 -56 vlineto
          endchar
        </CharString>
        <CharString name="Y">
          981 33 callsubr
          hstem
          197 102 140 102 vstem
          -91 callgsubr
          endchar
        </CharString>
        <CharString name="Yacute">
          981 33 callsubr
          84 -21 130 callsubr
          197 102 140 102 hintmask 11001100
          -91 callgsubr
          hintmask 00110000
          -274 217 -102 callgsubr
        </CharString>
        <CharString name="Ycircumflex">
          981 33 callsubr
          139 callgsubr
          197 102 140 102 hintmask 11001100
          -91 callgsubr
          hintmask 00110000
          -290 113 -90 callsubr
          endchar
        </CharString>
        <CharString name="Ydieresis">
          981 33 callsubr
          53 110 hstemhm
          197 102 17 110 13 102 13 110 hintmask 11010100
          -91 callgsubr
          hintmask 00101010
          -505 39 callgsubr
        </CharString>
        <CharString name="Ydotbelow">
          981 33 callgsubr
          hstemhm
          197 102 130 122 -112 102 hintmask 01110100
          -91 callgsubr
          hintmask 10001000
          -380 -778 rmoveto
          3 callgsubr
        </CharString>
        <CharString name="Ygrave">
          981 33 callsubr
          84 -21 130 callsubr
          197 102 140 102 hintmask 11001100
          -91 callgsubr
          hintmask 00110000
          -357 144 -66 callsubr
        </CharString>
        <CharString name="Yhookabove">
          981 33 callsubr
          96 136 callsubr
          197 102 140 102 hintmask 11001100
          -91 callgsubr
          hintmask 00110000
          -319 254 -107 callgsubr
        </CharString>
        <CharString name="Ytilde">
          981 33 callsubr
          53 110 callgsubr
          197 102 140 102 hintmask 11001100
          -91 callgsubr
          hintmask 00010000
          -233 178 -83 callgsubr
        </CharString>
        <CharString name="Z">
          96 callsubr
          hstem
          -67 callsubr
          endchar
        </CharString>
        <CharString name="Zacute">
          96 callsubr
          84 -21 130 callsubr
          hintmask 11000000
          -67 callsubr
          hintmask 00110000
          -131 856 -102 callgsubr
        </CharString>
        <CharString name="Zcaron">
          96 callsubr
          139 callgsubr
          hintmask 11000000
          -67 callsubr
          hintmask 00110000
          -147 853 -51 callsubr
        </CharString>
        <CharString name="Zdotaccent">
          96 callsubr
          75 122 hstemhm
          348 122 hintmask 11000000
          -67 callsubr
          hintmask 00110000
          -237 819 rmoveto
          3 callgsubr
        </CharString>
        <CharString name="Zdotbelow">
          819 34 callgsubr
          78 47 592 44 hstemhm
          348 122 hintmask 01100000
          -67 callsubr
          hintmask 10010000
          -237 -139 rmoveto
          3 callgsubr
        </CharString>
        <CharString name="Zeta">
          96 callsubr
          hstem
          -67 callsubr
          endchar
        </CharString>
        <CharString name="a">
          -34 callgsubr
          15 callgsubr
          hintmask 01011110
          -106 callsubr
          hintmask 10000000
          -94 116 -22 80 77 60 31 51 31 vhcurveto
          hintmask 01000010
          -35 4 23 -42 51 hhcurveto
          7 114 0 96 hvcurveto
          -211 52 rmoveto
          hintmask 10101100
          -69 callgsubr
          endchar
        </CharString>
        <CharString name="aacute">
          -34 callgsubr
          75 -21 196 -103 callsubr
          72 411 -86 callsubr
        </CharString>
        <CharString name="abreve">
          129 callsubr
          127 -103 callsubr
          13 callsubr
          endchar
        </CharString>
        <CharString name="abreveacute">
          129 callsubr
          312 -103 callsubr
          13 callsubr
          -66 130 -102 callgsubr
        </CharString>
        <CharString name="abrevedotbelow">
          681 34 callgsubr
          67 -25 callsubr
          63 52 127 -20 hstemhm
          72 92 115 122 23 89 80 42 hintmask 0010100101100000
          -106 callsubr
          hintmask 0100000000000000
          -94 116 -22 80 77 60 31 51 31 vhcurveto
          hintmask 0010000000100000
          -35 4 23 -42 51 hhcurveto
          7 114 0 96 hvcurveto
          -211 52 rmoveto
          hintmask 0101011111000000
          -69 callgsubr
          13 callsubr
          hintmask 1000000010000000
          -129 -829 rmoveto
          3 callgsubr
        </CharString>
        <CharString name="abrevegrave">
          129 callsubr
          127 -103 callsubr
          13 callsubr
          -64 57 rmoveto
          -19 -37 -199 76 -13 6 -15 8 -4 20 rlinecurve
          28 -7 21 27 29 hhcurveto
          12 7 -4 -7 10 hvcurveto
          endchar
        </CharString>
        <CharString name="abrevehookabove">
          129 callsubr
          328 -103 callsubr
          13 callsubr
          -68 135 -107 callgsubr
        </CharString>
        <CharString name="abrevetilde">
          129 callsubr
          127 -23 callsubr
          13 callsubr
          18 121 rmoveto
          -22 24 rlineto
          hintmask 0000001000000000
          -74 callgsubr
          hintmask 0000000100000000
          -85 callgsubr
          hintmask 0000001000000000
          22 -24 rlineto
          hintmask 0000010100000000
          -74 callsubr
          hintmask 0000001000000000
          -88 callsubr
        </CharString>
        <CharString name="acaron">
          27 callgsubr
          176 -103 callsubr
          68 434 -48 callgsubr
        </CharString>
        <CharString name="acircumflex">
          27 callgsubr
          176 -103 callsubr
          68 286 -58 callsubr
          endchar
        </CharString>
        <CharString name="acircumflexacute">
          27 callgsubr
          318 -103 callsubr
          67 288 -90 callsubr
          -15 263 -102 callgsubr
        </CharString>
        <CharString name="acircumflexdotbelow">
          681 34 callgsubr
          67 -25 callsubr
          85 -21 176 -20 hstemhm
          72 92 115 122 23 89 80 42 hintmask 0010100101100000
          -106 callsubr
          hintmask 0100000000000000
          -94 116 -22 80 77 60 31 51 31 vhcurveto
          hintmask 0010000000100000
          -35 4 23 -42 51 hhcurveto
          7 114 0 96 hvcurveto
          -211 52 rmoveto
          hintmask 0101011111000000
          -69 callgsubr
          68 286 -58 callsubr
          hintmask 1000000010000000
          -78 -651 rmoveto
          3 callgsubr
        </CharString>
        <CharString name="acircumflexgrave">
          27 callgsubr
          133 -103 callsubr
          67 288 -60 callsubr
        </CharString>
        <CharString name="acircumflexhookabove">
          27 callgsubr
          334 -103 callsubr
          67 288 -90 callsubr
          104 268 -107 callgsubr
        </CharString>
        <CharString name="acircumflextilde">
          27 callgsubr
          133 -23 callsubr
          67 288 -13 callgsubr
          hintmask 0000001000000000
          -74 callgsubr
          hintmask 0000000100000000
          -85 callgsubr
          hintmask 0000001000000000
          22 -24 rlineto
          hintmask 0000010100000000
          -74 callsubr
          hintmask 0000001000000000
          -88 callsubr
        </CharString>
        <CharString name="acute">
          681 523 77 callgsubr
          hstem
          496 651 -86 callsubr
        </CharString>
        <CharString name="acute.cap">
          681 514 -21 165 -20 hstem
          507 603 -102 callgsubr
        </CharString>
        <CharString name="acute.dup">
          681 523 77 callgsubr
          hstem
          496 651 -86 callsubr
        </CharString>
        <CharString name="acute.ts1">
          680 523 -21 197 -20 hstem
          518 653 rmoveto
          24 -22 22 -25 vhcurveto
          -4 hlineto
          -20 -3 -16 -19 -13 -13 -121 -115 rcurveline
          -4 -3 -6 -5 -1 -5 rrcurveto
          -1 vlineto
          -7 15 -16 8 -10 vhcurveto
          53 30 50 34 53 30 rrcurveto
          23 15 30 10 32 vvcurveto
          endchar
        </CharString>
        <CharString name="adblgrave">
          -34 callgsubr
          76 -21 195 -103 callgsubr
          hintmask 0000110100000000
          72 288 -92 callgsubr
        </CharString>
        <CharString name="adieresis">
          -34 callgsubr
          97 110 hstemhm
          72 92 20 58 callsubr
          -72 89 80 42 hintmask 0101010011000000
          -104 callgsubr
          hintmask 0100000001000000
          -35 4 23 -42 51 hhcurveto
          7 114 0 96 hvcurveto
          -211 52 rmoveto
          hintmask 1010010010000000
          -69 callgsubr
          hintmask 0000101100000000
          -130 360 -52 callgsubr
        </CharString>
        <CharString name="adotbelow">
          681 34 callgsubr
          67 -25 callsubr
          hstemhm
          72 92 115 122 23 89 80 42 hintmask 0010110110000000
          -106 callsubr
          hintmask 0100000000000000
          -94 116 -22 80 77 60 31 51 31 vhcurveto
          hintmask 0010000010000000
          -35 4 23 -42 51 hhcurveto
          7 114 0 96 hvcurveto
          -211 52 rmoveto
          hintmask 0101011100000000
          -69 callgsubr
          hintmask 1000001000000000
          -23 -379 rmoveto
          3 callgsubr
        </CharString>
        <CharString name="ae">
          -75 callgsubr
          endchar
        </CharString>
        <CharString name="ae.dup">
          -75 callgsubr
          endchar
        </CharString>
        <CharString name="aeacute">
          -75 callgsubr
          hintmask 11100000
          187 518 -86 callsubr
        </CharString>
        <CharString name="agrave">
          -34 callgsubr
          75 -21 196 -103 callsubr
          -5 295 -56 callsubr
        </CharString>
        <CharString name="ahookabove">
          -34 callgsubr
          73 -21 201 -103 callsubr
          38 395 -107 callgsubr
        </CharString>
        <CharString name="amacron">
          -34 callgsubr
          130 44 15 callgsubr
          hintmask 01010111
          -106 callsubr
          hintmask 10000000
          -94 116 -22 80 77 60 31 51 31 vhcurveto
          hintmask 01000001
          -35 4 23 -42 51 hhcurveto
          7 114 0 96 hvcurveto
          -211 52 rmoveto
          hintmask 10100110
          -69 callgsubr
          hintmask 00001000
          141 338 -18 callsubr
        </CharString>
        <CharString name="ampersand">
          1028 -22 44 365 44 252 33 hstem
          80 100 50 82 6 42 119 42 367 42 vstem
          936 387 rmoveto
          44 vlineto
          -4 -44 -25 0 -42 hhcurveto
          -51 -56 2 2 -32 hvcurveto
          -44 vlineto
          39 25 -13 -22 -11 -5 -7 -3 -3 hvcurveto
          -67 -93 -60 -66 -58 -51 -83 81 -71 84 -43 88 rrcurveto
          40 32 121 96 78 vvcurveto
          55 -35 81 -83 -79 -94 -60 -111 -79 25 -76 20 -43 vhcurveto
          -119 -95 rlineto
          -38 -30 -38 -31 -58 vvcurveto
          -99 106 -56 120 104 76 45 26 41 vhcurveto
          -21 35 84 -50 107 hhcurveto
          87 87 49 94 3 hvcurveto
          -42 hlineto
          -79 -4 -83 -20 -45 hhcurveto
          -69 -57 36 36 -43 hvcurveto
          72 63 55 69 47 63 41 53 rcurveline
          5 5 35 40 94 hhcurveto
          -457 193 rmoveto
          -43 -36 -50 -96 -81 vhcurveto
          -35 80 0 70 14 vvcurveto
          91 63 22 30 52 22 -62 -41 vhcurveto
          13 -505 rmoveto
          -32 -53 -59 -21 -62 hhcurveto
          -87 -51 71 68 68 38 31 37 30 hvcurveto
          23 18 2 0 9 9 13 -25 69 -128 121 -89 rrcurveto
          endchar
        </CharString>
        <CharString name="anglearc">
          1028 -146 -21 834 -20 hstem
          720 56 vstem
          930 28 rmoveto
          13 -9 11 -11 3 vhcurveto
          -152 43 rlineto
          12 50 6 51 51 vvcurveto
          51 -6 51 -12 50 vhcurveto
          152 43 rlineto
          11 3 9 11 13 vvcurveto
          19 -18 13 -18 -5 vhcurveto
          -151 -43 -24 72 -37 68 -48 60 rlinecurve
          7 -5 -8 4 -9 hhcurveto
          -16 -12 -13 -15 -7 2 -6 4 -4 hvcurveto
          44 -55 33 -61 22 -66 -572 -163 rcurveline
          -11 -3 -9 -11 -13 vvcurveto
          -13 9 -11 11 -3 vhcurveto
          572 -163 -22 -66 -33 -61 -44 -55 rlinecurve
          -4 -4 -2 -6 -7 vvcurveto
          -15 12 -13 16 9 8 4 7 5 vhcurveto
          48 60 37 68 24 72 151 -43 rcurveline
          18 -5 18 13 19 vvcurveto
          -210 222 rmoveto
          -46 -5 -46 -11 -44 vhcurveto
          -477 136 477 136 rlineto
          11 -44 5 -46 -46 vvcurveto
          endchar
        </CharString>
        <CharString name="angleleft">
          542 -228 -21 1000 -20 hstem
          444 128 callgsubr
          -20 -3 -7 -28 -8 -16 -169 -360 rcurveline
          -10 -21 -10 -20 -9 -21 rrcurveto
          -5 -10 -6 -10 -11 vvcurveto
          2 -21 20 -31 11 -24 56 -125 63 -123 56 -125 rrcurveto
          -21 10 8 -29 24 hhcurveto
          16 11 14 13 12 -7 14 -6 11 hvcurveto
          -171 364 -8 17 -8 16 -7 17 rlinecurve
          -3 7 -6 8 7 vvcurveto
          12 10 11 4 10 vhcurveto
          186 396 rlineto
          6 14 11 15 14 vvcurveto
          endchar
        </CharString>
        <CharString name="angleright">
          542 -228 -21 999 -20 21 -20 hstemhm
          hintmask 00100000
          375 251 rmoveto
          11 -7 10 -4 9 vhcurveto
          -117 248 -81 174 rlineto
          18 -8 -10 30 -23 hhcurveto
          hintmask 11000000
          -6 -1 rlineto
          -4 -3 -2 -2 -3 hvcurveto
          -6 -6 rlineto
          -4 -5 -1 -6 -5 vvcurveto
          -10 4 -9 5 -9 vhcurveto
          63 -140 71 -139 63 -140 rrcurveto
          3 -8 7 -9 -9 vvcurveto
          -10 -8 -13 -5 -9 vhcurveto
          -195 -415 rlineto
          -5 -8 -3 -8 -9 vvcurveto
          -15 11 -13 17 vhcurveto
          23 1 7 26 8 17 171 364 rcurveline
          28 60 rlineto
          5 10 7 11 11 vvcurveto
          endchar
        </CharString>
        <CharString name="aogonek">
          681 -11 33 -28 44 377 33 15 callgsubr
          hintmask 01111100
          -106 callsubr
          hintmask 10000000
          -94 116 -22 80 77 60 31 51 31 vhcurveto
          2 -20 9 -22 16 -15 rrcurveto
          -43 -31 -55 -65 49 callgsubr
          14 callsubr
          -5 107 103 64 rrcurveto
          hintmask 01000100
          -1 4 4 0 5 hhcurveto
          7 114 0 96 hvcurveto
          -211 52 rmoveto
          hintmask 10011000
          -69 callgsubr
          endchar
        </CharString>
        <CharString name="aogonekacute">
          681 -11 33 -28 44 377 33 75 -21 196 -20 15 callgsubr
          hintmask 01100111
          -106 callsubr
          hintmask 10000000
          -94 116 -22 80 77 60 31 51 31 vhcurveto
          2 -20 9 -22 16 -15 rrcurveto
          -43 -31 -55 -65 49 callgsubr
          14 callsubr
          -5 107 103 64 rrcurveto
          hintmask 01000001
          -1 4 4 0 5 hhcurveto
          7 114 0 96 hvcurveto
          -211 52 rmoveto
          hintmask 10000110
          -69 callgsubr
          hintmask 00011000
          72 411 -86 callsubr
        </CharString>
        <CharString name="aring">
          -34 callgsubr
          81 39 98 39 hstemhm
          72 92 51 50 150 50 -41 89 80 42 hintmask 0101001001100000
          -104 callgsubr
          hintmask 0100000000100000
          -35 4 23 -42 51 hhcurveto
          7 114 0 96 hvcurveto
          -211 52 rmoveto
          hintmask 1010001001000000
          -69 callgsubr
          hintmask 0000110110000000
          -9 377 -46 callsubr
        </CharString>
        <CharString name="aringacute">
          -34 callgsubr
          81 39 98 39 57 39 89 -20 hstemhm
          72 92 51 50 150 50 -41 89 80 42 hintmask 0101000010011000
          -104 callgsubr
          hintmask 0100000000001000
          -35 4 23 -42 51 hhcurveto
          7 114 0 96 hvcurveto
          -211 52 rmoveto
          hintmask 1010000010010000
          -69 callgsubr
          hintmask 0000111101100000
          -9 377 -73 callsubr
          -1 219 -102 callgsubr
        </CharString>
        <CharString name="asciicircum">
          556 583 -21 123 59 hstem
          -5 566 vstem
          561 584 rmoveto
          -283 160 -283 -160 11 -22 271 123 272 -123 rlineto
          endchar
        </CharString>
        <CharString name="asciitilde">
          556 193 43 -25 43 -8 43 -25 43 hstemhm
          hintmask 10010000
          555 290 60 callsubr
          hintmask 01000000
          41 callsubr
          hintmask 00100000
          20 10 20 11 17 14 rrcurveto
          endchar
        </CharString>
        <CharString name="asciitilde.low">
          556 0 43 -25 43 -8 43 -25 43 hstemhm
          0 555 hintmask 10010000
          555 97 60 callsubr
          hintmask 01001000
          41 callsubr
          hintmask 00101000
          20 10 20 11 17 14 rrcurveto
          endchar
        </CharString>
        <CharString name="asterisk">
          681 340 -21 431 -20 hstem
          304 72 vstem
          569 443 rmoveto
          24 -15 5 -14 5 vhcurveto
          -159 57 160 58 rlineto
          11 4 17 6 24 vvcurveto
          20 -16 17 -19 -3 -8 0 -7 -11 vhcurveto
          -155 -95 19 157 rlineto
          15 -14 17 -22 -22 -14 -17 -15 -4 0 -2 2 -13 vhcurveto
          17 -138 -155 94 rlineto
          7 -11 -2 1 -9 hhcurveto
          -19 -16 -17 -20 -24 15 -5 14 -5 hvcurveto
          159 -57 -160 -58 rlineto
          -11 -4 -17 -6 -24 vvcurveto
          -20 16 -17 19 3 8 0 7 11 vhcurveto
          155 95 -19 -157 rlineto
          -15 14 -17 22 22 14 17 15 5 0 2 -2 13 vhcurveto
          -17 137 155 -94 rlineto
          -7 11 2 -1 9 hhcurveto
          19 16 17 20 hvcurveto
          endchar
        </CharString>
        <CharString name="asterisk.math">
          680 57 -21 430 -20 hstem
          304 35 -31 63 -31 35 cntrmask 00111000
          568 161 rmoveto
          30 -32 5 -21 7 vhcurveto
          -133 48 133 48 rlineto
          21 7 32 5 30 vvcurveto
          20 -16 19 -20 -12 -10 -9 -6 -10 vhcurveto
          -39 -24 -35 -21 -35 -20 -34 -22 rlinecurve
          3 41 7 40 4 41 rrcurveto
          1 9 3 11 11 vvcurveto
          21 -16 14 -20 -16 -16 -9 -18 -3 vhcurveto
          -4 vlineto
          -6 1 -6 1 -6 vhcurveto
          3 -30 5 -36 5 -37 3 -36 rlinecurve
          -34 22 -35 20 -35 21 -39 24 rcurveline
          6 -10 -10 9 -12 hhcurveto
          -20 -16 -19 -20 -30 32 -5 21 -7 hvcurveto
          133 -48 -133 -48 rlineto
          -21 -7 -32 -5 -30 vvcurveto
          -20 16 -19 20 12 10 9 6 10 vhcurveto
          39 24 35 21 35 20 34 22 rlinecurve
          -3 -41 -7 -40 -4 -41 rrcurveto
          -1 -9 -3 -11 -11 vvcurveto
          -21 16 -14 20 16 16 9 18 3 vhcurveto
          4 vlineto
          6 -1 6 -1 6 vhcurveto
          -3 30 -5 36 -5 37 -3 36 rlinecurve
          34 -22 35 -20 35 -21 39 -24 rcurveline
          -6 10 10 -9 12 hhcurveto
          20 16 19 20 hvcurveto
          endchar
        </CharString>
        <CharString name="at">
          1028 -11 33 104 33 62 33 281 33 104 33 hstemhm
          97 42 125 89 321 89 -72 42 155 42 hintmask 1110110101000000
          930 73 rmoveto
          14 -13 0 -15 vhcurveto
          -13 hlineto
          -15 -2 0 -8 -23 hvcurveto
          -44 -128 -114 -13 -88 hhcurveto
          -231 -149 161 164 175 163 150 211 202 173 -139 -191 -26 0 -157 -86 -39 0 50 12 hvcurveto
          234 vlineto
          hintmask 1101111011000000
          27 -1 2 -29 vhcurveto
          -42 hlineto
          55 -46 -63 29 -70 hhcurveto
          -135 -113 -99 -122 -123 113 -98 135 100 58 61 6 6 hvcurveto
          -67 21 89 0 9 hhcurveto
          124 11 164 54 203 -188 158 -228 -238 -179 -167 -191 -180 164 -178 259 218 173 67 4 9 hvcurveto
          7 2 3 6 5 vvcurveto
          -256 181 rmoveto
          -72 -42 -68 -23 -49 hhcurveto
          -91 -71 85 103 103 71 85 91 hvcurveto
          hintmask 0010000100000000
          49 68 -24 -71 42 hvcurveto
          endchar
        </CharString>
        <CharString name="atilde">
          -34 callgsubr
          100 62 -19 62 -105 callsubr
          hintmask 0000010000000000
          124 389 rmoveto
          -22 24 rlineto
          hintmask 0000100000000000
          -74 callgsubr
          hintmask 0000010000000000
          -85 callgsubr
          hintmask 0000100000000000
          99 callgsubr
          hintmask 0000100000000000
          -88 callsubr
        </CharString>
        <CharString name="b">
          750 -11 33 387 33 197 55 hstem
          159 85 333 100 vstem
          100 callgsubr
          308 vlineto
          -168 -58 callgsubr
          -583 11 callsubr
        </CharString>
        <CharString name="backslash">
          736 750 -20 hstem
          611 -222 rmoveto
          5 -2 7 -3 6 vhcurveto
          -424 930 rlineto
          10 -5 -6 14 -18 hhcurveto
          -16 -12 -13 -15 -5 2 -7 3 -6 hvcurveto
          424 -930 rlineto
          -10 5 6 -14 18 hhcurveto
          16 12 13 15 hvcurveto
          endchar
        </CharString>
        <CharString name="baht">
          935 -44 44 0 44 295 33 267 44 0 44 hstemhm
          198 98 141 44 212 109 -78 113 hintmask 0000101100000000
          837 185 rmoveto
          71 -72 81 -162 21 vhcurveto
          101 16 98 58 80 vvcurveto
          93 -124 78 -149 vhcurveto
          -48 44 hlineto
          12 -9 10 -13 -12 -10 -10 -12 vhcurveto
          -44 -350 vlineto
          hintmask 0101011000000000
          -44 30 vlineto
          81 0 -10 -31 hvcurveto
          -513 -70 callgsubr
          350 hlineto
          hintmask 1011001010000000
          -44 vlineto
          -12 10 -10 12 13 9 10 12 vhcurveto
          44 81 vlineto
          154 121 86 99 hvcurveto
          -144 326 rmoveto
          -73 -88 -66 -110 vhcurveto
          -14 267 41 hlineto
          hintmask 0111011100000000
          107 64 -66 -62 hvcurveto
          -256 -139 rmoveto
          -141 229 hlineto
          31 0 7 49 vhcurveto
          92 hlineto
          287 -453 rmoveto
          -75 -83 -67 -117 vhcurveto
          -43 295 51 hlineto
          hintmask 0110011010000000
          134 58 -88 -65 hvcurveto
          -287 -142 rmoveto
          -92 hlineto
          -49 0 7 31 hvcurveto
          257 141 vlineto
          endchar
        </CharString>
        <CharString name="bar">
          458 750 -20 hstem
          201 56 vstem
          257 -209 rmoveto
          30 callsubr
          endchar
        </CharString>
        <CharString name="bigcircle">
          683 0 56 571 56 hstem
          0 56 571 56 vstem
          -55 callsubr
          endchar
        </CharString>
        <CharString name="blanksymbol">
          750 -11 33 387 33 -33 55 -1 55 121 55 -33 33 hstemhm
          159 85 333 100 hintmask 01001010
          100 callgsubr
          140 vlineto
          131 96 rlineto
          6 4 3 6 7 vvcurveto
          hintmask 00000110
          12 -10 10 -12 -5 -4 -1 -3 -4 vhcurveto
          -105 -77 rlineto
          114 vlineto
          -168 -11 rlineto
          hintmask 00011010
          -47 callsubr
          -65 vlineto
          hintmask 00100000
          -74 -54 rlineto
          -5 -4 -4 133 callgsubr
          hintmask 11010011
          48 35 rlineto
          -463 11 callsubr
        </CharString>
        <CharString name="braceleft">
          91 callgsubr
          -233 rmoveto
          0 0 15 -15 1 vhcurveto
          -108 4 -43 38 -12 36 rrcurveto
          -3 12 0 6 18 vvcurveto
          155 vlineto
          32 0 55 -2 9 vhcurveto
          -14 65 -59 26 -44 11 rrcurveto
          93 24 26 50 58 vvcurveto
          186 vlineto
          71 0 17 39 28 vhcurveto
          36 25 55 7 25 1 rrcurveto
          17 1 9 0 15 vvcurveto
          17 -10 0 -20 -59 -163 -10 -108 -14 vhcurveto
          -1 -7 0 -2 -31 vvcurveto
          -180 vlineto
          -58 0 -21 -34 -28 vhcurveto
          -36 -45 -66 -2 -20 hhcurveto
          -9 -7 -5 -12 -16 11 -1 13 hvcurveto
          89 -2 67 -43 1 -57 rrcurveto
          -211 vlineto
          -58 0 -47 69 -34 vhcurveto
          -27 56 76 -4 36 hhcurveto
          20 10 0 17 hvcurveto
          endchar
        </CharString>
        <CharString name="braceright">
          91 callgsubr
          250 rmoveto
          16 -11 1 -13 vhcurveto
          -89 2 -67 43 -1 57 rrcurveto
          211 vlineto
          58 0 47 -69 34 vhcurveto
          27 -56 -76 4 -36 hhcurveto
          -19 -11 0 -17 0 0 -15 15 -1 hvcurveto
          108 -4 43 -38 12 -36 rrcurveto
          3 -12 0 -6 -18 vvcurveto
          -155 vlineto
          -32 0 -55 2 -9 vhcurveto
          14 -65 59 -26 44 -11 rrcurveto
          -93 -24 -26 -50 -58 vvcurveto
          -186 vlineto
          -71 0 -17 -39 -28 vhcurveto
          -36 -25 -55 -7 -25 -1 rrcurveto
          -17 -1 -9 0 -15 vvcurveto
          -17 11 0 19 59 163 10 108 14 vhcurveto
          1 7 0 2 31 vvcurveto
          180 vlineto
          58 0 21 34 28 vhcurveto
          36 45 66 2 20 hhcurveto
          9 7 5 12 hvcurveto
          endchar
        </CharString>
        <CharString name="bracketleft">
          132 callsubr
          347 -250 rmoveto
          56 -118 888 118 56 -174 -1000 vlineto
          endchar
        </CharString>
        <CharString name="bracketright">
          132 callsubr
          229 -250 rmoveto
          1000 -174 -56 118 -888 -118 -56 vlineto
          endchar
        </CharString>
        <CharString name="breve">
          149 callsubr
          127 -20 hstem
          530 690 -97 callgsubr
          endchar
        </CharString>
        <CharString name="breve.cap">
          681 493 52 127 -20 hstem
          530 672 -97 callgsubr
          endchar
        </CharString>
        <CharString name="breve.ts1">
          819 515 52 128 -20 hstem
          150 34 450 34 vstem
          668 695 rmoveto
          -34 hlineto
          -117 -165 -11 -65 -87 -133 23 105 vhcurveto
          -34 hlineto
          -131 150 -49 107 109 152 46 134 vhcurveto
          endchar
        </CharString>
        <CharString name="brokenbar">
          458 750 -20 hstem
          201 56 vstem
          257 342 rmoveto
          367 vlineto
          14 0 27 -28 -28 0 -27 -14 vhcurveto
          -367 vlineto
          -14 14 -8 14 14 14 8 14 vhcurveto
          -551 vmoveto
          367 vlineto
          14 -14 8 -14 -14 -14 -8 -14 vhcurveto
          -367 vlineto
          44 callsubr
          endchar
        </CharString>
        <CharString name="bullet">
          1028 67 294 hstem
          367 294 79 callgsubr
          endchar
        </CharString>
        <CharString name="c">
          83 callgsubr
          hstem
          72 100 255 106 vstem
          -62 callsubr
          endchar
        </CharString>
        <CharString name="cacute">
          83 callgsubr
          70 callsubr
          72 100 255 106 hintmask 11001100
          -62 callsubr
          hintmask 00110000
          -55 531 -86 callsubr
        </CharString>
        <CharString name="caron">
          681 95 callgsubr
          492 674 -48 callgsubr
        </CharString>
        <CharString name="caron.cap">
          122 callsubr
          -20 hstem
          491 600 -51 callsubr
        </CharString>
        <CharString name="caron.ts1">
          819 569 -21 166 -20 hstem
          643 676 rmoveto
          -18 38 -216 -99 -65 29 -151 70 -18 -38 234 -128 rlineto
          endchar
        </CharString>
        <CharString name="ccaron">
          83 callgsubr
          85 -21 176 -20 hstemhm
          72 100 255 106 hintmask 11001100
          -62 callsubr
          hintmask 00110000
          -59 554 -48 callgsubr
        </CharString>
        <CharString name="ccedilla">
          83 callgsubr
          hstemhm
          72 100 248 100 -100 106 -99 106 hintmask 11101000
          547 120 rmoveto
          14 -15 0 -6 -16 -1 -3 -12 -5 vhcurveto
          -83 -34 -73 -11 -44 hhcurveto
          -86 -95 58 134 44 9 55 37 42 hvcurveto
          54 48 59 0 31 hhcurveto
          30 28 0 -9 35 hvcurveto
          hintmask 01100100
          -14 -10 -8 -16 -18 vvcurveto
          -33 25 -20 28 24 29 16 38 85 -111 3 -70 -196 -84 -132 -100 -111 94 -94 128 -19 vhcurveto
          -100 vlineto
          hintmask 00010000
          55 71 79 callsubr
          57 vlineto
          140 16 29 105 8 vvcurveto
          endchar
        </CharString>
        <CharString name="ccircumflex">
          83 callgsubr
          85 -21 176 -20 hstemhm
          72 100 255 106 hintmask 11001100
          -62 callsubr
          hintmask 00110000
          -59 406 -58 callsubr
          endchar
        </CharString>
        <CharString name="cdotaccent">
          83 callgsubr
          91 122 hstemhm
          72 100 103 122 30 106 hintmask 11010100
          -62 callsubr
          hintmask 00101000
          -150 480 rmoveto
          3 callgsubr
        </CharString>
        <CharString name="cedilla">
          20 callsubr
        </CharString>
        <CharString name="cedilla.dup">
          20 callsubr
        </CharString>
        <CharString name="cent">
          158 callgsubr
          385 36 -34 36 hstemhm
          72 100 142 44 69 106 hintmask 10101100
          547 120 rmoveto
          14 -15 0 -6 -16 -1 -3 -12 -5 vhcurveto
          -33 -80 -69 -13 -44 -1 rrcurveto
          387 vlineto
          29 28 0 -9 34 114 callsubr
          83 -105 5 -70 vhcurveto
          27 vlineto
          12 -10 10 -12 -12 -10 -10 -12 vhcurveto
          hintmask 11011000
          -29 vlineto
          -169 -16 -73 -121 -93 vvcurveto
          -117 104 -98 138 -11 vhcurveto
          -34 108 callgsubr
          33 vlineto
          157 9 32 113 9 vvcurveto
          -233 -91 rmoveto
          -73 15 -69 59 114 vvcurveto
          44 9 55 37 42 vhcurveto
          31 35 35 12 30 5 rrcurveto
          endchar
        </CharString>
        <CharString name="cent.oldstyle">
          158 callgsubr
          386 36 -35 36 hstemhm
          72 100 0 106 -29 106 72 106 hintmask 11000010
          547 120 rmoveto
          14 -15 0 -6 -16 -1 -3 -12 -5 vhcurveto
          -83 -34 -73 -11 -44 hhcurveto
          -21 -22 4 7 -21 hvcurveto
          101 375 rlineto
          19 19 -2 -6 21 114 callsubr
          67 -69 16 -64 4 vhcurveto
          6 22 rlineto
          14 4 -11 14 -14 hhcurveto
          -10 -9 -7 -10 -3 hvcurveto
          hintmask 00110100
          -8 -32 rlineto
          -3 hlineto
          -196 -84 -132 -100 -93 66 -82 97 -34 hvcurveto
          -12 -45 rlineto
          -14 -4 11 -14 14 hhcurveto
          11 8 7 9 3 hvcurveto
          hintmask 10001000
          12 45 rlineto
          -4 20 20 -2 22 hhcurveto
          173 34 122 9 hvcurveto
          -202 292 rmoveto
          hintmask 00110100
          -96 -356 rlineto
          -44 30 -33 53 78 vvcurveto
          44 9 55 37 42 vhcurveto
          43 48 51 5 33 1 rrcurveto
          endchar
        </CharString>
        <CharString name="centigrade">
          1236 -21 45 383 45 -45 56 165 56 -24 46 hstemhm
          375 117 hintmask 11001100
          1138 238 rmoveto
          7 vlineto
          12 -2 -11 1 -10 hhcurveto
          -9 -10 -2 -15 hvcurveto
          -8 vlineto
          -137 -11 -136 -72 -125 hhcurveto
          -116 -123 54 102 -55 hvcurveto
          -26 50 -12 55 56 vvcurveto
          63 14 66 35 54 vhcurveto
          92 61 113 44 106 hhcurveto
          130 109 -82 -126 29 hvcurveto
          -20 2 1 -18 24 hhcurveto
          21 1 9 13 hvcurveto
          251 vlineto
          9 -3 10 -13 -19 -19 -35 -16 -11 vhcurveto
          -10 -13 -11 -12 -8 -14 -18 13 -17 15 -20 12 -50 30 -56 17 -58 3 rrcurveto
          -16 hlineto
          -178 -182 -92 -182 -61 hvcurveto
          -8 -27 -5 -28 -28 vvcurveto
          -243 234 -127 201 140 169 78 165 18 vhcurveto
          1 6 0 5 5 vvcurveto
          -832 308 rmoveto
          hintmask 01010000
          71 -57 67 -84 vhcurveto
          -9 hlineto
          -72 -10 -55 -57 -72 vvcurveto
          -71 58 -67 83 vhcurveto
          8 hlineto
          74 6 54 63 70 vvcurveto
          -56 hmoveto
          hintmask 00110000
          -44 -38 -39 -44 -44 -33 35 41 -6 vhcurveto
          6 vlineto
          44 38 39 44 44 33 -35 -41 6 vhcurveto
          endchar
        </CharString>
        <CharString name="circumflex">
          681 95 callgsubr
          492 526 -58 callsubr
          endchar
        </CharString>
        <CharString name="circumflex.cap">
          122 callsubr
          -20 hstem
          491 499 -90 callsubr
          endchar
        </CharString>
        <CharString name="circumflex.dup">
          681 95 callgsubr
          492 526 -58 callsubr
          endchar
        </CharString>
        <CharString name="colon">
          403 0 122 187 22 callsubr
          370 -100 callsubr
          -309 vmoveto
          3 callgsubr
        </CharString>
        <CharString name="colonmonetary">
          958 -66 44 0 44 639 44 0 44 hstemhm
          97 117 291 44 267 44 -42 42 hintmask 01100101
          860 234 rmoveto
          16 -4 5 -17 -11 -9 0 -17 -1 vhcurveto
          -152 -8 -144 -64 -117 hhcurveto
          639 vlineto
          hintmask 00100110
          90 -1 145 -48 32 -185 rrcurveto
          26 callgsubr
          -53 callsubr
          -57 48 -71 36 -89 4 rlinecurve
          23 vlineto
          hintmask 10011110
          12 -10 10 -12 -12 -10 -10 -12 vhcurveto
          -23 vlineto
          -230 -10 -178 -163 -189 vvcurveto
          -191 177 -162 231 -10 vhcurveto
          -23 108 callgsubr
          22 vlineto
          183 8 128 119 129 vvcurveto
          -355 -210 rmoveto
          -135 15 -156 85 218 vvcurveto
          216 154 86 137 15 vhcurveto
          endchar
        </CharString>
        <CharString name="comma">
          403 -173 141 callsubr
          168 33 42 33 vstem
          276 10 rmoveto
          63 -27 49 -48 -39 -22 -30 -31 -31 22 -30 39 26 16 15 0 -72 -29 -60 -54 -45 vhcurveto
          -8 -7 -1 -1 -7 vvcurveto
          -9 10 -8 7 14 94 78 126 vhcurveto
          endchar
        </CharString>
        <CharString name="copyleft">
          683 0 56 571 56 hstem
          0 56 571 56 vstem
          -55 callsubr
          -102 hmoveto
          84 -82 71 -103 -42 -33 -16 -22 -26 vhcurveto
          -25 33 rlineto
          3 -3 -1 2 -4 hhcurveto
          -7 0 -5 -7 hvcurveto
          -100 vlineto
          -9 0 -3 9 4 5 0 5 1 vhcurveto
          80 13 63 20 38 hhcurveto
          62 81 -35 -101 -103 -82 -34 -61 -50 -62 28 64 -3 hvcurveto
          8 -1 -4 0 -4 hhcurveto
          -8 -1 -2 -7 -57 58 -53 83 103 82 71 85 hvcurveto
          endchar
        </CharString>
        <CharString name="copyright">
          683 0 56 571 56 hstem
          0 56 571 56 vstem
          -55 callsubr
          -143 -46 rmoveto
          7 -1 2 -7 -5 -4 0 -8 vhcurveto
          -64 -4 -62 -28 -50 hhcurveto
          -60 -82 34 103 101 80 35 62 38 63 -20 -80 14 hvcurveto
          -5 1 5 0 3 hhcurveto
          9 0 3 9 hvcurveto
          100 vlineto
          7 0 5 -6 -5 -1 -2 -3 -2 vhcurveto
          -26 -33 rlineto
          22 -26 -33 16 -42 hhcurveto
          -103 -81 -71 -84 -85 81 -70 104 82 58 52 57 hvcurveto
          endchar
        </CharString>
        <CharString name="copyright.alt">
          805 -187 56 519 56 118 56 hstem
          0 56 693 56 vstem
          805 215 rmoveto
          247 -155 156 -247 -247 -156 -156 -247 -247 156 -155 247 247 155 155 247 vhcurveto
          -56 hmoveto
          -212 -134 -134 -212 -213 -134 134 212 213 134 134 213 212 134 -134 -213 vhcurveto
          -122 -68 rmoveto
          11 -3 3 -10 -7 -6 0 -11 -1 vhcurveto
          -96 -5 -91 -40 -74 hhcurveto
          -89 -121 49 152 150 118 51 92 56 93 -30 -117 20 hvcurveto
          -8 1 8 0 5 hhcurveto
          14 0 5 13 hvcurveto
          148 vlineto
          10 0 7 -10 -6 -2 -2 -5 -4 vhcurveto
          -37 -49 rlineto
          33 -39 -48 23 -63 hhcurveto
          -152 -120 -105 -124 -124 120 -105 153 122 86 78 83 hvcurveto
          endchar
        </CharString>
        <CharString name="currency">
          1028 -12 56 412 56 hstem
          252 56 411 56 vstem
          809 -45 rmoveto
          20 20 -20 19 -9 10 -82 82 rcurveline
          36 45 21 57 62 vvcurveto
          62 -21 57 -37 45 vhcurveto
          83 82 9 10 19 19 -20 20 rlinecurve
          -20 19 -19 -19 -9 -9 -82 -82 rcurveline
          36 -45 -57 22 -62 hhcurveto
          -62 -57 -22 -36 -45 hvcurveto
          -82 82 -10 10 -19 19 -20 -20 rlinecurve
          -20 -20 19 -19 10 -10 82 -82 rcurveline
          -36 -45 -22 -57 -62 vvcurveto
          -62 22 -57 36 -45 vhcurveto
          -83 -82 -9 -10 -19 -19 20 -20 rlinecurve
          20 -19 19 19 9 9 83 82 rcurveline
          -36 44 58 -22 62 hhcurveto
          62 57 22 36 45 hvcurveto
          82 -81 10 -10 19 -19 20 19 rlinecurve
          -90 295 rmoveto
          -114 -92 -92 -113 -114 -92 92 114 114 92 92 114 113 92 -92 -114 vhcurveto
          endchar
        </CharString>
        <CharString name="cwm">
          0 endchar
        </CharString>
        <CharString name="cwmascender">
          0 endchar
        </CharString>
        <CharString name="cwmcapital">
          0 endchar
        </CharString>
        <CharString name="d">
          750 -11 101 callsubr
          333 85 hintmask 0010001010000000
          56 callgsubr
          hintmask 0100110110000000
          -16 callsubr
          hintmask 0010000000000000
          120 vmoveto
          hintmask 1001000100000000
          -21 callgsubr
          endchar
        </CharString>
        <CharString name="dagger">
          667 388 86 -15 86 160 -20 hstemhm
          291 86 hintmask 10000000
          543 431 rmoveto
          153 callgsubr
          -32 -8 -9 -1 -19 -2 rrcurveto
          hintmask 01110000
          2 31 8 46 5 22 rrcurveto
          5 27 9 49 34 vvcurveto
          36 -19 14 -24 -21 -22 -11 -39 -34 9 -44 6 -32 vhcurveto
          2 -15 10 -53 2 -31 -23 2 -4 1 -37 10 rrcurveto
          hintmask 10010000
          12 -46 -22 3 -16 87 callgsubr
          -2 -23 0 -6 -13 -54 rrcurveto
          -13 -55 0 -10 -49 vvcurveto
          -190 18 -202 4 -26 vhcurveto
          -12 1 3 -5 17 hhcurveto
          7 12 0 11 2 hvcurveto
          3 25 19 216 183 vvcurveto
          50 0 9 -13 55 vhcurveto
          -13 54 0 6 -2 23 90 callsubr
        </CharString>
        <CharString name="daggerdbl">
          667 -21 86 370 86 -43 86 141 -20 hstemhm
          291 86 hintmask 01000000
          543 478 rmoveto
          24 -18 19 -25 -27 -26 -6 -10 -36 vhcurveto
          -8 -2 -30 -8 -24 -3 rrcurveto
          hintmask 00111000
          1 17 2 16 9 39 rrcurveto
          7 25 9 40 28 vvcurveto
          47 -38 1 -5 -7 -36 -2 -46 -25 8 -36 7 -29 vhcurveto
          10 -43 1 -10 2 -22 -24 3 -30 8 -10 2 rrcurveto
          hintmask 01000000
          10 -35 -26 6 -26 hhcurveto
          hintmask 00100000
          -24 -19 -19 -24 hvcurveto
          hintmask 01001000
          -22 11 -21 37 13 15 0 15 55 vhcurveto
          8 2 31 8 24 3 -1 -17 -2 -16 -9 -39 rrcurveto
          -7 -25 -9 -40 -28 vvcurveto
          -47 38 -1 5 7 36 2 46 25 -8 36 -7 29 vhcurveto
          -10 43 -1 10 -2 22 24 -3 30 -8 10 -2 rrcurveto
          -15 54 15 0 13 hhcurveto
          hintmask 10101000
          35 13 19 24 hvcurveto
          -456 vmoveto
          153 callgsubr
          -31 -8 -11 -1 -17 -2 1 13 1 17 9 36 rrcurveto
          7 27 10 41 30 vvcurveto
          47 -38 1 -5 -7 -36 -2 -46 -27 8 -38 8 -31 vhcurveto
          10 -39 1 -12 1 -17 -19 2 -9 1 -36 10 rrcurveto
          10 -37 -25 5 -21 87 callgsubr
          -1 -13 -1 -17 -9 -36 rrcurveto
          -7 -27 -10 -41 -30 vvcurveto
          -47 38 -1 5 7 36 2 46 27 -8 38 -8 31 vhcurveto
          -10 39 -1 12 -1 17 90 callsubr
        </CharString>
        <CharString name="dblbracketleft">
          559 -249 56 888 56 hstem
          172 56 100 56 vstem
          503 -249 rmoveto
          56 -119 888 119 56 -331 -1000 vlineto
          156 56 rmoveto
          -100 888 100 hlineto
          endchar
        </CharString>
        <CharString name="dblbracketright">
          559 -249 56 888 56 hstem
          174 56 100 56 vstem
          386 -249 rmoveto
          1000 -330 -56 118 -888 -118 -56 vlineto
          274 56 rmoveto
          -100 888 100 hlineto
          endchar
        </CharString>
        <CharString name="dblgrave.ts1">
          131 callgsubr
          285 533 rmoveto
          143 callsubr
          50 callgsubr
          208 hmoveto
          143 callsubr
          hintmask 00100000
          50 callgsubr
          endchar
        </CharString>
        <CharString name="dblverticalbar">
          626 750 -20 hstem
          201 56 112 56 vstem
          257 -209 rmoveto
          30 callsubr
          168 hmoveto
          30 callsubr
          endchar
        </CharString>
        <CharString name="dcaron">
          750 -11 59 callsubr
          36 -21 146 91 -55 139 callsubr
          333 85 hintmask 0010000010100000
          56 callgsubr
          hintmask 0100100101100000
          -16 callsubr
          hintmask 0010000000000000
          120 vmoveto
          hintmask 1001000011000000
          -21 callgsubr
          237 275 rmoveto
          -33 callgsubr
          vhcurveto
          hintmask 0000011000000000
          -23 17 -22 29 20 12 11 0 -54 -22 -45 -41 -34 vhcurveto
          -6 -5 0 -1 -5 vvcurveto
          -7 7 -6 5 60 callgsubr
          vhcurveto
          endchar
        </CharString>
        <CharString name="dcroat">
          750 -11 59 callsubr
          77 44 76 139 callsubr
          333 85 hintmask 0010010101000000
          673 82 callgsubr
          419 83 44 -83 131 vlineto
          hintmask 0100111011000000
          -168 -58 callgsubr
          -20 -205 -44 205 -131 vlineto
          19 -22 -54 35 -83 hhcurveto
          -150 -124 -101 -126 -121 113 -105 149 82 57 36 24 28 hvcurveto
          -60 vlineto
          hintmask 0010000000000000
          120 vmoveto
          hintmask 1001000010000000
          -21 callgsubr
          endchar
        </CharString>
        <CharString name="ddotbelow">
          750 34 callgsubr
          67 101 callsubr
          142 122 69 85 hintmask 0001000100100000
          56 callgsubr
          hintmask 0010011010100000
          -16 callsubr
          hintmask 0001000000000000
          120 vmoveto
          hintmask 0100100010000000
          -21 callgsubr
          hintmask 1000000001000000
          -65 -474 rmoveto
          3 callgsubr
        </CharString>
        <CharString name="degree">
          510 336 56 235 56 hstem
          82 56 235 56 vstem
          429 510 rmoveto
          96 -78 77 -96 -96 -77 -77 -96 -96 77 -78 96 96 78 78 96 vhcurveto
          -56 hmoveto
          -65 -53 -53 -65 -65 -52 53 65 65 52 52 65 65 53 -52 -65 vhcurveto
          endchar
        </CharString>
        <CharString name="diameter">
          1028 -145 56 678 56 hstem
          119 56 678 56 vstem
          930 639 rmoveto
          15 -13 13 -15 -8 -7 -3 -5 -5 vhcurveto
          -110 -110 rlineto
          60 -69 -90 36 -99 hhcurveto
          -218 -177 -177 -218 -99 36 -90 61 -70 hvcurveto
          -111 -110 rlineto
          -5 -5 -3 -7 -8 125 callsubr
          8 7 3 5 5 vhcurveto
          110 111 rlineto
          -61 69 91 -36 99 hhcurveto
          218 177 177 218 99 -37 91 -60 69 hvcurveto
          110 110 rlineto
          5 5 3 7 8 vvcurveto
          -77 -389 rmoveto
          -187 -152 -152 -187 -84 -76 30 50 -59 vhcurveto
          477 479 rlineto
          51 -60 30 -76 -84 vvcurveto
          -120 259 rmoveto
          -478 -478 rlineto
          -50 59 -30 77 83 vvcurveto
          187 152 152 187 83 77 -30 -50 59 vhcurveto
          endchar
        </CharString>
        <CharString name="died">
          680 -4 -21 360 62 -55 48 213 -20 hstemhm
          295 87 -85 87 -75 66 hintmask 01000000
          626 360 rmoveto
          18 vlineto
          12 -8 7 -12 vhcurveto
          hintmask 00101000
          -56 -55 -7 -57 hhcurveto
          -68 hlineto
          60 4 60 8 59 vhcurveto
          hintmask 00010100
          1 5 1 5 5 vvcurveto
          16 -12 3 -12 vhcurveto
          -46 hlineto
          hintmask 00001000
          -11 -8 -7 -12 -15 5 -17 1 -15 hvcurveto
          hintmask 00100010
          5 -49 3 -49 -49 vvcurveto
          -129 3 rlineto
          hintmask 01000000
          2 -26 -28 2 -26 hhcurveto
          -12 -7 -8 -12 hvcurveto
          -17 vlineto
          -12 2 -13 18 vhcurveto
          hintmask 00100010
          69 70 7 69 hhcurveto
          hintmask 00000100
          -107 -8 -108 -4 -107 vhcurveto
          hintmask 10001000
          -1 -7 -1 -8 -8 vvcurveto
          -14 5 -8 17 vhcurveto
          47 hlineto
          hintmask 00000100
          14 6 8 10 hvcurveto
          hintmask 00100010
          50 -7 50 -2 50 vhcurveto
          -5 199 rlineto
          53 53 0 -3 53 hvcurveto
          hintmask 01000000
          -3 25 27 -1 25 hhcurveto
          18 2 12 13 hvcurveto
          endchar
        </CharString>
        <CharString name="dieresis">
          681 545 110 hstem
          184 58 callsubr
          vstem
          -29 callgsubr
          endchar
        </CharString>
        <CharString name="dieresis.cap">
          681 483 110 hstem
          166 40 callgsubr
          vstem
          0 callgsubr
          endchar
        </CharString>
        <CharString name="dieresis.dup">
          681 545 110 hstem
          184 58 callsubr
          vstem
          -29 callgsubr
          endchar
        </CharString>
        <CharString name="dieresis.ts1">
          680 564 114 hstem
          162 113 129 113 vstem
          517 621 rmoveto
          29 -22 28 -34 -3 -2 0 -1 -3 vhcurveto
          -31 -4 -18 -26 -26 vvcurveto
          -27 22 -30 32 37 22 27 30 vhcurveto
          -242 hmoveto
          27 -22 30 -33 vhcurveto
          -4 -3 -1 -3 hhcurveto
          -31 -4 -17 -26 -26 vvcurveto
          -29 22 -28 34 33 24 28 29 vhcurveto
          endchar
        </CharString>
        <CharString name="discount">
          680 18 144 -140 -21 589 144 -127 144 hstemhm
          142 144 107 144 hintmask 01010000
          582 128 callgsubr
          -17 -3 -9 -21 -8 -14 -388 -628 rcurveline
          -10 -16 -18 -20 -18 vvcurveto
          -15 12 -14 16 vhcurveto
          1 hlineto
          20 1 9 23 9 15 351 567 rcurveline
          43 70 rlineto
          8 14 15 17 15 vvcurveto
          -296 -60 rmoveto
          hintmask 10101100
          80 callgsubr
          251 -572 rmoveto
          80 callgsubr
          endchar
        </CharString>
        <CharString name="divide">
          1028 0 122 100 56 100 122 hstem
          453 122 cntrmask 11100000
          930 250 24 callsubr
          -355 189 -100 callsubr
          -378 vmoveto
          3 callgsubr
        </CharString>
        <CharString name="divorced">
          680 -83 -21 139 63 141 63 102 63 139 -20 hstem
          307 62 -61 61 -61 62 cntrmask 00000111
          228 251 rmoveto
          103 -83 113 -133 vhcurveto
          -5 -6 -1 -5 hhcurveto
          -103 -11 -104 -76 -127 vvcurveto
          -118 101 -99 120 119 99 98 118 vhcurveto
          662 -1 rmoveto
          112 -94 105 -129 -5 -6 0 -1 -5 vhcurveto
          -103 -12 -97 -78 -125 vvcurveto
          -106 84 -109 134 113 108 90 124 vhcurveto
          -506 -332 rmoveto
          8 -2 9 6 vvcurveto
          -9 125 -3 125 125 vvcurveto
          88 5 87 8 88 vhcurveto
          3 1 3 3 vvcurveto
          8 -6 8 -9 2 vhcurveto
          -51 hlineto
          -4 -4 0 -1 -3 hvcurveto
          -9 -3 -3 -8 -9 vvcurveto
          -8 2 -9 1 -7 vhcurveto
          8 -86 2 -87 -86 vvcurveto
          -10 -346 -2 -31 rlineto
          -1 -3 0 -4 -3 vvcurveto
          -9 5 -8 10 -2 vhcurveto
          50 hlineto
          20 4 8 14 hvcurveto
          445 332 rmoveto
          -89 -67 -63 -96 -81 -75 46 96 -11 vhcurveto
          8 vlineto
          91 67 65 103 90 70 -63 -91 vhcurveto
          -649 4 rmoveto
          -5 0 -5 -1 -5 vhcurveto
          -85 -8 -67 -56 -94 hhcurveto
          -82 -77 51 101 105 79 49 83 91 76 -61 -89 hvcurveto
          endchar
        </CharString>
        <CharString name="dlinebelow">
          750 -161 44 106 101 callsubr
          333 85 hintmask 0001000101000000
          56 callgsubr
          hintmask 0010011011000000
          -16 callsubr
          hintmask 0001000000000000
          120 vmoveto
          hintmask 0100100010000000
          -21 callgsubr
          hintmask 1000000000000000
          99 -496 -18 callsubr
        </CharString>
        <CharString name="dollar">
          681 -35 -21 46 44 99 106 63 117 -44 44 50 106 85 44 46 -20 hstemhm
          97 66 155 44 155 66 cntrmask 0000000011100000
          hintmask 1110111111100000
          583 199 rmoveto
          52 -21 48 -39 38 vhcurveto
          -53 53 -56 11 -52 9 rrcurveto
          250 vlineto
          122 -5 36 -52 11 -28 rrcurveto
          -48 -3 -6 -36 -14 vvcurveto
          -32 23 -21 30 16 37 8 49 161 -177 14 -39 3 vhcurveto
          -4 1 -1 1 17 vvcurveto
          27 -44 -46 vlineto
          -123 -8 -98 -84 -104 vvcurveto
          -52 24 -45 40 -36 vhcurveto
          47 -41 47 -10 63 -13 rrcurveto
          -277 vlineto
          -92 5 -59 38 -19 56 rrcurveto
          44 1 11 32 20 vvcurveto
          33 -25 20 -28 -11 -42 -4 -54 -112 89 -75 132 -4 vhcurveto
          -46 44 46 vlineto
          131 10 90 96 103 vvcurveto
          -265 220 rmoveto
          -35 7 -120 23 91 vvcurveto
          59 65 54 90 7 vhcurveto
          199 -492 rmoveto
          -64 -61 -61 -94 -9 vhcurveto
          hintmask 0001000011100000
          268 vlineto
          138 -22 17 -82 -30 vvcurveto
          endchar
        </CharString>
        <CharString name="dollar.oldstyle">
          819 -55 46 0 44 -44 46 97 106 -57 106 181 106 83 46 0 46 hstemhm
          97 67 -67 106 112 45 98 45 112 106 -66 66 hintmask 0001010110111000
          721 195 rmoveto
          107 -106 77 -112 18 vhcurveto
          260 vlineto
          64 -5 66 -14 36 -62 rrcurveto
          -33 -21 -26 -28 -30 24 -22 29 36 17 28 30 131 -125 33 -93 10 hvcurveto
          49 -45 -46 -98 46 -45 -54 vlineto
          -81 -8 -137 -68 -113 vvcurveto
          -9 vlineto
          15 -106 114 -56 89 -12 rrcurveto
          -285 vlineto
          -65 12 -66 10 -36 72 rrcurveto
          hintmask 0001000001000000
          35 20 25 29 30 -23 22 -30 hvcurveto
          hintmask 1000101010110100
          -38 -15 -30 -27 -136 121 -38 97 -14 hvcurveto
          -50 45 46 98 -46 45 52 vlineto
          0 25 7 14 5 vhcurveto
          82 26 97 63 97 vvcurveto
          -263 211 rmoveto
          -98 21 rlineto
          232 98 vlineto
          -143 -224 rmoveto
          -59 12 -92 24 71 vvcurveto
          70 111 34 40 6 vhcurveto
          340 -483 rmoveto
          -77 -103 -36 -49 -11 vhcurveto
          244 vlineto
          59 -17 93 -27 -76 vvcurveto
          -197 -132 rmoveto
          hintmask 0100000000110000
          0 -28 -2 -18 vhcurveto
          -52 1 rlineto
          282 vlineto
          98 -20 rlineto
          hintmask 0010000000010000
          endchar
        </CharString>
        <CharString name="dong">
          750 -44 44 hstem
          639 35 rmoveto
          42 vlineto
          -70 -9 6 47 hvcurveto
          1 398 rlineto
          78 42 -79 124 hlineto
          -159 -10 rlineto
          -42 vlineto
          70 9 -7 -46 hvcurveto
          -19 -195 -42 195 -125 vlineto
          18 -21 -51 34 -79 hhcurveto
          -143 -118 -96 -120 -115 108 -100 141 78 54 34 23 27 hvcurveto
          -57 vlineto
          163 -46 rmoveto
          12 -10 10 -12 vhcurveto
          -527 hlineto
          57 callgsubr
          527 hlineto
          12 10 10 12 hvcurveto
          -163 160 rmoveto
          -70 -46 -70 -12 -37 hhcurveto
          -48 -47 19 41 -31 hvcurveto
          -31 39 -3 55 29 vvcurveto
          26 2 62 41 44 vhcurveto
          34 33 50 18 46 hhcurveto
          28 67 -5 -65 46 hvcurveto
          endchar
        </CharString>
        <CharString name="dotaccent">
          403 539 22 callsubr
          600 rmoveto
          3 callgsubr
        </CharString>
        <CharString name="dotaccent.alt">
          403 496 22 callsubr
          557 rmoveto
          3 callgsubr
        </CharString>
        <CharString name="dotaccent.cap">
          403 483 22 callsubr
          544 rmoveto
          3 callgsubr
        </CharString>
        <CharString name="dotlessi">
          0 callsubr
          hstemhm
          166 85 hintmask 10110000
          -28 callsubr
          hintmask 11010000
          -79 callgsubr
          endchar
        </CharString>
        <CharString name="dotlessj">
          65 callsubr
          hstem
          -10 106 113 85 vstem
          294 -57 callsubr
          endchar
        </CharString>
        <CharString name="e">
          -31 callgsubr
          hstemhm
          65 100 305 77 hintmask 11011110
          547 119 rmoveto
          17 -16 0 -5 -15 -2 -4 -14 -6 vhcurveto
          -69 -28 -74 -24 -56 hhcurveto
          -81 -45 45 17 -15 hvcurveto
          -39 48 0 63 27 vvcurveto
          352 126 callsubr
          67 -36 132 -187 hvcurveto
          hintmask 10101110
          -152 -107 -109 -119 -127 122 -104 152 159 49 111 19 150 callgsubr
          -303 hlineto
          132 12 97 27 47 hhcurveto
          139 7 -130 -29 1 hvcurveto
          endchar
        </CharString>
        <CharString name="eacute">
          -31 callgsubr
          75 -21 196 -88 callgsubr
          -9 395 -86 callsubr
        </CharString>
        <CharString name="ebreve">
          -31 callgsubr
          63 52 127 -88 callgsubr
          25 434 -97 callgsubr
          endchar
        </CharString>
        <CharString name="ecaron">
          -31 callgsubr
          85 -21 176 -88 callgsubr
          -13 418 -48 callgsubr
        </CharString>
        <CharString name="ecircumflex">
          -31 callgsubr
          85 -21 176 -88 callgsubr
          -13 270 -58 callsubr
          endchar
        </CharString>
        <CharString name="ecircumflexacute">
          -31 callgsubr
          85 -21 318 -88 callgsubr
          86 callsubr
          -15 263 -102 callgsubr
        </CharString>
        <CharString name="ecircumflexdotbelow">
          611 34 callgsubr
          67 36 62 31 102 36 -31 31 159 33 85 -21 176 -20 hstemhm
          65 100 79 122 104 77 hintmask 0110110010100000
          547 119 rmoveto
          17 -16 0 -5 -15 -2 -4 -14 -6 vhcurveto
          -69 -28 -74 -24 -56 hhcurveto
          -81 -45 45 17 -15 hvcurveto
          -39 48 0 63 27 vvcurveto
          352 126 callsubr
          67 -36 132 -187 hvcurveto
          hintmask 0101011110100000
          -152 -107 -109 -119 -127 122 -104 152 159 49 111 19 150 callgsubr
          -303 hlineto
          132 12 97 27 47 hhcurveto
          139 7 -130 -29 1 hvcurveto
          -13 270 -58 callsubr
          hintmask 1000000001000000
          -78 -651 rmoveto
          3 callgsubr
        </CharString>
        <CharString name="ecircumflexgrave">
          -31 callgsubr
          85 -21 133 -88 callgsubr
          -14 272 -60 callsubr
        </CharString>
        <CharString name="ecircumflexhookabove">
          -31 callgsubr
          85 -21 334 -92 callsubr
          hintmask 0000011010000000
          86 callsubr
          104 268 -107 callgsubr
        </CharString>
        <CharString name="ecircumflextilde">
          -31 callgsubr
          85 -21 133 63 callgsubr
          65 100 305 77 hintmask 1101100001100000
          547 119 rmoveto
          17 -16 0 -5 -15 -2 -4 -14 -6 vhcurveto
          -69 -28 -74 -24 -56 hhcurveto
          -81 -45 45 17 -15 hvcurveto
          -39 48 0 63 27 vvcurveto
          352 126 callsubr
          67 -36 132 -187 hvcurveto
          hintmask 1010100001100000
          -152 -107 -109 -119 -127 122 -104 152 159 49 111 19 150 callgsubr
          -303 hlineto
          132 12 97 27 47 hhcurveto
          139 7 -130 -29 1 hvcurveto
          hintmask 0000011010000000
          -14 272 -13 callgsubr
          hintmask 0000000100000000
          -74 callgsubr
          hintmask 0000000010000000
          -85 callgsubr
          hintmask 0000000100000000
          22 -24 rlineto
          hintmask 0000001010000000
          -74 callsubr
          hintmask 0000000100000000
          -88 callsubr
        </CharString>
        <CharString name="edblgrave">
          -31 callgsubr
          76 -21 195 -88 callgsubr
          -9 272 -92 callgsubr
        </CharString>
        <CharString name="edieresis">
          -31 callgsubr
          97 110 hstemhm
          65 100 -16 58 callsubr
          9 77 hintmask 1101101001000000
          547 119 rmoveto
          17 -16 0 -5 -15 -2 -4 -14 -6 vhcurveto
          -69 -28 -74 -24 -56 hhcurveto
          -81 -45 45 17 -15 hvcurveto
          -39 48 0 63 27 vvcurveto
          352 126 callsubr
          67 -36 132 -187 hvcurveto
          hintmask 1010101001000000
          -152 -107 -109 -119 -127 122 -104 152 159 49 111 19 150 callgsubr
          -303 hlineto
          132 12 97 27 47 hhcurveto
          139 7 -130 -29 1 hvcurveto
          hintmask 0000010110000000
          -211 344 -52 callgsubr
        </CharString>
        <CharString name="edotaccent">
          -31 callgsubr
          91 122 hstemhm
          65 100 79 122 104 77 hintmask 1101101010000000
          547 119 rmoveto
          17 -16 0 -5 -15 -2 -4 -14 -6 vhcurveto
          -69 -28 -74 -24 -56 hhcurveto
          -81 -45 45 17 -15 hvcurveto
          -39 48 0 63 27 vvcurveto
          352 126 callsubr
          67 -36 132 -187 hvcurveto
          hintmask 1010101010000000
          -152 -107 -109 -119 -127 122 -104 152 159 49 111 19 150 callgsubr
          -303 hlineto
          132 12 97 27 47 hhcurveto
          139 7 -130 -29 1 hvcurveto
          hintmask 0000010100000000
          -104 344 rmoveto
          3 callgsubr
        </CharString>
        <CharString name="edotbelow">
          611 34 callgsubr
          67 36 62 31 102 36 -31 31 159 33 hstemhm
          65 100 79 122 104 77 hintmask 0110111010000000
          547 119 rmoveto
          17 -16 0 -5 -15 -2 -4 -14 -6 vhcurveto
          -69 -28 -74 -24 -56 hhcurveto
          -81 -45 45 17 -15 hvcurveto
          -39 48 0 63 27 vvcurveto
          352 126 callsubr
          67 -36 132 -187 hvcurveto
          hintmask 0101011010000000
          -152 -107 -109 -119 -127 122 -104 152 159 49 111 19 150 callgsubr
          -303 hlineto
          132 12 97 27 47 hhcurveto
          139 7 -130 -29 1 hvcurveto
          hintmask 1000000100000000
          -104 -395 rmoveto
          3 callgsubr
        </CharString>
        <CharString name="egrave">
          -31 callgsubr
          75 -21 196 -88 callgsubr
          -86 279 -56 callsubr
        </CharString>
        <CharString name="ehookabove">
          -31 callgsubr
          73 -21 201 -88 callgsubr
          -43 379 -107 callgsubr
        </CharString>
        <CharString name="eight">
          681 -22 41 609 38 hstemhm
          80 61 callsubr
          600 -70 callsubr
        </CharString>
        <CharString name="eight.oldstyle">
          706 -22 41 609 38 hstemhm
          93 61 callsubr
          613 -70 callsubr
        </CharString>
        <CharString name="eight.prop">
          706 -22 41 609 38 hstemhm
          93 61 callsubr
          613 -70 callsubr
        </CharString>
        <CharString name="eight.taboldstyle">
          681 -22 41 609 38 hstemhm
          80 61 callsubr
          600 -70 callsubr
        </CharString>
        <CharString name="ellipsis">
          870 0 122 hstem
          140 122 112 122 112 122 cntrmask 01110000
          262 92 callsubr
          234 hmoveto
          -101 callsubr
          234 hmoveto
          3 callgsubr
        </CharString>
        <CharString name="emacron">
          -31 callgsubr
          130 44 hstemhm
          65 100 305 77 hintmask 11011011
          547 119 rmoveto
          17 -16 0 -5 -15 -2 -4 -14 -6 vhcurveto
          -69 -28 -74 -24 -56 hhcurveto
          -81 -45 45 17 -15 hvcurveto
          -39 48 0 63 27 vvcurveto
          352 126 callsubr
          67 -36 132 -187 hvcurveto
          hintmask 10101011
          -152 -107 -109 -119 -127 122 -104 152 159 49 111 19 150 callgsubr
          -303 hlineto
          132 12 97 27 47 hhcurveto
          139 7 -130 -29 1 hvcurveto
          hintmask 00000100
          60 322 -18 callsubr
        </CharString>
        <CharString name="emdash">
          1361 250 33 hstem
          56 1248 vstem
          1304 250 rmoveto
          33 -1248 -33 vlineto
          endchar
        </CharString>
        <CharString name="emdash.alt">
          944 250 34 hstem
          887 250 rmoveto
          34 -831 -34 vlineto
          endchar
        </CharString>
        <CharString name="endash">
          681 250 33 hstem
          28 624 vstem
          652 250 rmoveto
          33 -624 -33 vlineto
          endchar
        </CharString>
        <CharString name="eng">
          675 -216 44 -44 88 -44 44 hstem
          13 callgsubr
          cntrmask 11100000
          600 84 rmoveto
          218 vlineto
          110 -75 30 -93 -107 -56 -59 -39 -23 vhcurveto
          98 vlineto
          -164 -11 rlineto
          -44 vlineto
          74 9 -7 -49 hvcurveto
          -247 -89 callsubr
          -62 callgsubr
          174 vlineto
          113 104 38 62 74 17 -42 -64 vhcurveto
          -219 vlineto
          -99 0 -112 -56 -36 vhcurveto
          20 -4 -18 15 -20 hhcurveto
          -25 -19 -20 -24 -25 19 -19 25 130 57 151 149 hvcurveto
          endchar
        </CharString>
        <CharString name="eogonek">
          611 71 callgsubr
          110 36 62 31 102 36 -31 31 159 33 151 callsubr
          hintmask 0011010101000000
          547 119 rmoveto
          17 -16 0 -5 -15 -2 -4 -14 -6 vhcurveto
          -69 -28 -74 -24 -56 hhcurveto
          -81 -45 45 17 -15 hvcurveto
          -39 48 0 63 27 vvcurveto
          352 hlineto
          hintmask 0010101100100000
          72 callgsubr
          hintmask 1000000010000000
          -38 -32 -30 -45 -48 vvcurveto
          -38 callsubr
          hintmask 0100000001000000
          14 callsubr
          1 109 104 64 rrcurveto
          hintmask 0000101000100000
          105 26 34 80 16 vvcurveto
          -77 137 rmoveto
          -303 hlineto
          132 12 97 27 47 hhcurveto
          139 7 -130 -29 1 hvcurveto
          endchar
        </CharString>
</ttFont>
